<?xml version="1.0" encoding="UTF-8"?><svg xmlns="http://www.w3.org/2000/svg" xmlns:xlink="http://www.w3.org/1999/xlink" fill-opacity="1" color-rendering="auto" color-interpolation="auto" text-rendering="auto" stroke="black" stroke-linecap="square" width="937" stroke-miterlimit="10" shape-rendering="auto" stroke-opacity="1" fill="black" stroke-dasharray="none" font-weight="normal" stroke-width="1" height="868" font-family="'Dialog'" font-style="normal" stroke-linejoin="miter" font-size="12px" stroke-dashoffset="0" image-rendering="auto">
  <!--Generated by ySVG 2.5-->
  <defs id="genericDefs"/>
  <g>
    <defs id="defs1">
      <clipPath clipPathUnits="userSpaceOnUse" id="clipPath1">
        <path d="M0 0 L937 0 L937 868 L0 868 L0 0 Z"/>
      </clipPath>
      <clipPath clipPathUnits="userSpaceOnUse" id="clipPath2">
        <path d="M207 105 L1144 105 L1144 973 L207 973 L207 105 Z"/>
      </clipPath>
    </defs>
    <g fill="white" text-rendering="geometricPrecision" shape-rendering="geometricPrecision" transform="translate(-207,-105)" stroke="white">
      <rect x="207" width="937" height="868" y="105" clip-path="url(#clipPath2)" stroke="none"/>
    </g>
    <g transform="matrix(1,0,0,1,-207,-105)" fill-opacity="0.1451" fill="rgb(255,0,0)" text-rendering="geometricPrecision" shape-rendering="geometricPrecision" stroke="rgb(255,0,0)" stroke-opacity="0.1451">
      <rect x="964.6658" y="155.5176" clip-path="url(#clipPath2)" width="77.2373" rx="4" ry="4" height="43.3145" stroke="none"/>
    </g>
    <g stroke-linecap="butt" transform="matrix(1,0,0,1,-207,-105)" fill="red" text-rendering="geometricPrecision" shape-rendering="geometricPrecision" stroke="red" stroke-miterlimit="1.45">
      <rect x="964.6658" y="155.5176" clip-path="url(#clipPath2)" fill="none" width="77.2373" rx="4" ry="4" height="43.3145"/>
      <text x="980.7874" y="181.3292" clip-path="url(#clipPath2)" fill="black" font-family="sans-serif" stroke="none" xml:space="preserve">RA1 (5)</text>
    </g>
    <g transform="matrix(1,0,0,1,-207,-105)" fill-opacity="0.1451" fill="rgb(255,0,0)" text-rendering="geometricPrecision" shape-rendering="geometricPrecision" stroke="rgb(255,0,0)" stroke-opacity="0.1451">
      <rect x="1047.9031" y="155.5176" clip-path="url(#clipPath2)" width="45.5715" rx="4" ry="4" height="43.3145" stroke="none"/>
    </g>
    <g stroke-linecap="butt" transform="matrix(1,0,0,1,-207,-105)" fill="red" text-rendering="geometricPrecision" shape-rendering="geometricPrecision" stroke="red" stroke-miterlimit="1.45">
      <rect x="1047.9031" y="155.5176" clip-path="url(#clipPath2)" fill="none" width="45.5715" rx="4" ry="4" height="43.3145"/>
      <text x="1066.8715" y="181.3292" clip-path="url(#clipPath2)" fill="black" font-family="sans-serif" stroke="none" xml:space="preserve">5</text>
    </g>
    <g fill="rgb(204,255,204)" text-rendering="geometricPrecision" shape-rendering="geometricPrecision" transform="matrix(1,0,0,1,-207,-105)" stroke="rgb(204,255,204)">
      <rect x="257.6719" y="286.5409" clip-path="url(#clipPath2)" width="692.3281" rx="4" ry="4" height="107.7045" stroke="none"/>
    </g>
    <g font-size="16px" stroke-linecap="butt" transform="matrix(1,0,0,1,-207,-105)" text-rendering="geometricPrecision" font-family="'DejaVu Serif'" shape-rendering="geometricPrecision" stroke-miterlimit="1.45">
      <text x="478.6602" xml:space="preserve" y="307.3925" clip-path="url(#clipPath2)" stroke="none">Memoria de practicas: Remoto</text>
      <rect x="257.6719" y="286.5409" clip-path="url(#clipPath2)" fill="none" width="692.3281" rx="4" ry="4" height="107.7045"/>
      <text x="278.8004" xml:space="preserve" font-size="14px" y="330.5974" clip-path="url(#clipPath2)" stroke="none">Realización de un video explicativo sobre:</text>
      <text x="278.8004" xml:space="preserve" font-size="14px" y="346.8943" clip-path="url(#clipPath2)" stroke="none">- Configuración de la red de prueba en GNS3.</text>
      <text x="278.8004" xml:space="preserve" font-size="14px" y="363.1912" clip-path="url(#clipPath2)" stroke="none">- Acceso remoto mediante: Telnet, SSH y Escritorio Remoto.</text>
      <text x="278.8004" xml:space="preserve" font-size="14px" y="379.488" clip-path="url(#clipPath2)" stroke="none">- Acceso desde el anfitrion a las maquinas virtuales.</text>
    </g>
    <g transform="matrix(1,0,0,1,-207,-105)" fill-opacity="0.1451" fill="rgb(255,0,0)" text-rendering="geometricPrecision" shape-rendering="geometricPrecision" stroke="rgb(255,0,0)" stroke-opacity="0.1451">
      <rect x="962.5972" y="286.5409" clip-path="url(#clipPath2)" width="79.3059" rx="4" ry="4" height="43.3145" stroke="none"/>
    </g>
    <g stroke-linecap="butt" transform="matrix(1,0,0,1,-207,-105)" fill="red" text-rendering="geometricPrecision" shape-rendering="geometricPrecision" stroke="red" stroke-miterlimit="1.45">
      <rect x="962.5972" y="286.5409" clip-path="url(#clipPath2)" fill="none" width="79.3059" rx="4" ry="4" height="43.3145"/>
      <text x="975.9357" y="312.3525" clip-path="url(#clipPath2)" fill="black" font-family="sans-serif" stroke="none" xml:space="preserve">RA7 (10)</text>
    </g>
    <g transform="matrix(1,0,0,1,-207,-105)" fill-opacity="0.1451" fill="rgb(255,0,0)" text-rendering="geometricPrecision" shape-rendering="geometricPrecision" stroke="rgb(255,0,0)" stroke-opacity="0.1451">
      <rect x="1047.9031" y="286.5409" clip-path="url(#clipPath2)" width="45.5715" rx="4" ry="4" height="43.3145" stroke="none"/>
    </g>
    <g stroke-linecap="butt" transform="matrix(1,0,0,1,-207,-105)" fill="red" text-rendering="geometricPrecision" shape-rendering="geometricPrecision" stroke="red" stroke-miterlimit="1.45">
      <rect x="1047.9031" y="286.5409" clip-path="url(#clipPath2)" fill="none" width="45.5715" rx="4" ry="4" height="43.3145"/>
      <text x="1063.0541" y="312.3525" clip-path="url(#clipPath2)" fill="black" font-family="sans-serif" stroke="none" xml:space="preserve">10</text>
    </g>
    <g fill="rgb(204,255,204)" text-rendering="geometricPrecision" shape-rendering="geometricPrecision" transform="matrix(1,0,0,1,-207,-105)" stroke="rgb(204,255,204)">
      <rect x="257.6719" y="155.5176" clip-path="url(#clipPath2)" width="692.3281" rx="4" ry="4" height="120.2045" stroke="none"/>
    </g>
    <g font-size="16px" stroke-linecap="butt" transform="matrix(1,0,0,1,-207,-105)" text-rendering="geometricPrecision" font-family="'DejaVu Serif'" shape-rendering="geometricPrecision" stroke-miterlimit="1.45">
      <text x="373.0781" xml:space="preserve" y="176.3692" clip-path="url(#clipPath2)" stroke="none">Memoria de practicas: Instalación del sistema operativo.</text>
      <rect x="257.6719" y="155.5176" clip-path="url(#clipPath2)" fill="none" width="692.3281" rx="4" ry="4" height="120.2045"/>
      <text x="263.6719" xml:space="preserve" font-size="14px" y="212.7712" clip-path="url(#clipPath2)" stroke="none">Memoria de practicas en ExeLearning sobre:</text>
      <text x="263.6719" xml:space="preserve" font-size="14px" y="229.0681" clip-path="url(#clipPath2)" stroke="none">- Instalación ubuntu 14 y 18.</text>
      <text x="263.6719" xml:space="preserve" font-size="14px" y="245.365" clip-path="url(#clipPath2)" stroke="none">- Instalación de CentOS 7.</text>
      <text x="263.6719" xml:space="preserve" font-size="14px" y="261.6619" clip-path="url(#clipPath2)" stroke="none">- Particionado con GParted.</text>
    </g>
    <g fill="rgb(204,255,204)" text-rendering="geometricPrecision" shape-rendering="geometricPrecision" transform="matrix(1,0,0,1,-207,-105)" stroke="rgb(204,255,204)">
      <rect x="257.6719" y="403.17" clip-path="url(#clipPath2)" width="692.3281" rx="4" ry="4" height="67.0233" stroke="none"/>
    </g>
    <g font-size="16px" stroke-linecap="butt" transform="matrix(1,0,0,1,-207,-105)" text-rendering="geometricPrecision" font-family="'DejaVu Serif'" shape-rendering="geometricPrecision" stroke-miterlimit="1.45">
      <text x="426.957" xml:space="preserve" y="424.0216" clip-path="url(#clipPath2)" stroke="none">Examen scripts: monitorización del sistema</text>
      <rect x="257.6719" y="403.17" clip-path="url(#clipPath2)" fill="none" width="692.3281" rx="4" ry="4" height="67.0233"/>
    </g>
    <g transform="matrix(1,0,0,1,-207,-105)" fill-opacity="0.1451" fill="rgb(255,0,0)" text-rendering="geometricPrecision" shape-rendering="geometricPrecision" stroke="rgb(255,0,0)" stroke-opacity="0.1451">
      <rect x="962.5972" y="403.17" clip-path="url(#clipPath2)" width="79.3059" rx="4" ry="4" height="43.3145" stroke="none"/>
    </g>
    <g stroke-linecap="butt" transform="matrix(1,0,0,1,-207,-105)" fill="red" text-rendering="geometricPrecision" shape-rendering="geometricPrecision" stroke="red" stroke-miterlimit="1.45">
      <rect x="962.5972" y="403.17" clip-path="url(#clipPath2)" fill="none" width="79.3059" rx="4" ry="4" height="43.3145"/>
      <text x="975.9357" y="428.9816" clip-path="url(#clipPath2)" fill="black" font-family="sans-serif" stroke="none" xml:space="preserve">RA5 (20)</text>
    </g>
    <g transform="matrix(1,0,0,1,-207,-105)" fill-opacity="0.1451" fill="rgb(255,0,0)" text-rendering="geometricPrecision" shape-rendering="geometricPrecision" stroke="rgb(255,0,0)" stroke-opacity="0.1451">
      <rect x="1047.9031" y="403.17" clip-path="url(#clipPath2)" width="45.5715" rx="4" ry="4" height="43.3145" stroke="none"/>
    </g>
    <g stroke-linecap="butt" transform="matrix(1,0,0,1,-207,-105)" fill="red" text-rendering="geometricPrecision" shape-rendering="geometricPrecision" stroke="red" stroke-miterlimit="1.45">
      <rect x="1047.9031" y="403.17" clip-path="url(#clipPath2)" fill="none" width="45.5715" rx="4" ry="4" height="43.3145"/>
      <text x="1063.0541" y="428.9816" clip-path="url(#clipPath2)" fill="black" font-family="sans-serif" stroke="none" xml:space="preserve">20</text>
    </g>
    <g font-size="14px" stroke-linecap="butt" transform="matrix(1,0,0,1,-207,-105)" text-rendering="geometricPrecision" font-family="'DejaVu Serif'" shape-rendering="geometricPrecision" stroke-miterlimit="1.45">
      <text x="278.8004" xml:space="preserve" y="452.066" clip-path="url(#clipPath2)" stroke="none">- Monitorización de Linux mediante comandos y scripts.</text>
    </g>
    <g fill="rgb(204,255,204)" text-rendering="geometricPrecision" shape-rendering="geometricPrecision" transform="matrix(1,0,0,1,-207,-105)" stroke="rgb(204,255,204)">
      <rect x="257.6719" y="476.4845" clip-path="url(#clipPath2)" width="692.3281" rx="4" ry="4" height="67.0233" stroke="none"/>
    </g>
    <g font-size="16px" stroke-linecap="butt" transform="matrix(1,0,0,1,-207,-105)" text-rendering="geometricPrecision" font-family="'DejaVu Serif'" shape-rendering="geometricPrecision" stroke-miterlimit="1.45">
      <text x="460.8047" xml:space="preserve" y="497.3361" clip-path="url(#clipPath2)" stroke="none">Video Active Directory en Win2012</text>
      <rect x="257.6719" y="476.4845" clip-path="url(#clipPath2)" fill="none" width="692.3281" rx="4" ry="4" height="67.0233"/>
    </g>
    <g transform="matrix(1,0,0,1,-207,-105)" fill-opacity="0.1451" fill="rgb(255,0,0)" text-rendering="geometricPrecision" shape-rendering="geometricPrecision" stroke="rgb(255,0,0)" stroke-opacity="0.1451">
      <rect x="962.5972" y="476.4845" clip-path="url(#clipPath2)" width="79.3059" rx="4" ry="4" height="43.3145" stroke="none"/>
    </g>
    <g stroke-linecap="butt" transform="matrix(1,0,0,1,-207,-105)" fill="red" text-rendering="geometricPrecision" shape-rendering="geometricPrecision" stroke="red" stroke-miterlimit="1.45">
      <rect x="962.5972" y="476.4845" clip-path="url(#clipPath2)" fill="none" width="79.3059" rx="4" ry="4" height="43.3145"/>
      <text x="975.9357" y="502.2961" clip-path="url(#clipPath2)" fill="black" font-family="sans-serif" stroke="none" xml:space="preserve">RA2 (10)</text>
    </g>
    <g transform="matrix(1,0,0,1,-207,-105)" fill-opacity="0.1451" fill="rgb(255,0,0)" text-rendering="geometricPrecision" shape-rendering="geometricPrecision" stroke="rgb(255,0,0)" stroke-opacity="0.1451">
      <rect x="1047.9031" y="476.4845" clip-path="url(#clipPath2)" width="45.5715" rx="4" ry="4" height="43.3145" stroke="none"/>
    </g>
    <g stroke-linecap="butt" transform="matrix(1,0,0,1,-207,-105)" fill="red" text-rendering="geometricPrecision" shape-rendering="geometricPrecision" stroke="red" stroke-miterlimit="1.45">
      <rect x="1047.9031" y="476.4845" clip-path="url(#clipPath2)" fill="none" width="45.5715" rx="4" ry="4" height="43.3145"/>
      <text x="1066.8715" y="502.2961" clip-path="url(#clipPath2)" fill="black" font-family="sans-serif" stroke="none" xml:space="preserve">5</text>
    </g>
    <g fill="rgb(204,255,204)" text-rendering="geometricPrecision" shape-rendering="geometricPrecision" transform="matrix(1,0,0,1,-207,-105)" stroke="rgb(204,255,204)">
      <rect x="257.6719" y="549.7991" clip-path="url(#clipPath2)" width="692.3281" rx="4" ry="4" height="60.3145" stroke="none"/>
    </g>
    <g font-size="16px" stroke-linecap="butt" transform="matrix(1,0,0,1,-207,-105)" text-rendering="geometricPrecision" font-family="'DejaVu Serif'" shape-rendering="geometricPrecision" stroke-miterlimit="1.45">
      <text x="447.4727" xml:space="preserve" y="570.6506" clip-path="url(#clipPath2)" stroke="none">Scripts de administración de usuarios.</text>
      <rect x="257.6719" y="549.7991" clip-path="url(#clipPath2)" fill="none" width="692.3281" rx="4" ry="4" height="60.3145"/>
    </g>
    <g transform="matrix(1,0,0,1,-207,-105)" fill-opacity="0.1451" fill="rgb(255,0,0)" text-rendering="geometricPrecision" shape-rendering="geometricPrecision" stroke="rgb(255,0,0)" stroke-opacity="0.1451">
      <rect x="962.5972" y="549.7991" clip-path="url(#clipPath2)" width="79.3059" rx="4" ry="4" height="43.3145" stroke="none"/>
    </g>
    <g stroke-linecap="butt" transform="matrix(1,0,0,1,-207,-105)" fill="red" text-rendering="geometricPrecision" shape-rendering="geometricPrecision" stroke="red" stroke-miterlimit="1.45">
      <rect x="962.5972" y="549.7991" clip-path="url(#clipPath2)" fill="none" width="79.3059" rx="4" ry="4" height="43.3145"/>
      <text x="975.9357" y="575.6106" clip-path="url(#clipPath2)" fill="black" font-family="sans-serif" stroke="none" xml:space="preserve">RA2 (10)</text>
    </g>
    <g transform="matrix(1,0,0,1,-207,-105)" fill-opacity="0.1451" fill="rgb(255,0,0)" text-rendering="geometricPrecision" shape-rendering="geometricPrecision" stroke="rgb(255,0,0)" stroke-opacity="0.1451">
      <rect x="1047.9031" y="549.7991" clip-path="url(#clipPath2)" width="45.5715" rx="4" ry="4" height="43.3145" stroke="none"/>
    </g>
    <g stroke-linecap="butt" transform="matrix(1,0,0,1,-207,-105)" fill="red" text-rendering="geometricPrecision" shape-rendering="geometricPrecision" stroke="red" stroke-miterlimit="1.45">
      <rect x="1047.9031" y="549.7991" clip-path="url(#clipPath2)" fill="none" width="45.5715" rx="4" ry="4" height="43.3145"/>
      <text x="1066.8715" y="575.6106" clip-path="url(#clipPath2)" fill="black" font-family="sans-serif" stroke="none" xml:space="preserve">5</text>
    </g>
    <g fill="rgb(204,255,204)" text-rendering="geometricPrecision" shape-rendering="geometricPrecision" transform="matrix(1,0,0,1,-207,-105)" stroke="rgb(204,255,204)">
      <rect x="257.6719" y="616.4048" clip-path="url(#clipPath2)" width="692.3281" rx="4" ry="4" height="120.2045" stroke="none"/>
    </g>
    <g font-size="16px" stroke-linecap="butt" transform="matrix(1,0,0,1,-207,-105)" text-rendering="geometricPrecision" font-family="'DejaVu Serif'" shape-rendering="geometricPrecision" stroke-miterlimit="1.45">
      <text x="495.1992" xml:space="preserve" y="637.2563" clip-path="url(#clipPath2)" stroke="none">Solución situación con AD.</text>
      <rect x="257.6719" y="616.4048" clip-path="url(#clipPath2)" fill="none" width="692.3281" rx="4" ry="4" height="120.2045"/>
    </g>
    <g transform="matrix(1,0,0,1,-207,-105)" fill-opacity="0.1451" fill="rgb(255,0,0)" text-rendering="geometricPrecision" shape-rendering="geometricPrecision" stroke="rgb(255,0,0)" stroke-opacity="0.1451">
      <rect x="962.5972" y="616.4048" clip-path="url(#clipPath2)" width="79.3059" rx="4" ry="4" height="43.3145" stroke="none"/>
    </g>
    <g stroke-linecap="butt" transform="matrix(1,0,0,1,-207,-105)" fill="red" text-rendering="geometricPrecision" shape-rendering="geometricPrecision" stroke="red" stroke-miterlimit="1.45">
      <rect x="962.5972" y="616.4048" clip-path="url(#clipPath2)" fill="none" width="79.3059" rx="4" ry="4" height="43.3145"/>
      <text x="975.9357" y="642.2164" clip-path="url(#clipPath2)" fill="black" font-family="sans-serif" stroke="none" xml:space="preserve">RA3 (20)</text>
    </g>
    <g transform="matrix(1,0,0,1,-207,-105)" fill-opacity="0.1451" fill="rgb(255,0,0)" text-rendering="geometricPrecision" shape-rendering="geometricPrecision" stroke="rgb(255,0,0)" stroke-opacity="0.1451">
      <rect x="1047.9031" y="616.4048" clip-path="url(#clipPath2)" width="45.5715" rx="4" ry="4" height="43.3145" stroke="none"/>
    </g>
    <g stroke-linecap="butt" transform="matrix(1,0,0,1,-207,-105)" fill="red" text-rendering="geometricPrecision" shape-rendering="geometricPrecision" stroke="red" stroke-miterlimit="1.45">
      <rect x="1047.9031" y="616.4048" clip-path="url(#clipPath2)" fill="none" width="45.5715" rx="4" ry="4" height="43.3145"/>
      <text x="1063.0541" y="642.2164" clip-path="url(#clipPath2)" fill="black" font-family="sans-serif" stroke="none" xml:space="preserve">20</text>
    </g>
    <g font-size="14px" stroke-linecap="butt" transform="matrix(1,0,0,1,-207,-105)" text-rendering="geometricPrecision" font-family="'DejaVu Serif'" shape-rendering="geometricPrecision" stroke-miterlimit="1.45">
      <text x="278.6007" xml:space="preserve" y="526.6973" clip-path="url(#clipPath2)" stroke="none">- Instalación de Active Directory y unión al dominio</text>
      <text x="283.2014" xml:space="preserve" y="593.5942" clip-path="url(#clipPath2)" stroke="none">- Scripts para la creación de usuarios y compartir carpetas</text>
      <text x="286.4029" xml:space="preserve" y="659.3999" clip-path="url(#clipPath2)" stroke="none">- Crear una estructura de dominio y de directorios adecuada al problema.</text>
      <text x="286.4029" xml:space="preserve" y="675.6968" clip-path="url(#clipPath2)" stroke="none">- Construir la solución en función de la estructura anterior.</text>
      <text x="286.4029" xml:space="preserve" y="691.9937" clip-path="url(#clipPath2)" stroke="none">- Crear un script para automatizar la solución.</text>
      <text x="286.4029" xml:space="preserve" y="708.2905" clip-path="url(#clipPath2)" stroke="none">- Directivas de control del entorno de usuario.</text>
    </g>
    <g fill="rgb(204,255,204)" text-rendering="geometricPrecision" shape-rendering="geometricPrecision" transform="matrix(1,0,0,1,-207,-105)" stroke="rgb(204,255,204)">
      <rect x="257.6719" y="742.7193" clip-path="url(#clipPath2)" width="692.3281" rx="4" ry="4" height="86.7045" stroke="none"/>
    </g>
    <g font-size="16px" stroke-linecap="butt" transform="matrix(1,0,0,1,-207,-105)" text-rendering="geometricPrecision" font-family="'DejaVu Serif'" shape-rendering="geometricPrecision" stroke-miterlimit="1.45">
      <text x="501.4492" xml:space="preserve" y="763.5709" clip-path="url(#clipPath2)" stroke="none">Usuarios en red en Linux</text>
      <rect x="257.6719" y="742.7193" clip-path="url(#clipPath2)" fill="none" width="692.3281" rx="4" ry="4" height="86.7045"/>
    </g>
    <g transform="matrix(1,0,0,1,-207,-105)" fill-opacity="0.1451" fill="rgb(255,0,0)" text-rendering="geometricPrecision" shape-rendering="geometricPrecision" stroke="rgb(255,0,0)" stroke-opacity="0.1451">
      <rect x="962.5972" y="742.7193" clip-path="url(#clipPath2)" width="79.3059" rx="4" ry="4" height="43.3145" stroke="none"/>
    </g>
    <g stroke-linecap="butt" transform="matrix(1,0,0,1,-207,-105)" fill="red" text-rendering="geometricPrecision" shape-rendering="geometricPrecision" stroke="red" stroke-miterlimit="1.45">
      <rect x="962.5972" y="742.7193" clip-path="url(#clipPath2)" fill="none" width="79.3059" rx="4" ry="4" height="43.3145"/>
      <text x="975.9357" y="768.5309" clip-path="url(#clipPath2)" fill="black" font-family="sans-serif" stroke="none" xml:space="preserve">RA5 (20)</text>
    </g>
    <g transform="matrix(1,0,0,1,-207,-105)" fill-opacity="0.1451" fill="rgb(255,0,0)" text-rendering="geometricPrecision" shape-rendering="geometricPrecision" stroke="rgb(255,0,0)" stroke-opacity="0.1451">
      <rect x="1047.9031" y="742.7193" clip-path="url(#clipPath2)" width="45.5715" rx="4" ry="4" height="43.3145" stroke="none"/>
    </g>
    <g stroke-linecap="butt" transform="matrix(1,0,0,1,-207,-105)" fill="red" text-rendering="geometricPrecision" shape-rendering="geometricPrecision" stroke="red" stroke-miterlimit="1.45">
      <rect x="1047.9031" y="742.7193" clip-path="url(#clipPath2)" fill="none" width="45.5715" rx="4" ry="4" height="43.3145"/>
      <text x="1063.0541" y="768.5309" clip-path="url(#clipPath2)" fill="black" font-family="sans-serif" stroke="none" xml:space="preserve">20</text>
    </g>
    <g font-size="14px" stroke-linecap="butt" transform="matrix(1,0,0,1,-207,-105)" text-rendering="geometricPrecision" font-family="'DejaVu Serif'" shape-rendering="geometricPrecision" stroke-miterlimit="1.45">
      <text x="286.4029" xml:space="preserve" y="785.7144" clip-path="url(#clipPath2)" stroke="none">- Examen de scripts de configuración de usuarios de red de linux.</text>
    </g>
    <g fill="rgb(204,255,204)" text-rendering="geometricPrecision" shape-rendering="geometricPrecision" transform="matrix(1,0,0,1,-207,-105)" stroke="rgb(204,255,204)">
      <rect x="257.6719" y="835.4238" clip-path="url(#clipPath2)" width="692.3281" rx="4" ry="4" height="86.7045" stroke="none"/>
    </g>
    <g font-size="16px" stroke-linecap="butt" transform="matrix(1,0,0,1,-207,-105)" text-rendering="geometricPrecision" font-family="'DejaVu Serif'" shape-rendering="geometricPrecision" stroke-miterlimit="1.45">
      <text x="502.4961" xml:space="preserve" y="856.2753" clip-path="url(#clipPath2)" stroke="none">Investigación OpenDLAP</text>
      <rect x="257.6719" y="835.4238" clip-path="url(#clipPath2)" fill="none" width="692.3281" rx="4" ry="4" height="86.7045"/>
    </g>
    <g transform="matrix(1,0,0,1,-207,-105)" fill-opacity="0.1451" fill="rgb(255,0,0)" text-rendering="geometricPrecision" shape-rendering="geometricPrecision" stroke="rgb(255,0,0)" stroke-opacity="0.1451">
      <rect x="962.5972" y="835.4238" clip-path="url(#clipPath2)" width="79.3059" rx="4" ry="4" height="43.3145" stroke="none"/>
    </g>
    <g stroke-linecap="butt" transform="matrix(1,0,0,1,-207,-105)" fill="red" text-rendering="geometricPrecision" shape-rendering="geometricPrecision" stroke="red" stroke-miterlimit="1.45">
      <rect x="962.5972" y="835.4238" clip-path="url(#clipPath2)" fill="none" width="79.3059" rx="4" ry="4" height="43.3145"/>
      <text x="975.9357" y="861.2354" clip-path="url(#clipPath2)" fill="black" font-family="sans-serif" stroke="none" xml:space="preserve">RA6 (10)</text>
    </g>
    <g transform="matrix(1,0,0,1,-207,-105)" fill-opacity="0.1451" fill="rgb(255,0,0)" text-rendering="geometricPrecision" shape-rendering="geometricPrecision" stroke="rgb(255,0,0)" stroke-opacity="0.1451">
      <rect x="1047.9031" y="835.4238" clip-path="url(#clipPath2)" width="45.5715" rx="4" ry="4" height="43.3145" stroke="none"/>
    </g>
    <g stroke-linecap="butt" transform="matrix(1,0,0,1,-207,-105)" fill="red" text-rendering="geometricPrecision" shape-rendering="geometricPrecision" stroke="red" stroke-miterlimit="1.45">
      <rect x="1047.9031" y="835.4238" clip-path="url(#clipPath2)" fill="none" width="45.5715" rx="4" ry="4" height="43.3145"/>
      <text x="1063.0541" y="861.2354" clip-path="url(#clipPath2)" fill="black" font-family="sans-serif" stroke="none" xml:space="preserve">10</text>
    </g>
    <g font-size="14px" stroke-linecap="butt" transform="matrix(1,0,0,1,-207,-105)" text-rendering="geometricPrecision" font-family="'DejaVu Serif'" shape-rendering="geometricPrecision" stroke-miterlimit="1.45">
      <text x="286.4029" xml:space="preserve" y="878.4189" clip-path="url(#clipPath2)" stroke="none">- Examen de scripts de configuración de usuarios de red de linux.</text>
    </g>
  </g>
</svg>
