<?xml version="1.0" encoding="UTF-8"?><svg xmlns="http://www.w3.org/2000/svg" xmlns:xlink="http://www.w3.org/1999/xlink" fill-opacity="1" color-rendering="auto" color-interpolation="auto" text-rendering="auto" stroke="black" stroke-linecap="square" width="867" stroke-miterlimit="10" shape-rendering="auto" stroke-opacity="1" fill="black" stroke-dasharray="none" font-weight="normal" stroke-width="1" height="419" font-family="'Dialog'" font-style="normal" stroke-linejoin="miter" font-size="12px" stroke-dashoffset="0" image-rendering="auto">
  <!--Generated by ySVG 2.5-->
  <defs id="genericDefs"/>
  <g>
    <defs id="defs1">
      <clipPath clipPathUnits="userSpaceOnUse" id="clipPath1">
        <path d="M0 0 L867 0 L867 419 L0 419 L0 0 Z"/>
      </clipPath>
      <clipPath clipPathUnits="userSpaceOnUse" id="clipPath2">
        <path d="M242 140 L1109 140 L1109 559 L242 559 L242 140 Z"/>
      </clipPath>
    </defs>
    <g fill="white" text-rendering="geometricPrecision" shape-rendering="geometricPrecision" transform="translate(-242,-140)" stroke="white">
      <rect x="242" width="867" height="419" y="140" clip-path="url(#clipPath2)" stroke="none"/>
    </g>
    <g transform="matrix(1,0,0,1,-242,-140)" fill-opacity="0.1451" fill="rgb(255,0,0)" text-rendering="geometricPrecision" shape-rendering="geometricPrecision" stroke="rgb(255,0,0)" stroke-opacity="0.1451">
      <rect x="964.6658" y="155.5176" clip-path="url(#clipPath2)" width="77.2373" rx="4" ry="4" height="43.3145" stroke="none"/>
    </g>
    <g stroke-linecap="butt" transform="matrix(1,0,0,1,-242,-140)" fill="red" text-rendering="geometricPrecision" shape-rendering="geometricPrecision" stroke="red" stroke-miterlimit="1.45">
      <rect x="964.6658" y="155.5176" clip-path="url(#clipPath2)" fill="none" width="77.2373" rx="4" ry="4" height="43.3145"/>
      <text x="980.7874" y="181.3292" clip-path="url(#clipPath2)" fill="black" font-family="sans-serif" stroke="none" xml:space="preserve">RA1 (5)</text>
    </g>
    <g transform="matrix(1,0,0,1,-242,-140)" fill-opacity="0.1451" fill="rgb(255,0,0)" text-rendering="geometricPrecision" shape-rendering="geometricPrecision" stroke="rgb(255,0,0)" stroke-opacity="0.1451">
      <rect x="1047.9031" y="155.5176" clip-path="url(#clipPath2)" width="45.5715" rx="4" ry="4" height="43.3145" stroke="none"/>
    </g>
    <g stroke-linecap="butt" transform="matrix(1,0,0,1,-242,-140)" fill="red" text-rendering="geometricPrecision" shape-rendering="geometricPrecision" stroke="red" stroke-miterlimit="1.45">
      <rect x="1047.9031" y="155.5176" clip-path="url(#clipPath2)" fill="none" width="45.5715" rx="4" ry="4" height="43.3145"/>
      <text x="1066.8715" y="181.3292" clip-path="url(#clipPath2)" fill="black" font-family="sans-serif" stroke="none" xml:space="preserve">5</text>
    </g>
    <g fill="rgb(204,255,204)" text-rendering="geometricPrecision" shape-rendering="geometricPrecision" transform="matrix(1,0,0,1,-242,-140)" stroke="rgb(204,255,204)">
      <rect x="257.6719" y="286.5409" clip-path="url(#clipPath2)" width="692.3281" rx="4" ry="4" height="107.7045" stroke="none"/>
    </g>
    <g font-size="16px" stroke-linecap="butt" transform="matrix(1,0,0,1,-242,-140)" text-rendering="geometricPrecision" font-family="'DejaVu Serif'" shape-rendering="geometricPrecision" stroke-miterlimit="1.45">
      <text x="478.6602" xml:space="preserve" y="307.3925" clip-path="url(#clipPath2)" stroke="none">Memoria de practicas: Remoto</text>
      <rect x="257.6719" y="286.5409" clip-path="url(#clipPath2)" fill="none" width="692.3281" rx="4" ry="4" height="107.7045"/>
      <text x="278.8004" xml:space="preserve" font-size="14px" y="330.5974" clip-path="url(#clipPath2)" stroke="none">Realización de un video explicativo sobre:</text>
      <text x="278.8004" xml:space="preserve" font-size="14px" y="346.8943" clip-path="url(#clipPath2)" stroke="none">- Configuración de la red de prueba en GNS3.</text>
      <text x="278.8004" xml:space="preserve" font-size="14px" y="363.1912" clip-path="url(#clipPath2)" stroke="none">- Acceso remoto mediante: Telnet, SSH y Escritorio Remoto.</text>
      <text x="278.8004" xml:space="preserve" font-size="14px" y="379.488" clip-path="url(#clipPath2)" stroke="none">- Acceso desde el anfitrion a las maquinas virtuales.</text>
    </g>
    <g transform="matrix(1,0,0,1,-242,-140)" fill-opacity="0.1451" fill="rgb(255,0,0)" text-rendering="geometricPrecision" shape-rendering="geometricPrecision" stroke="rgb(255,0,0)" stroke-opacity="0.1451">
      <rect x="962.5972" y="286.5409" clip-path="url(#clipPath2)" width="79.3059" rx="4" ry="4" height="43.3145" stroke="none"/>
    </g>
    <g stroke-linecap="butt" transform="matrix(1,0,0,1,-242,-140)" fill="red" text-rendering="geometricPrecision" shape-rendering="geometricPrecision" stroke="red" stroke-miterlimit="1.45">
      <rect x="962.5972" y="286.5409" clip-path="url(#clipPath2)" fill="none" width="79.3059" rx="4" ry="4" height="43.3145"/>
      <text x="975.9357" y="312.3525" clip-path="url(#clipPath2)" fill="black" font-family="sans-serif" stroke="none" xml:space="preserve">RA7 (10)</text>
    </g>
    <g transform="matrix(1,0,0,1,-242,-140)" fill-opacity="0.1451" fill="rgb(255,0,0)" text-rendering="geometricPrecision" shape-rendering="geometricPrecision" stroke="rgb(255,0,0)" stroke-opacity="0.1451">
      <rect x="1047.9031" y="286.5409" clip-path="url(#clipPath2)" width="45.5715" rx="4" ry="4" height="43.3145" stroke="none"/>
    </g>
    <g stroke-linecap="butt" transform="matrix(1,0,0,1,-242,-140)" fill="red" text-rendering="geometricPrecision" shape-rendering="geometricPrecision" stroke="red" stroke-miterlimit="1.45">
      <rect x="1047.9031" y="286.5409" clip-path="url(#clipPath2)" fill="none" width="45.5715" rx="4" ry="4" height="43.3145"/>
      <text x="1063.0541" y="312.3525" clip-path="url(#clipPath2)" fill="black" font-family="sans-serif" stroke="none" xml:space="preserve">10</text>
    </g>
    <g fill="rgb(204,255,204)" text-rendering="geometricPrecision" shape-rendering="geometricPrecision" transform="matrix(1,0,0,1,-242,-140)" stroke="rgb(204,255,204)">
      <rect x="257.6719" y="155.5176" clip-path="url(#clipPath2)" width="692.3281" rx="4" ry="4" height="120.2045" stroke="none"/>
    </g>
    <g font-size="16px" stroke-linecap="butt" transform="matrix(1,0,0,1,-242,-140)" text-rendering="geometricPrecision" font-family="'DejaVu Serif'" shape-rendering="geometricPrecision" stroke-miterlimit="1.45">
      <text x="373.0781" xml:space="preserve" y="176.3692" clip-path="url(#clipPath2)" stroke="none">Memoria de practicas: Instalación del sistema operativo.</text>
      <rect x="257.6719" y="155.5176" clip-path="url(#clipPath2)" fill="none" width="692.3281" rx="4" ry="4" height="120.2045"/>
      <text x="263.6719" xml:space="preserve" font-size="14px" y="212.7712" clip-path="url(#clipPath2)" stroke="none">Memoria de practicas en ExeLearning sobre:</text>
      <text x="263.6719" xml:space="preserve" font-size="14px" y="229.0681" clip-path="url(#clipPath2)" stroke="none">- Instalación ubuntu 14 y 18.</text>
      <text x="263.6719" xml:space="preserve" font-size="14px" y="245.365" clip-path="url(#clipPath2)" stroke="none">- Instalación de CentOS 7.</text>
      <text x="263.6719" xml:space="preserve" font-size="14px" y="261.6619" clip-path="url(#clipPath2)" stroke="none">- Particionado con GParted.</text>
    </g>
    <g fill="rgb(204,255,204)" text-rendering="geometricPrecision" shape-rendering="geometricPrecision" transform="matrix(1,0,0,1,-242,-140)" stroke="rgb(204,255,204)">
      <rect x="257.6719" y="403.17" clip-path="url(#clipPath2)" width="692.3281" rx="4" ry="4" height="67.0233" stroke="none"/>
    </g>
    <g font-size="16px" stroke-linecap="butt" transform="matrix(1,0,0,1,-242,-140)" text-rendering="geometricPrecision" font-family="'DejaVu Serif'" shape-rendering="geometricPrecision" stroke-miterlimit="1.45">
      <text x="426.957" xml:space="preserve" y="424.0216" clip-path="url(#clipPath2)" stroke="none">Examen scripts: monitorización del sistema</text>
      <rect x="257.6719" y="403.17" clip-path="url(#clipPath2)" fill="none" width="692.3281" rx="4" ry="4" height="67.0233"/>
    </g>
    <g transform="matrix(1,0,0,1,-242,-140)" fill-opacity="0.1451" fill="rgb(255,0,0)" text-rendering="geometricPrecision" shape-rendering="geometricPrecision" stroke="rgb(255,0,0)" stroke-opacity="0.1451">
      <rect x="962.5972" y="403.17" clip-path="url(#clipPath2)" width="79.3059" rx="4" ry="4" height="43.3145" stroke="none"/>
    </g>
    <g stroke-linecap="butt" transform="matrix(1,0,0,1,-242,-140)" fill="red" text-rendering="geometricPrecision" shape-rendering="geometricPrecision" stroke="red" stroke-miterlimit="1.45">
      <rect x="962.5972" y="403.17" clip-path="url(#clipPath2)" fill="none" width="79.3059" rx="4" ry="4" height="43.3145"/>
      <text x="975.9357" y="428.9816" clip-path="url(#clipPath2)" fill="black" font-family="sans-serif" stroke="none" xml:space="preserve">RA5 (20)</text>
    </g>
    <g transform="matrix(1,0,0,1,-242,-140)" fill-opacity="0.1451" fill="rgb(255,0,0)" text-rendering="geometricPrecision" shape-rendering="geometricPrecision" stroke="rgb(255,0,0)" stroke-opacity="0.1451">
      <rect x="1047.9031" y="403.17" clip-path="url(#clipPath2)" width="45.5715" rx="4" ry="4" height="43.3145" stroke="none"/>
    </g>
    <g stroke-linecap="butt" transform="matrix(1,0,0,1,-242,-140)" fill="red" text-rendering="geometricPrecision" shape-rendering="geometricPrecision" stroke="red" stroke-miterlimit="1.45">
      <rect x="1047.9031" y="403.17" clip-path="url(#clipPath2)" fill="none" width="45.5715" rx="4" ry="4" height="43.3145"/>
      <text x="1063.0541" y="428.9816" clip-path="url(#clipPath2)" fill="black" font-family="sans-serif" stroke="none" xml:space="preserve">20</text>
    </g>
    <g font-size="14px" stroke-linecap="butt" transform="matrix(1,0,0,1,-242,-140)" text-rendering="geometricPrecision" font-family="'DejaVu Serif'" shape-rendering="geometricPrecision" stroke-miterlimit="1.45">
      <text x="278.8004" xml:space="preserve" y="452.066" clip-path="url(#clipPath2)" stroke="none">- Monitorización de Linux mediante comandos y scripts.</text>
    </g>
    <g fill="rgb(204,255,204)" text-rendering="geometricPrecision" shape-rendering="geometricPrecision" transform="matrix(1,0,0,1,-242,-140)" stroke="rgb(204,255,204)">
      <rect x="257.6719" y="476.4845" clip-path="url(#clipPath2)" width="692.3281" rx="4" ry="4" height="67.0233" stroke="none"/>
    </g>
    <g font-size="16px" stroke-linecap="butt" transform="matrix(1,0,0,1,-242,-140)" text-rendering="geometricPrecision" font-family="'DejaVu Serif'" shape-rendering="geometricPrecision" stroke-miterlimit="1.45">
      <text x="460.8047" xml:space="preserve" y="497.3361" clip-path="url(#clipPath2)" stroke="none">Video Active Directory en Win2012</text>
      <rect x="257.6719" y="476.4845" clip-path="url(#clipPath2)" fill="none" width="692.3281" rx="4" ry="4" height="67.0233"/>
    </g>
    <g transform="matrix(1,0,0,1,-242,-140)" fill-opacity="0.1451" fill="rgb(255,0,0)" text-rendering="geometricPrecision" shape-rendering="geometricPrecision" stroke="rgb(255,0,0)" stroke-opacity="0.1451">
      <rect x="962.5972" y="476.4845" clip-path="url(#clipPath2)" width="79.3059" rx="4" ry="4" height="43.3145" stroke="none"/>
    </g>
    <g stroke-linecap="butt" transform="matrix(1,0,0,1,-242,-140)" fill="red" text-rendering="geometricPrecision" shape-rendering="geometricPrecision" stroke="red" stroke-miterlimit="1.45">
      <rect x="962.5972" y="476.4845" clip-path="url(#clipPath2)" fill="none" width="79.3059" rx="4" ry="4" height="43.3145"/>
      <text x="975.9357" y="502.2961" clip-path="url(#clipPath2)" fill="black" font-family="sans-serif" stroke="none" xml:space="preserve">RA2 (10)</text>
    </g>
    <g transform="matrix(1,0,0,1,-242,-140)" fill-opacity="0.1451" fill="rgb(255,0,0)" text-rendering="geometricPrecision" shape-rendering="geometricPrecision" stroke="rgb(255,0,0)" stroke-opacity="0.1451">
      <rect x="1047.9031" y="476.4845" clip-path="url(#clipPath2)" width="45.5715" rx="4" ry="4" height="43.3145" stroke="none"/>
    </g>
    <g stroke-linecap="butt" transform="matrix(1,0,0,1,-242,-140)" fill="red" text-rendering="geometricPrecision" shape-rendering="geometricPrecision" stroke="red" stroke-miterlimit="1.45">
      <rect x="1047.9031" y="476.4845" clip-path="url(#clipPath2)" fill="none" width="45.5715" rx="4" ry="4" height="43.3145"/>
      <text x="1066.8715" y="502.2961" clip-path="url(#clipPath2)" fill="black" font-family="sans-serif" stroke="none" xml:space="preserve">5</text>
    </g>
  </g>
</svg>
