<?xml version="1.0" encoding="UTF-8"?><svg xmlns="http://www.w3.org/2000/svg" xmlns:xlink="http://www.w3.org/1999/xlink" fill-opacity="1" color-rendering="auto" color-interpolation="auto" text-rendering="auto" stroke="black" stroke-linecap="square" width="954" stroke-miterlimit="10" shape-rendering="auto" stroke-opacity="1" fill="black" stroke-dasharray="none" font-weight="normal" stroke-width="1" height="376" font-family="'Dialog'" font-style="normal" stroke-linejoin="miter" font-size="12px" stroke-dashoffset="0" image-rendering="auto">
  <!--Generated by ySVG 2.5-->
  <defs id="genericDefs"/>
  <g>
    <defs id="defs1">
      <clipPath clipPathUnits="userSpaceOnUse" id="clipPath1">
        <path d="M0 0 L954 0 L954 376 L0 376 L0 0 Z"/>
      </clipPath>
      <clipPath clipPathUnits="userSpaceOnUse" id="clipPath2">
        <path d="M-71 -16 L883 -16 L883 360 L-71 360 L-71 -16 Z"/>
      </clipPath>
    </defs>
    <g fill="white" text-rendering="geometricPrecision" shape-rendering="geometricPrecision" transform="translate(71,16)" stroke="white">
      <rect x="-71" width="954" height="376" y="-16" clip-path="url(#clipPath2)" stroke="none"/>
    </g>
    <g id="y.node.0">
      <g fill="rgb(153,204,255)" text-rendering="geometricPrecision" shape-rendering="geometricPrecision" transform="matrix(1,0,0,1,71,16)" stroke="rgb(153,204,255)">
        <rect x="-20.6997" y="78.2666" width="274.4219" rx="4" ry="4" height="230.8326" stroke="none"/>
      </g>
      <g/>
    </g>
    <g id="y.node.1">
      <a xlink:href="vim.pdf">
        <g fill="white" text-rendering="geometricPrecision" shape-rendering="geometricPrecision" transform="matrix(1,0,0,1,71,16)" stroke="white">
          <rect x="-3.226" y="97.9315" width="239.4743" rx="4" ry="4" height="28.3562" stroke="none"/>
        </g>
        <g>
          <g font-size="14px" stroke-linecap="butt" transform="matrix(1,0,0,1,71,16)" text-rendering="geometricPrecision" font-family="'DejaVu Serif'" shape-rendering="geometricPrecision" stroke-miterlimit="1.45">
            <text x="2.774" xml:space="preserve" y="116.9562" stroke="none">Vim para programadores</text>
          </g>
        </g>
      </a>
    </g>
    <g id="y.node.2">
      <a xlink:href="comandosLinux.pdf">
        <g fill="white" text-rendering="geometricPrecision" shape-rendering="geometricPrecision" transform="matrix(1,0,0,1,71,16)" stroke="white">
          <rect x="-3.226" y="236.0966" width="239.4743" rx="4" ry="4" height="28.3562" stroke="none"/>
        </g>
        <g>
          <g font-size="14px" stroke-linecap="butt" transform="matrix(1,0,0,1,71,16)" text-rendering="geometricPrecision" font-family="'DejaVu Serif'" shape-rendering="geometricPrecision" stroke-miterlimit="1.45">
            <text x="2.774" xml:space="preserve" y="255.1214" stroke="none">Comandos Linux</text>
          </g>
        </g>
      </a>
    </g>
    <g id="y.node.3">
      <a xlink:href="shellBash.pdf">
        <g fill="white" text-rendering="geometricPrecision" shape-rendering="geometricPrecision" transform="matrix(1,0,0,1,71,16)" stroke="white">
          <rect x="-3.226" y="201.8351" width="239.4743" rx="4" ry="4" height="28.3562" stroke="none"/>
        </g>
        <g>
          <g font-size="14px" stroke-linecap="butt" transform="matrix(1,0,0,1,71,16)" text-rendering="geometricPrecision" font-family="'DejaVu Serif'" shape-rendering="geometricPrecision" stroke-miterlimit="1.45">
            <text x="2.774" xml:space="preserve" y="220.8599" stroke="none">Scripts con shell bash</text>
          </g>
        </g>
      </a>
    </g>
    <g id="y.node.4">
      <g fill="rgb(51,102,255)" text-rendering="geometricPrecision" shape-rendering="geometricPrecision" transform="matrix(1,0,0,1,71,16)" stroke="rgb(51,102,255)">
        <rect x="-20.6997" y="34.9521" width="274.4219" rx="4" ry="4" height="43.3145" stroke="none"/>
      </g>
      <g>
        <g stroke-linecap="butt" font-size="20px" transform="matrix(1,0,0,1,71,16)" fill="white" text-rendering="geometricPrecision" font-family="sans-serif" shape-rendering="geometricPrecision" stroke="white" stroke-miterlimit="1.45">
          <text x="37.8442" xml:space="preserve" y="63.5332" stroke="none">Documentación</text>
        </g>
      </g>
    </g>
    <g id="y.node.5">
      <g fill="rgb(153,204,255)" text-rendering="geometricPrecision" shape-rendering="geometricPrecision" transform="matrix(1,0,0,1,71,16)" stroke="rgb(153,204,255)">
        <rect x="268.7109" y="78.2666" width="274.4219" rx="4" ry="4" height="179.2401" stroke="none"/>
      </g>
      <g/>
    </g>
    <g id="y.node.6">
      <a xlink:href="https://www.putty.org/">
        <g fill="white" text-rendering="geometricPrecision" shape-rendering="geometricPrecision" transform="matrix(1,0,0,1,71,16)" stroke="white">
          <rect x="286.1847" y="97.9315" width="239.4743" rx="4" ry="4" height="28.3562" stroke="none"/>
        </g>
        <g>
          <g font-size="14px" stroke-linecap="butt" transform="matrix(1,0,0,1,71,16)" text-rendering="geometricPrecision" font-family="'DejaVu Serif'" shape-rendering="geometricPrecision" stroke-miterlimit="1.45">
            <text x="292.1847" xml:space="preserve" y="116.9562" stroke="none">Putty</text>
          </g>
        </g>
      </a>
    </g>
    <g id="y.node.7">
      <a xlink:href="http://www.freesshd.com/">
        <g fill="white" text-rendering="geometricPrecision" shape-rendering="geometricPrecision" transform="matrix(1,0,0,1,71,16)" stroke="white">
          <rect x="286.1847" y="134.7124" width="239.4743" rx="4" ry="4" height="28.3562" stroke="none"/>
        </g>
        <g>
          <g font-size="14px" stroke-linecap="butt" transform="matrix(1,0,0,1,71,16)" text-rendering="geometricPrecision" font-family="'DejaVu Serif'" shape-rendering="geometricPrecision" stroke-miterlimit="1.45">
            <text x="292.1847" xml:space="preserve" y="153.7371" stroke="none">FreeSHHd</text>
          </g>
        </g>
      </a>
    </g>
    <g id="y.node.8">
      <a xlink:href="https://www.tightvnc.com/">
        <g fill="white" text-rendering="geometricPrecision" shape-rendering="geometricPrecision" transform="matrix(1,0,0,1,71,16)" stroke="white">
          <rect x="286.1847" y="171.4933" width="239.4743" rx="4" ry="4" height="28.3562" stroke="none"/>
        </g>
        <g>
          <g font-size="14px" stroke-linecap="butt" transform="matrix(1,0,0,1,71,16)" text-rendering="geometricPrecision" font-family="'DejaVu Serif'" shape-rendering="geometricPrecision" stroke-miterlimit="1.45">
            <text x="292.1847" xml:space="preserve" y="190.518" stroke="none">TightVNC</text>
          </g>
        </g>
      </a>
    </g>
    <g id="y.node.9">
      <g fill="rgb(51,102,255)" text-rendering="geometricPrecision" shape-rendering="geometricPrecision" transform="matrix(1,0,0,1,71,16)" stroke="rgb(51,102,255)">
        <rect x="268.7109" y="34.9521" width="274.4219" rx="4" ry="4" height="43.3145" stroke="none"/>
      </g>
      <g>
        <g stroke-linecap="butt" font-size="20px" transform="matrix(1,0,0,1,71,16)" fill="white" text-rendering="geometricPrecision" font-family="sans-serif" shape-rendering="geometricPrecision" stroke="white" stroke-miterlimit="1.45">
          <text x="351.9961" xml:space="preserve" y="63.5332" stroke="none">Programas</text>
        </g>
      </g>
    </g>
    <g id="y.node.10">
      <a xlink:href="https://www.tightvnc.com/">
        <g fill="white" text-rendering="geometricPrecision" shape-rendering="geometricPrecision" transform="matrix(1,0,0,1,71,16)" stroke="white">
          <rect x="286.1847" y="208.2741" width="239.4743" rx="4" ry="4" height="28.3562" stroke="none"/>
        </g>
        <g>
          <g font-size="14px" stroke-linecap="butt" transform="matrix(1,0,0,1,71,16)" text-rendering="geometricPrecision" font-family="'DejaVu Serif'" shape-rendering="geometricPrecision" stroke-miterlimit="1.45">
            <text x="292.1847" xml:space="preserve" y="227.2989" stroke="none">GNS3</text>
          </g>
        </g>
      </a>
    </g>
    <g id="y.node.11">
      <g fill="rgb(153,204,255)" text-rendering="geometricPrecision" shape-rendering="geometricPrecision" transform="matrix(1,0,0,1,71,16)" stroke="rgb(153,204,255)">
        <rect x="558.1216" y="78.2666" width="274.4219" rx="4" ry="4" height="121.5828" stroke="none"/>
      </g>
      <g/>
    </g>
    <g id="y.node.12">
      <a xlink:href="https://ubuntu.com/download/server">
        <g fill="white" text-rendering="geometricPrecision" shape-rendering="geometricPrecision" transform="matrix(1,0,0,1,71,16)" stroke="white">
          <rect x="573.1328" y="97.9315" width="239.4743" rx="4" ry="4" height="28.3562" stroke="none"/>
        </g>
        <g>
          <g font-size="14px" stroke-linecap="butt" transform="matrix(1,0,0,1,71,16)" text-rendering="geometricPrecision" font-family="'DejaVu Serif'" shape-rendering="geometricPrecision" stroke-miterlimit="1.45">
            <text x="579.1328" xml:space="preserve" y="116.9562" stroke="none">Ubuntu</text>
          </g>
        </g>
      </a>
    </g>
    <g id="y.node.13">
      <a xlink:href="http://www.damnsmalllinux.org/index_es.html">
        <g fill="white" text-rendering="geometricPrecision" shape-rendering="geometricPrecision" transform="matrix(1,0,0,1,71,16)" stroke="white">
          <rect x="573.1328" y="134.7124" width="239.4743" rx="4" ry="4" height="28.3562" stroke="none"/>
        </g>
        <g>
          <g font-size="14px" stroke-linecap="butt" transform="matrix(1,0,0,1,71,16)" text-rendering="geometricPrecision" font-family="'DejaVu Serif'" shape-rendering="geometricPrecision" stroke-miterlimit="1.45">
            <text x="579.1328" xml:space="preserve" y="153.7371" stroke="none">Damm Small Linux</text>
          </g>
        </g>
      </a>
    </g>
    <g id="y.node.14">
      <g fill="rgb(51,102,255)" text-rendering="geometricPrecision" shape-rendering="geometricPrecision" transform="matrix(1,0,0,1,71,16)" stroke="rgb(51,102,255)">
        <rect x="558.1216" y="34.9521" width="274.4219" rx="4" ry="4" height="43.3145" stroke="none"/>
      </g>
      <g>
        <g stroke-linecap="butt" font-size="20px" transform="matrix(1,0,0,1,71,16)" fill="white" text-rendering="geometricPrecision" font-family="sans-serif" shape-rendering="geometricPrecision" stroke="white" stroke-miterlimit="1.45">
          <text x="593.8628" xml:space="preserve" y="63.5332" stroke="none">Sistemas operativos</text>
        </g>
      </g>
    </g>
    <g id="y.node.15">
      <a xlink:href="cron.pdf">
        <g fill="white" text-rendering="geometricPrecision" shape-rendering="geometricPrecision" transform="matrix(1,0,0,1,71,16)" stroke="white">
          <rect x="-3.226" y="167.5737" width="239.4743" rx="4" ry="4" height="28.3562" stroke="none"/>
        </g>
        <g>
          <g font-size="14px" stroke-linecap="butt" transform="matrix(1,0,0,1,71,16)" text-rendering="geometricPrecision" font-family="'DejaVu Serif'" shape-rendering="geometricPrecision" stroke-miterlimit="1.45">
            <text x="2.774" xml:space="preserve" y="186.5984" stroke="none">El demonion CRON</text>
          </g>
        </g>
      </a>
    </g>
    <g id="y.node.16">
      <a xlink:href="batch.pdf">
        <g fill="white" text-rendering="geometricPrecision" shape-rendering="geometricPrecision" transform="matrix(1,0,0,1,71,16)" stroke="white">
          <rect x="-3.226" y="133.3122" width="239.4743" rx="4" ry="4" height="28.3562" stroke="none"/>
        </g>
        <g>
          <g font-size="14px" stroke-linecap="butt" transform="matrix(1,0,0,1,71,16)" text-rendering="geometricPrecision" font-family="'DejaVu Serif'" shape-rendering="geometricPrecision" stroke-miterlimit="1.45">
            <text x="2.774" xml:space="preserve" y="152.337" stroke="none">Scripts en Windows</text>
          </g>
        </g>
      </a>
    </g>
    <g id="y.node.17">
      <a xlink:href="chuleta-shell-script.pdf">
        <g fill="white" text-rendering="geometricPrecision" shape-rendering="geometricPrecision" transform="matrix(1,0,0,1,71,16)" stroke="white">
          <rect x="-3.226" y="270.358" width="239.4743" rx="4" ry="4" height="28.3562" stroke="none"/>
        </g>
        <g>
          <g font-size="14px" stroke-linecap="butt" transform="matrix(1,0,0,1,71,16)" text-rendering="geometricPrecision" font-family="'DejaVu Serif'" shape-rendering="geometricPrecision" stroke-miterlimit="1.45">
            <text x="2.774" xml:space="preserve" y="289.3828" stroke="none">Chuleta shell script</text>
          </g>
        </g>
      </a>
    </g>
  </g>
</svg>
