<?xml version="1.0" encoding="UTF-8"?><svg xmlns="http://www.w3.org/2000/svg" xmlns:xlink="http://www.w3.org/1999/xlink" fill-opacity="1" color-rendering="auto" color-interpolation="auto" text-rendering="auto" stroke="black" stroke-linecap="square" width="659" stroke-miterlimit="10" shape-rendering="auto" stroke-opacity="1" fill="black" stroke-dasharray="none" font-weight="normal" stroke-width="1" height="353" font-family="'Dialog'" font-style="normal" stroke-linejoin="miter" font-size="12px" stroke-dashoffset="0" image-rendering="auto">
  <!--Generated by ySVG 2.5-->
  <defs id="genericDefs"/>
  <g>
    <defs id="defs1">
      <clipPath clipPathUnits="userSpaceOnUse" id="clipPath1">
        <path d="M0 0 L659 0 L659 353 L0 353 L0 0 Z"/>
      </clipPath>
      <clipPath clipPathUnits="userSpaceOnUse" id="clipPath2">
        <path d="M483 201 L1142 201 L1142 554 L483 554 L483 201 Z"/>
      </clipPath>
      <clipPath clipPathUnits="userSpaceOnUse" id="clipPath3">
        <path d="M680.4349 251.849 L981.5651 251.849 L981.5651 345.969 L680.4349 345.969 L680.4349 251.849 Z"/>
      </clipPath>
    </defs>
    <g fill="white" text-rendering="geometricPrecision" shape-rendering="geometricPrecision" transform="translate(-483,-201)" stroke="white">
      <rect x="483" width="659" height="353" y="201" clip-path="url(#clipPath2)" stroke="none"/>
    </g>
    <g id="y.node.0">
      <g fill="white" text-rendering="geometricPrecision" shape-rendering="geometricPrecision" transform="matrix(1,0,0,1,-483,-201)" stroke="white">
        <rect x="570.5234" y="316.3802" width="520.9531" rx="4" ry="4" height="29.5888" stroke="none"/>
      </g>
      <g>
        <g text-rendering="geometricPrecision" stroke-miterlimit="1.45" shape-rendering="geometricPrecision" font-family="'DejaVu Serif'" transform="matrix(1,0,0,1,-483,-201)" stroke-linecap="butt">
          <text x="576.5234" xml:space="preserve" y="328.3445" stroke="none">Programe una tarea que cada 5 minutos escriba la fecha y hora del sistema en un </text>
        </g>
        <g text-rendering="geometricPrecision" stroke-miterlimit="1.45" shape-rendering="geometricPrecision" font-family="'DejaVu Serif'" transform="matrix(1,0,0,1,-483,-201)" stroke-linecap="butt">
          <text x="576.5234" xml:space="preserve" y="342.3133" stroke="none">fichero /var/log/mi-cron.log.</text>
        </g>
      </g>
      <g stroke-linecap="butt" transform="matrix(1,0,0,1,-483,-201)" fill="gray" text-rendering="geometricPrecision" shape-rendering="geometricPrecision" stroke="gray" stroke-width="2" stroke-miterlimit="1.45">
        <rect x="570.5234" y="316.3802" fill="none" width="520.9531" rx="4" ry="4" height="29.5888"/>
      </g>
    </g>
    <g id="y.node.1">
      <a xlink:href="100-Programas.html">
        <g fill="rgb(255,204,0)" text-rendering="geometricPrecision" shape-rendering="geometricPrecision" transform="matrix(1,0,0,1,-483,-201)" stroke="rgb(255,204,0)">
          <ellipse rx="11.4536" ry="12.1781" cx="544.7197" cy="328.5583" stroke="none"/>
        </g>
        <g>
          <g font-size="14px" stroke-linecap="butt" transform="matrix(1,0,0,1,-483,-201)" text-rendering="geometricPrecision" font-family="'DejaVu Serif'" shape-rendering="geometricPrecision" stroke-miterlimit="1.45">
            <text x="540.2661" xml:space="preserve" y="333.405" stroke="none">1</text>
          </g>
        </g>
      </a>
    </g>
    <g id="y.node.2">
      <g fill="white" text-rendering="geometricPrecision" shape-rendering="geometricPrecision" transform="matrix(1,0,0,1,-483,-201)" stroke="white">
        <rect x="570.5234" y="355.4761" width="520.9531" rx="4" ry="4" height="29.5888" stroke="none"/>
      </g>
      <g>
        <g text-rendering="geometricPrecision" stroke-miterlimit="1.45" shape-rendering="geometricPrecision" font-family="'DejaVu Serif'" transform="matrix(1,0,0,1,-483,-201)" stroke-linecap="butt">
          <text x="576.5234" xml:space="preserve" y="367.4404" stroke="none">Programe una tarea para que a las 20h. escriba "Descanso de 5 minutos en el </text>
          <text x="576.5234" xml:space="preserve" y="381.4091" stroke="none">terminal.</text>
        </g>
      </g>
      <g stroke-linecap="butt" transform="matrix(1,0,0,1,-483,-201)" fill="gray" text-rendering="geometricPrecision" shape-rendering="geometricPrecision" stroke="gray" stroke-width="2" stroke-miterlimit="1.45">
        <rect x="570.5234" y="355.4761" fill="none" width="520.9531" rx="4" ry="4" height="29.5888"/>
      </g>
    </g>
    <g id="y.node.3">
      <a xlink:href="100-Programas.html">
        <g fill="rgb(255,204,0)" text-rendering="geometricPrecision" shape-rendering="geometricPrecision" transform="matrix(1,0,0,1,-483,-201)" stroke="rgb(255,204,0)">
          <ellipse rx="11.4536" ry="12.1781" cx="544.7197" cy="367.6542" stroke="none"/>
        </g>
        <g>
          <g font-size="14px" stroke-linecap="butt" transform="matrix(1,0,0,1,-483,-201)" text-rendering="geometricPrecision" font-family="'DejaVu Serif'" shape-rendering="geometricPrecision" stroke-miterlimit="1.45">
            <text x="540.2661" xml:space="preserve" y="372.5009" stroke="none">2</text>
          </g>
        </g>
      </a>
    </g>
    <g id="y.node.4">
      <g fill="white" text-rendering="geometricPrecision" shape-rendering="geometricPrecision" transform="matrix(1,0,0,1,-483,-201)" stroke="white">
        <rect x="570.5234" y="394.5719" width="520.9531" rx="4" ry="4" height="29.5888" stroke="none"/>
      </g>
      <g>
        <g text-rendering="geometricPrecision" stroke-miterlimit="1.45" shape-rendering="geometricPrecision" font-family="'DejaVu Serif'" transform="matrix(1,0,0,1,-483,-201)" stroke-linecap="butt">
          <text x="576.5234" xml:space="preserve" y="406.5363" stroke="none">Programe una tarea que cada hora haga un tar, comprimido con gzip, de su /etc y </text>
          <text x="576.5234" xml:space="preserve" y="420.505" stroke="none">que lo guarde en /backup.</text>
        </g>
      </g>
      <g stroke-linecap="butt" transform="matrix(1,0,0,1,-483,-201)" fill="gray" text-rendering="geometricPrecision" shape-rendering="geometricPrecision" stroke="gray" stroke-width="2" stroke-miterlimit="1.45">
        <rect x="570.5234" y="394.5719" fill="none" width="520.9531" rx="4" ry="4" height="29.5888"/>
      </g>
    </g>
    <g id="y.node.5">
      <a xlink:href="100-Programas.html">
        <g fill="rgb(255,204,0)" text-rendering="geometricPrecision" shape-rendering="geometricPrecision" transform="matrix(1,0,0,1,-483,-201)" stroke="rgb(255,204,0)">
          <ellipse rx="11.4536" ry="12.1781" cx="544.7197" cy="406.75" stroke="none"/>
        </g>
        <g>
          <g font-size="14px" stroke-linecap="butt" transform="matrix(1,0,0,1,-483,-201)" text-rendering="geometricPrecision" font-family="'DejaVu Serif'" shape-rendering="geometricPrecision" stroke-miterlimit="1.45">
            <text x="540.2661" xml:space="preserve" y="411.5967" stroke="none">3</text>
          </g>
        </g>
      </a>
    </g>
    <g id="y.node.6">
      <g fill="white" text-rendering="geometricPrecision" shape-rendering="geometricPrecision" transform="matrix(1,0,0,1,-483,-201)" stroke="white">
        <rect x="570.5234" y="433.6678" width="520.9531" rx="4" ry="4" height="29.5888" stroke="none"/>
      </g>
      <g>
        <g text-rendering="geometricPrecision" stroke-miterlimit="1.45" shape-rendering="geometricPrecision" font-family="'DejaVu Serif'" transform="matrix(1,0,0,1,-483,-201)" stroke-linecap="butt">
          <text x="576.5234" xml:space="preserve" y="452.6165" stroke="none">Haga una tarea que borre su /var/log/mi-cron.log cada día.</text>
        </g>
      </g>
      <g stroke-linecap="butt" transform="matrix(1,0,0,1,-483,-201)" fill="gray" text-rendering="geometricPrecision" shape-rendering="geometricPrecision" stroke="gray" stroke-width="2" stroke-miterlimit="1.45">
        <rect x="570.5234" y="433.6678" fill="none" width="520.9531" rx="4" ry="4" height="29.5888"/>
      </g>
    </g>
    <g id="y.node.7">
      <a xlink:href="100-Programas.html">
        <g fill="rgb(255,204,0)" text-rendering="geometricPrecision" shape-rendering="geometricPrecision" transform="matrix(1,0,0,1,-483,-201)" stroke="rgb(255,204,0)">
          <ellipse rx="11.4536" ry="12.1781" cx="544.7197" cy="445.8459" stroke="none"/>
        </g>
        <g>
          <g font-size="14px" stroke-linecap="butt" transform="matrix(1,0,0,1,-483,-201)" text-rendering="geometricPrecision" font-family="'DejaVu Serif'" shape-rendering="geometricPrecision" stroke-miterlimit="1.45">
            <text x="540.2661" xml:space="preserve" y="450.6926" stroke="none">4</text>
          </g>
        </g>
      </a>
    </g>
    <g id="y.node.8">
      <g fill="white" text-rendering="geometricPrecision" shape-rendering="geometricPrecision" transform="matrix(1,0,0,1,-483,-201)" stroke="white">
        <rect x="570.5234" y="472.7637" width="520.9531" rx="4" ry="4" height="29.5888" stroke="none"/>
      </g>
      <g>
        <g text-rendering="geometricPrecision" stroke-miterlimit="1.45" shape-rendering="geometricPrecision" font-family="'DejaVu Serif'" transform="matrix(1,0,0,1,-483,-201)" stroke-linecap="butt">
          <text x="576.5234" xml:space="preserve" y="484.728" stroke="none">Haga una tarea a una hora determinada, la que usted quiera, que capture las </text>
          <text x="576.5234" xml:space="preserve" y="498.6967" stroke="none">últimas líneas del log del sistema y se las deje en /root/ultimolog.txt.</text>
        </g>
      </g>
      <g stroke-linecap="butt" transform="matrix(1,0,0,1,-483,-201)" fill="gray" text-rendering="geometricPrecision" shape-rendering="geometricPrecision" stroke="gray" stroke-width="2" stroke-miterlimit="1.45">
        <rect x="570.5234" y="472.7637" fill="none" width="520.9531" rx="4" ry="4" height="29.5888"/>
      </g>
    </g>
    <g id="y.node.9">
      <a xlink:href="100-Programas.html">
        <g fill="rgb(255,204,0)" text-rendering="geometricPrecision" shape-rendering="geometricPrecision" transform="matrix(1,0,0,1,-483,-201)" stroke="rgb(255,204,0)">
          <ellipse rx="11.4536" ry="12.1781" cx="544.7197" cy="484.9418" stroke="none"/>
        </g>
        <g>
          <g font-size="14px" stroke-linecap="butt" transform="matrix(1,0,0,1,-483,-201)" text-rendering="geometricPrecision" font-family="'DejaVu Serif'" shape-rendering="geometricPrecision" stroke-miterlimit="1.45">
            <text x="540.2661" xml:space="preserve" y="489.7885" stroke="none">5</text>
          </g>
        </g>
      </a>
    </g>
    <g id="y.node.10">
      <g>
        <g text-rendering="geometricPrecision" shape-rendering="geometricPrecision" transform="matrix(1,0,0,1,-483,-201)">
          <path d="M691.7161 263.6068 Q691.2005 265.2474 689.9896 266.0911 Q688.7786 266.9349 686.9193 266.9349 Q685.7786 266.9349 684.8021 266.5364 Q683.8255 266.138 683.0599 265.388 Q682.1849 264.513 681.763 263.3958 Q681.3411 262.2786 681.3411 260.8724 Q681.3411 258.1536 682.9114 256.4896 Q684.4818 254.8255 687.0443 254.8255 Q687.9974 254.8255 689.0755 255.0755 Q690.1536 255.3255 691.4036 255.8255 L691.4036 258.513 L690.513 258.513 Q690.2318 257.0443 689.3568 256.3489 Q688.4818 255.6536 686.9193 255.6536 Q685.0443 255.6536 684.0833 256.9818 Q683.1224 258.3099 683.1224 260.8724 Q683.1224 263.4349 684.0833 264.763 Q685.0443 266.0911 686.9193 266.0911 Q688.2161 266.0911 689.0599 265.4661 Q689.9036 264.8411 690.2786 263.6068 L691.7161 263.6068 ZM697.4896 266.1536 Q698.6458 266.1536 699.2396 265.2396 Q699.8333 264.3255 699.8333 262.5443 Q699.8333 260.763 699.2396 259.8489 Q698.6458 258.9349 697.4896 258.9349 Q696.3333 258.9349 695.7474 259.8489 Q695.1614 260.763 695.1614 262.5443 Q695.1614 264.3255 695.7552 265.2396 Q696.3489 266.1536 697.4896 266.1536 ZM697.4896 266.9349 Q695.6771 266.9349 694.5755 265.7318 Q693.4739 264.5286 693.4739 262.5443 Q693.4739 260.5599 694.5755 259.3646 Q695.6771 258.1693 697.4896 258.1693 Q699.3177 258.1693 700.4114 259.3646 Q701.5052 260.5599 701.5052 262.5443 Q701.5052 264.5286 700.4114 265.7318 Q699.3177 266.9349 697.4896 266.9349 ZM702.9661 266.7005 L702.9661 265.8724 L704.263 265.8724 L704.263 259.2318 L702.888 259.2318 L702.888 258.388 L705.7005 258.388 L705.7005 259.8724 Q706.1068 259.0286 706.7396 258.5989 Q707.3724 258.1693 708.2161 258.1693 Q709.5911 258.1693 710.2396 258.9583 Q710.888 259.7474 710.888 261.4193 L710.888 265.8724 L712.1693 265.8724 L712.1693 266.7005 L708.2005 266.7005 L708.2005 265.8724 L709.4505 265.8724 L709.4505 261.8724 Q709.4505 260.3411 709.0755 259.7786 Q708.7005 259.2161 707.7474 259.2161 Q706.7474 259.2161 706.2239 259.9427 Q705.7005 260.6693 705.7005 262.0755 L705.7005 265.8724 L706.9505 265.8724 L706.9505 266.7005 L702.9661 266.7005 ZM713.5208 266.2318 L713.5208 264.2943 L714.3489 264.2943 Q714.3802 265.2318 714.9271 265.6927 Q715.4739 266.1536 716.5521 266.1536 Q717.5208 266.1536 718.0286 265.7864 Q718.5364 265.4193 718.5364 264.7318 Q718.5364 264.1849 718.1693 263.8489 Q717.8021 263.513 716.5989 263.1224 L715.5677 262.7786 Q714.4896 262.4349 714.013 261.9193 Q713.5364 261.4036 713.5364 260.6068 Q713.5364 259.4661 714.3724 258.8177 Q715.2083 258.1693 716.6771 258.1693 Q717.3333 258.1693 718.0599 258.3411 Q718.7864 258.513 719.5677 258.8411 L719.5677 260.6536 L718.7396 260.6536 Q718.7083 259.8411 718.1771 259.388 Q717.6458 258.9349 716.7239 258.9349 Q715.8177 258.9349 715.3568 259.2552 Q714.8958 259.5755 714.8958 260.2161 Q714.8958 260.7474 715.2474 261.0599 Q715.5989 261.3724 716.6458 261.7005 L717.7864 262.0599 Q718.9739 262.4193 719.4896 262.9739 Q720.0052 263.5286 720.0052 264.388 Q720.0052 265.5755 719.1068 266.2552 Q718.2083 266.9349 716.6146 266.9349 Q715.8177 266.9349 715.0521 266.7552 Q714.2864 266.5755 713.5208 266.2318 ZM726.4974 258.388 L729.1849 258.388 L729.1849 265.8724 L730.5443 265.8724 L730.5443 266.7005 L727.7474 266.7005 L727.7474 265.2318 Q727.3411 266.0599 726.7083 266.4974 Q726.0755 266.9349 725.2474 266.9349 Q723.8568 266.9349 723.2083 266.1458 Q722.5599 265.3568 722.5599 263.6693 L722.5599 259.2318 L721.263 259.2318 L721.263 258.388 L723.9974 258.388 L723.9974 263.2318 Q723.9974 264.7474 724.3724 265.3099 Q724.7474 265.8724 725.7005 265.8724 Q726.7005 265.8724 727.2239 265.138 Q727.7474 264.4036 727.7474 262.9974 L727.7474 259.2318 L726.4974 259.2318 L726.4974 258.388 ZM734.4114 265.8724 L735.7708 265.8724 L735.7708 266.7005 L731.5989 266.7005 L731.5989 265.8724 L732.9739 265.8724 L732.9739 255.3724 L731.5989 255.3724 L731.5989 254.5443 L734.4114 254.5443 L734.4114 265.8724 ZM737.9818 259.2318 L736.7161 259.2318 L736.7161 258.388 L737.9818 258.388 L737.9818 255.8099 L739.4193 255.8099 L739.4193 258.388 L742.1224 258.388 L742.1224 259.2318 L739.4193 259.2318 L739.4193 264.4974 Q739.4193 265.5599 739.6224 265.8568 Q739.8255 266.1536 740.3724 266.1536 Q740.9349 266.1536 741.1927 265.8177 Q741.4505 265.4818 741.4661 264.7474 L742.5599 264.7474 Q742.4974 265.8724 741.9427 266.4036 Q741.388 266.9349 740.2474 266.9349 Q739.013 266.9349 738.4974 266.3802 Q737.9818 265.8255 737.9818 264.4974 L737.9818 259.2318 ZM749.0521 264.0911 L749.0521 262.3255 L747.1927 262.3255 Q746.1302 262.3255 745.6068 262.7864 Q745.0833 263.2474 745.0833 264.2005 Q745.0833 265.0755 745.6146 265.5833 Q746.1458 266.0911 747.0521 266.0911 Q747.9427 266.0911 748.4974 265.5364 Q749.0521 264.9818 749.0521 264.0911 ZM750.4896 261.513 L750.4896 265.8724 L751.7708 265.8724 L751.7708 266.7005 L749.0521 266.7005 L749.0521 265.7943 Q748.5677 266.3724 747.9427 266.6536 Q747.3177 266.9349 746.4896 266.9349 Q745.0989 266.9349 744.2864 266.1927 Q743.4739 265.4505 743.4739 264.2005 Q743.4739 262.9193 744.4036 262.2083 Q745.3333 261.4974 747.0364 261.4974 L749.0521 261.4974 L749.0521 260.9193 Q749.0521 259.9818 748.4739 259.4583 Q747.8958 258.9349 746.8646 258.9349 Q746.0052 258.9349 745.4974 259.3255 Q744.9896 259.7161 744.8646 260.4818 L744.1146 260.4818 L744.1146 258.8099 Q744.8646 258.4818 745.5755 258.3255 Q746.2864 258.1693 746.9583 258.1693 Q748.6771 258.1693 749.5833 259.0208 Q750.4896 259.8724 750.4896 261.513 ZM760.5833 265.8724 L761.9427 265.8724 L761.9427 266.7005 L757.7708 266.7005 L757.7708 265.8724 L759.1458 265.8724 L759.1458 255.3724 L757.7708 255.3724 L757.7708 254.5443 L760.5833 254.5443 L760.5833 265.8724 ZM768.7943 264.0911 L768.7943 262.3255 L766.9349 262.3255 Q765.8724 262.3255 765.3489 262.7864 Q764.8255 263.2474 764.8255 264.2005 Q764.8255 265.0755 765.3568 265.5833 Q765.888 266.0911 766.7943 266.0911 Q767.6849 266.0911 768.2396 265.5364 Q768.7943 264.9818 768.7943 264.0911 ZM770.2318 261.513 L770.2318 265.8724 L771.513 265.8724 L771.513 266.7005 L768.7943 266.7005 L768.7943 265.7943 Q768.3099 266.3724 767.6849 266.6536 Q767.0599 266.9349 766.2318 266.9349 Q764.8411 266.9349 764.0286 266.1927 Q763.2161 265.4505 763.2161 264.2005 Q763.2161 262.9193 764.1458 262.2083 Q765.0755 261.4974 766.7786 261.4974 L768.7943 261.4974 L768.7943 260.9193 Q768.7943 259.9818 768.2161 259.4583 Q767.638 258.9349 766.6068 258.9349 Q765.7474 258.9349 765.2396 259.3255 Q764.7318 259.7161 764.6068 260.4818 L763.8568 260.4818 L763.8568 258.8099 Q764.6068 258.4818 765.3177 258.3255 Q766.0286 258.1693 766.7005 258.1693 Q768.4193 258.1693 769.3255 259.0208 Q770.2318 259.8724 770.2318 261.513 ZM785.4505 265.8724 L786.8255 265.8724 L786.8255 266.7005 L784.013 266.7005 L784.013 265.4036 Q783.5911 266.1849 782.9349 266.5599 Q782.2786 266.9349 781.3255 266.9349 Q779.7943 266.9349 778.8177 265.7161 Q777.8411 264.4974 777.8411 262.5443 Q777.8411 260.5911 778.8099 259.3802 Q779.7786 258.1693 781.3255 258.1693 Q782.2786 258.1693 782.9349 258.5364 Q783.5911 258.9036 784.013 259.6849 L784.013 255.3724 L782.6536 255.3724 L782.6536 254.5443 L785.4505 254.5443 L785.4505 265.8724 ZM784.013 262.9505 L784.013 262.138 Q784.013 260.638 783.4349 259.8489 Q782.8568 259.0599 781.763 259.0599 Q780.6536 259.0599 780.0911 259.9349 Q779.5286 260.8099 779.5286 262.5443 Q779.5286 264.263 780.0911 265.1458 Q780.6536 266.0286 781.763 266.0286 Q782.8568 266.0286 783.4349 265.2396 Q784.013 264.4505 784.013 262.9505 ZM792.0989 266.1536 Q793.2552 266.1536 793.8489 265.2396 Q794.4427 264.3255 794.4427 262.5443 Q794.4427 260.763 793.8489 259.8489 Q793.2552 258.9349 792.0989 258.9349 Q790.9427 258.9349 790.3568 259.8489 Q789.7708 260.763 789.7708 262.5443 Q789.7708 264.3255 790.3646 265.2396 Q790.9583 266.1536 792.0989 266.1536 ZM792.0989 266.9349 Q790.2864 266.9349 789.1849 265.7318 Q788.0833 264.5286 788.0833 262.5443 Q788.0833 260.5599 789.1849 259.3646 Q790.2864 258.1693 792.0989 258.1693 Q793.9271 258.1693 795.0208 259.3646 Q796.1146 260.5599 796.1146 262.5443 Q796.1146 264.5286 795.0208 265.7318 Q793.9271 266.9349 792.0989 266.9349 ZM805.1536 264.2005 Q804.8411 265.5286 803.9739 266.2318 Q803.1068 266.9349 801.7318 266.9349 Q799.9193 266.9349 798.8177 265.7318 Q797.7161 264.5286 797.7161 262.5443 Q797.7161 260.5443 798.8177 259.3568 Q799.9193 258.1693 801.7318 258.1693 Q802.5286 258.1693 803.3099 258.3489 Q804.0911 258.5286 804.8724 258.9036 L804.8724 261.0286 L804.0443 261.0286 Q803.8724 259.9349 803.3255 259.4349 Q802.7786 258.9349 801.7474 258.9349 Q800.5911 258.9349 799.9974 259.8411 Q799.4036 260.7474 799.4036 262.5443 Q799.4036 264.3411 799.9896 265.2474 Q800.5755 266.1536 801.7474 266.1536 Q802.6849 266.1536 803.2396 265.6693 Q803.7943 265.1849 803.9974 264.2005 L805.1536 264.2005 ZM811.5521 258.388 L814.2396 258.388 L814.2396 265.8724 L815.5989 265.8724 L815.5989 266.7005 L812.8021 266.7005 L812.8021 265.2318 Q812.3958 266.0599 811.763 266.4974 Q811.1302 266.9349 810.3021 266.9349 Q808.9114 266.9349 808.263 266.1458 Q807.6146 265.3568 807.6146 263.6693 L807.6146 259.2318 L806.3177 259.2318 L806.3177 258.388 L809.0521 258.388 L809.0521 263.2318 Q809.0521 264.7474 809.4271 265.3099 Q809.8021 265.8724 810.7552 265.8724 Q811.7552 265.8724 812.2786 265.138 Q812.8021 264.4036 812.8021 262.9974 L812.8021 259.2318 L811.5521 259.2318 L811.5521 258.388 ZM824.4818 260.013 Q824.888 259.0911 825.5364 258.6302 Q826.1849 258.1693 827.0443 258.1693 Q828.3411 258.1693 828.9818 258.9739 Q829.6224 259.7786 829.6224 261.4193 L829.6224 265.8724 L830.9193 265.8724 L830.9193 266.7005 L826.9349 266.7005 L826.9349 265.8724 L828.1849 265.8724 L828.1849 261.5755 Q828.1849 260.3099 827.8099 259.7708 Q827.4349 259.2318 826.5755 259.2318 Q825.6068 259.2318 825.1068 259.9583 Q824.6068 260.6849 824.6068 262.0755 L824.6068 265.8724 L825.8568 265.8724 L825.8568 266.7005 L821.9193 266.7005 L821.9193 265.8724 L823.1693 265.8724 L823.1693 261.5286 Q823.1693 260.2786 822.7943 259.7552 Q822.4193 259.2318 821.5443 259.2318 Q820.5911 259.2318 820.0833 259.9583 Q819.5755 260.6849 819.5755 262.0755 L819.5755 265.8724 L820.8255 265.8724 L820.8255 266.7005 L816.8411 266.7005 L816.8411 265.8724 L818.138 265.8724 L818.138 259.2161 L816.763 259.2161 L816.763 258.388 L819.5755 258.388 L819.5755 259.8724 Q819.9818 259.0443 820.5989 258.6068 Q821.2161 258.1693 821.9974 258.1693 Q822.9661 258.1693 823.6146 258.6458 Q824.263 259.1224 824.4818 260.013 ZM840.0286 262.7005 L833.8411 262.7005 L833.8411 262.763 Q833.8411 264.4349 834.4739 265.2943 Q835.1068 266.1536 836.3411 266.1536 Q837.2786 266.1536 837.888 265.6536 Q838.4974 265.1536 838.7318 264.1849 L839.888 264.1849 Q839.5443 265.5443 838.6224 266.2396 Q837.7005 266.9349 836.1849 266.9349 Q834.3724 266.9349 833.263 265.7318 Q832.1536 264.5286 832.1536 262.5443 Q832.1536 260.5755 833.2396 259.3724 Q834.3255 258.1693 836.0911 258.1693 Q837.9818 258.1693 838.9896 259.3255 Q839.9974 260.4818 840.0286 262.7005 ZM838.3411 261.8724 Q838.2943 260.4193 837.7239 259.6771 Q837.1536 258.9349 836.0911 258.9349 Q835.1068 258.9349 834.5364 259.6771 Q833.9661 260.4193 833.8411 261.8724 L838.3411 261.8724 ZM841.4818 266.7005 L841.4818 265.8724 L842.7786 265.8724 L842.7786 259.2318 L841.4036 259.2318 L841.4036 258.388 L844.2161 258.388 L844.2161 259.8724 Q844.6224 259.0286 845.2552 258.5989 Q845.888 258.1693 846.7318 258.1693 Q848.1068 258.1693 848.7552 258.9583 Q849.4036 259.7474 849.4036 261.4193 L849.4036 265.8724 L850.6849 265.8724 L850.6849 266.7005 L846.7161 266.7005 L846.7161 265.8724 L847.9661 265.8724 L847.9661 261.8724 Q847.9661 260.3411 847.5911 259.7786 Q847.2161 259.2161 846.263 259.2161 Q845.263 259.2161 844.7396 259.9427 Q844.2161 260.6693 844.2161 262.0755 L844.2161 265.8724 L845.4661 265.8724 L845.4661 266.7005 L841.4818 266.7005 ZM852.8646 259.2318 L851.5989 259.2318 L851.5989 258.388 L852.8646 258.388 L852.8646 255.8099 L854.3021 255.8099 L854.3021 258.388 L857.0052 258.388 L857.0052 259.2318 L854.3021 259.2318 L854.3021 264.4974 Q854.3021 265.5599 854.5052 265.8568 Q854.7083 266.1536 855.2552 266.1536 Q855.8177 266.1536 856.0755 265.8177 Q856.3333 265.4818 856.3489 264.7474 L857.4427 264.7474 Q857.3802 265.8724 856.8255 266.4036 Q856.2708 266.9349 855.1302 266.9349 Q853.8958 266.9349 853.3802 266.3802 Q852.8646 265.8255 852.8646 264.4974 L852.8646 259.2318 ZM863.9349 264.0911 L863.9349 262.3255 L862.0755 262.3255 Q861.013 262.3255 860.4896 262.7864 Q859.9661 263.2474 859.9661 264.2005 Q859.9661 265.0755 860.4974 265.5833 Q861.0286 266.0911 861.9349 266.0911 Q862.8255 266.0911 863.3802 265.5364 Q863.9349 264.9818 863.9349 264.0911 ZM865.3724 261.513 L865.3724 265.8724 L866.6536 265.8724 L866.6536 266.7005 L863.9349 266.7005 L863.9349 265.7943 Q863.4505 266.3724 862.8255 266.6536 Q862.2005 266.9349 861.3724 266.9349 Q859.9818 266.9349 859.1693 266.1927 Q858.3568 265.4505 858.3568 264.2005 Q858.3568 262.9193 859.2864 262.2083 Q860.2161 261.4974 861.9193 261.4974 L863.9349 261.4974 L863.9349 260.9193 Q863.9349 259.9818 863.3568 259.4583 Q862.7786 258.9349 861.7474 258.9349 Q860.888 258.9349 860.3802 259.3255 Q859.8724 259.7161 859.7474 260.4818 L858.9974 260.4818 L858.9974 258.8099 Q859.7474 258.4818 860.4583 258.3255 Q861.1693 258.1693 861.8411 258.1693 Q863.5599 258.1693 864.4661 259.0208 Q865.3724 259.8724 865.3724 261.513 ZM875.3333 264.2005 Q875.0208 265.5286 874.1536 266.2318 Q873.2864 266.9349 871.9114 266.9349 Q870.0989 266.9349 868.9974 265.7318 Q867.8958 264.5286 867.8958 262.5443 Q867.8958 260.5443 868.9974 259.3568 Q870.0989 258.1693 871.9114 258.1693 Q872.7083 258.1693 873.4896 258.3489 Q874.2708 258.5286 875.0521 258.9036 L875.0521 261.0286 L874.2239 261.0286 Q874.0521 259.9349 873.5052 259.4349 Q872.9583 258.9349 871.9271 258.9349 Q870.7708 258.9349 870.1771 259.8411 Q869.5833 260.7474 869.5833 262.5443 Q869.5833 264.3411 870.1693 265.2474 Q870.7552 266.1536 871.9271 266.1536 Q872.8646 266.1536 873.4193 265.6693 Q873.9739 265.1849 874.1771 264.2005 L875.3333 264.2005 ZM877.6224 255.8099 Q877.6224 255.4505 877.8802 255.1849 Q878.138 254.9193 878.513 254.9193 Q878.8724 254.9193 879.1302 255.1849 Q879.388 255.4505 879.388 255.8099 Q879.388 256.1849 879.1302 256.4427 Q878.8724 256.7005 878.513 256.7005 Q878.138 256.7005 877.8802 256.4427 Q877.6224 256.1849 877.6224 255.8099 ZM879.4505 265.8724 L880.8099 265.8724 L880.8099 266.7005 L876.638 266.7005 L876.638 265.8724 L878.013 265.8724 L878.013 259.2318 L876.638 259.2318 L876.638 258.388 L879.4505 258.388 L879.4505 265.8724 ZM885.9896 266.1536 Q887.1458 266.1536 887.7396 265.2396 Q888.3333 264.3255 888.3333 262.5443 Q888.3333 260.763 887.7396 259.8489 Q887.1458 258.9349 885.9896 258.9349 Q884.8333 258.9349 884.2474 259.8489 Q883.6614 260.763 883.6614 262.5443 Q883.6614 264.3255 884.2552 265.2396 Q884.8489 266.1536 885.9896 266.1536 ZM885.9896 266.9349 Q884.1771 266.9349 883.0755 265.7318 Q881.9739 264.5286 881.9739 262.5443 Q881.9739 260.5599 883.0755 259.3646 Q884.1771 258.1693 885.9896 258.1693 Q887.8177 258.1693 888.9114 259.3646 Q890.0052 260.5599 890.0052 262.5443 Q890.0052 264.5286 888.9114 265.7318 Q887.8177 266.9349 885.9896 266.9349 ZM887.2708 253.9036 L888.8177 253.9036 L886.1614 256.8411 L885.2552 256.8411 L887.2708 253.9036 ZM891.4661 266.7005 L891.4661 265.8724 L892.763 265.8724 L892.763 259.2318 L891.388 259.2318 L891.388 258.388 L894.2005 258.388 L894.2005 259.8724 Q894.6068 259.0286 895.2396 258.5989 Q895.8724 258.1693 896.7161 258.1693 Q898.0911 258.1693 898.7396 258.9583 Q899.388 259.7474 899.388 261.4193 L899.388 265.8724 L900.6693 265.8724 L900.6693 266.7005 L896.7005 266.7005 L896.7005 265.8724 L897.9505 265.8724 L897.9505 261.8724 Q897.9505 260.3411 897.5755 259.7786 Q897.2005 259.2161 896.2474 259.2161 Q895.2474 259.2161 894.7239 259.9427 Q894.2005 260.6693 894.2005 262.0755 L894.2005 265.8724 L895.4505 265.8724 L895.4505 266.7005 L891.4661 266.7005 ZM914.6068 265.8724 L915.9818 265.8724 L915.9818 266.7005 L913.1693 266.7005 L913.1693 265.4036 Q912.7474 266.1849 912.0911 266.5599 Q911.4349 266.9349 910.4818 266.9349 Q908.9505 266.9349 907.9739 265.7161 Q906.9974 264.4974 906.9974 262.5443 Q906.9974 260.5911 907.9661 259.3802 Q908.9349 258.1693 910.4818 258.1693 Q911.4349 258.1693 912.0911 258.5364 Q912.7474 258.9036 913.1693 259.6849 L913.1693 255.3724 L911.8099 255.3724 L911.8099 254.5443 L914.6068 254.5443 L914.6068 265.8724 ZM913.1693 262.9505 L913.1693 262.138 Q913.1693 260.638 912.5911 259.8489 Q912.013 259.0599 910.9193 259.0599 Q909.8099 259.0599 909.2474 259.9349 Q908.6849 260.8099 908.6849 262.5443 Q908.6849 264.263 909.2474 265.1458 Q909.8099 266.0286 910.9193 266.0286 Q912.013 266.0286 912.5911 265.2396 Q913.1693 264.4505 913.1693 262.9505 ZM925.1146 262.7005 L918.9271 262.7005 L918.9271 262.763 Q918.9271 264.4349 919.5599 265.2943 Q920.1927 266.1536 921.4271 266.1536 Q922.3646 266.1536 922.9739 265.6536 Q923.5833 265.1536 923.8177 264.1849 L924.9739 264.1849 Q924.6302 265.5443 923.7083 266.2396 Q922.7864 266.9349 921.2708 266.9349 Q919.4583 266.9349 918.3489 265.7318 Q917.2396 264.5286 917.2396 262.5443 Q917.2396 260.5755 918.3255 259.3724 Q919.4114 258.1693 921.1771 258.1693 Q923.0677 258.1693 924.0755 259.3255 Q925.0833 260.4818 925.1146 262.7005 ZM923.4271 261.8724 Q923.3802 260.4193 922.8099 259.6771 Q922.2396 258.9349 921.1771 258.9349 Q920.1927 258.9349 919.6224 259.6771 Q919.0521 260.4193 918.9271 261.8724 L923.4271 261.8724 ZM939.2318 264.2005 Q938.9193 265.5286 938.0521 266.2318 Q937.1849 266.9349 935.8099 266.9349 Q933.9974 266.9349 932.8958 265.7318 Q931.7943 264.5286 931.7943 262.5443 Q931.7943 260.5443 932.8958 259.3568 Q933.9974 258.1693 935.8099 258.1693 Q936.6068 258.1693 937.388 258.3489 Q938.1693 258.5286 938.9505 258.9036 L938.9505 261.0286 L938.1224 261.0286 Q937.9505 259.9349 937.4036 259.4349 Q936.8568 258.9349 935.8255 258.9349 Q934.6693 258.9349 934.0755 259.8411 Q933.4818 260.7474 933.4818 262.5443 Q933.4818 264.3411 934.0677 265.2474 Q934.6536 266.1536 935.8255 266.1536 Q936.763 266.1536 937.3177 265.6693 Q937.8724 265.1849 938.0755 264.2005 L939.2318 264.2005 ZM947.6146 258.3724 L947.6146 260.4505 L946.7864 260.4505 Q946.7396 259.8411 946.4349 259.5364 Q946.1302 259.2318 945.5521 259.2318 Q944.4896 259.2318 943.9193 259.9661 Q943.3489 260.7005 943.3489 262.0755 L943.3489 265.8724 L945.0208 265.8724 L945.0208 266.7005 L940.6146 266.7005 L940.6146 265.8724 L941.9114 265.8724 L941.9114 259.2161 L940.5364 259.2161 L940.5364 258.388 L943.3489 258.388 L943.3489 259.8724 Q943.7708 258.9974 944.4349 258.5833 Q945.0989 258.1693 946.0521 258.1693 Q946.4114 258.1693 946.7943 258.2239 Q947.1771 258.2786 947.6146 258.3724 ZM952.4193 266.1536 Q953.5755 266.1536 954.1693 265.2396 Q954.763 264.3255 954.763 262.5443 Q954.763 260.763 954.1693 259.8489 Q953.5755 258.9349 952.4193 258.9349 Q951.263 258.9349 950.6771 259.8489 Q950.0911 260.763 950.0911 262.5443 Q950.0911 264.3255 950.6849 265.2396 Q951.2786 266.1536 952.4193 266.1536 ZM952.4193 266.9349 Q950.6068 266.9349 949.5052 265.7318 Q948.4036 264.5286 948.4036 262.5443 Q948.4036 260.5599 949.5052 259.3646 Q950.6068 258.1693 952.4193 258.1693 Q954.2474 258.1693 955.3411 259.3646 Q956.4349 260.5599 956.4349 262.5443 Q956.4349 264.5286 955.3411 265.7318 Q954.2474 266.9349 952.4193 266.9349 ZM957.8958 266.7005 L957.8958 265.8724 L959.1927 265.8724 L959.1927 259.2318 L957.8177 259.2318 L957.8177 258.388 L960.6302 258.388 L960.6302 259.8724 Q961.0364 259.0286 961.6693 258.5989 Q962.3021 258.1693 963.1458 258.1693 Q964.5208 258.1693 965.1693 258.9583 Q965.8177 259.7474 965.8177 261.4193 L965.8177 265.8724 L967.0989 265.8724 L967.0989 266.7005 L963.1302 266.7005 L963.1302 265.8724 L964.3802 265.8724 L964.3802 261.8724 Q964.3802 260.3411 964.0052 259.7786 Q963.6302 259.2161 962.6771 259.2161 Q961.6771 259.2161 961.1536 259.9427 Q960.6302 260.6693 960.6302 262.0755 L960.6302 265.8724 L961.8802 265.8724 L961.8802 266.7005 L957.8958 266.7005 Z" stroke="none" clip-path="url(#clipPath3)"/>
          <path d="M683.7161 280.763 L683.7161 281.5755 Q683.7161 283.0755 684.2943 283.8646 Q684.8724 284.6536 685.9661 284.6536 Q687.0599 284.6536 687.6302 283.7708 Q688.2005 282.888 688.2005 281.1693 Q688.2005 279.4349 687.6302 278.5599 Q687.0599 277.6849 685.9661 277.6849 Q684.8724 277.6849 684.2943 278.4739 Q683.7161 279.263 683.7161 280.763 ZM682.2786 277.8568 L680.9036 277.8568 L680.9036 277.013 L683.7161 277.013 L683.7161 278.3099 Q684.138 277.5286 684.7943 277.1614 Q685.4505 276.7943 686.4036 276.7943 Q687.9349 276.7943 688.9036 278.0052 Q689.8724 279.2161 689.8724 281.1693 Q689.8724 283.1224 688.9036 284.3411 Q687.9349 285.5599 686.4036 285.5599 Q685.4505 285.5599 684.7943 285.1849 Q684.138 284.8099 683.7161 284.0286 L683.7161 287.8255 L685.0755 287.8255 L685.0755 288.6536 L680.9036 288.6536 L680.9036 287.8255 L682.2786 287.8255 L682.2786 277.8568 ZM697.0521 282.7161 L697.0521 280.9505 L695.1927 280.9505 Q694.1302 280.9505 693.6068 281.4114 Q693.0833 281.8724 693.0833 282.8255 Q693.0833 283.7005 693.6146 284.2083 Q694.1458 284.7161 695.0521 284.7161 Q695.9427 284.7161 696.4974 284.1614 Q697.0521 283.6068 697.0521 282.7161 ZM698.4896 280.138 L698.4896 284.4974 L699.7708 284.4974 L699.7708 285.3255 L697.0521 285.3255 L697.0521 284.4193 Q696.5677 284.9974 695.9427 285.2786 Q695.3177 285.5599 694.4896 285.5599 Q693.0989 285.5599 692.2864 284.8177 Q691.4739 284.0755 691.4739 282.8255 Q691.4739 281.5443 692.4036 280.8333 Q693.3333 280.1224 695.0364 280.1224 L697.0521 280.1224 L697.0521 279.5443 Q697.0521 278.6068 696.4739 278.0833 Q695.8958 277.5599 694.8646 277.5599 Q694.0052 277.5599 693.4974 277.9505 Q692.9896 278.3411 692.8646 279.1068 L692.1146 279.1068 L692.1146 277.4349 Q692.8646 277.1068 693.5755 276.9505 Q694.2864 276.7943 694.9583 276.7943 Q696.6771 276.7943 697.5833 277.6458 Q698.4896 278.4974 698.4896 280.138 ZM707.8724 276.9974 L707.8724 279.0755 L707.0443 279.0755 Q706.9974 278.4661 706.6927 278.1614 Q706.388 277.8568 705.8099 277.8568 Q704.7474 277.8568 704.1771 278.5911 Q703.6068 279.3255 703.6068 280.7005 L703.6068 284.4974 L705.2786 284.4974 L705.2786 285.3255 L700.8724 285.3255 L700.8724 284.4974 L702.1693 284.4974 L702.1693 277.8411 L700.7943 277.8411 L700.7943 277.013 L703.6068 277.013 L703.6068 278.4974 Q704.0286 277.6224 704.6927 277.2083 Q705.3568 276.7943 706.3099 276.7943 Q706.6693 276.7943 707.0521 276.8489 Q707.4349 276.9036 707.8724 276.9974 ZM714.2396 282.7161 L714.2396 280.9505 L712.3802 280.9505 Q711.3177 280.9505 710.7943 281.4114 Q710.2708 281.8724 710.2708 282.8255 Q710.2708 283.7005 710.8021 284.2083 Q711.3333 284.7161 712.2396 284.7161 Q713.1302 284.7161 713.6849 284.1614 Q714.2396 283.6068 714.2396 282.7161 ZM715.6771 280.138 L715.6771 284.4974 L716.9583 284.4974 L716.9583 285.3255 L714.2396 285.3255 L714.2396 284.4193 Q713.7552 284.9974 713.1302 285.2786 Q712.5052 285.5599 711.6771 285.5599 Q710.2864 285.5599 709.4739 284.8177 Q708.6614 284.0755 708.6614 282.8255 Q708.6614 281.5443 709.5911 280.8333 Q710.5208 280.1224 712.2239 280.1224 L714.2396 280.1224 L714.2396 279.5443 Q714.2396 278.6068 713.6614 278.0833 Q713.0833 277.5599 712.0521 277.5599 Q711.1927 277.5599 710.6849 277.9505 Q710.1771 278.3411 710.0521 279.1068 L709.3021 279.1068 L709.3021 277.4349 Q710.0521 277.1068 710.763 276.9505 Q711.4739 276.7943 712.1458 276.7943 Q713.8646 276.7943 714.7708 277.6458 Q715.6771 278.4974 715.6771 280.138 ZM723.1458 285.3255 L723.1458 284.4974 L724.4427 284.4974 L724.4427 273.9974 L723.0677 273.9974 L723.0677 273.1693 L725.8802 273.1693 L725.8802 278.4974 Q726.2864 277.6536 726.9193 277.2239 Q727.5521 276.7943 728.3958 276.7943 Q729.7708 276.7943 730.4193 277.5833 Q731.0677 278.3724 731.0677 280.0443 L731.0677 284.4974 L732.3489 284.4974 L732.3489 285.3255 L728.3802 285.3255 L728.3802 284.4974 L729.6302 284.4974 L729.6302 280.4974 Q729.6302 278.9661 729.2552 278.4114 Q728.8802 277.8568 727.9271 277.8568 Q726.9271 277.8568 726.4036 278.5833 Q725.8802 279.3099 725.8802 280.7005 L725.8802 284.4974 L727.1302 284.4974 L727.1302 285.3255 L723.1458 285.3255 ZM739.1693 282.7161 L739.1693 280.9505 L737.3099 280.9505 Q736.2474 280.9505 735.7239 281.4114 Q735.2005 281.8724 735.2005 282.8255 Q735.2005 283.7005 735.7318 284.2083 Q736.263 284.7161 737.1693 284.7161 Q738.0599 284.7161 738.6146 284.1614 Q739.1693 283.6068 739.1693 282.7161 ZM740.6068 280.138 L740.6068 284.4974 L741.888 284.4974 L741.888 285.3255 L739.1693 285.3255 L739.1693 284.4193 Q738.6849 284.9974 738.0599 285.2786 Q737.4349 285.5599 736.6068 285.5599 Q735.2161 285.5599 734.4036 284.8177 Q733.5911 284.0755 733.5911 282.8255 Q733.5911 281.5443 734.5208 280.8333 Q735.4505 280.1224 737.1536 280.1224 L739.1693 280.1224 L739.1693 279.5443 Q739.1693 278.6068 738.5911 278.0833 Q738.013 277.5599 736.9818 277.5599 Q736.1224 277.5599 735.6146 277.9505 Q735.1068 278.3411 734.9818 279.1068 L734.2318 279.1068 L734.2318 277.4349 Q734.9818 277.1068 735.6927 276.9505 Q736.4036 276.7943 737.0755 276.7943 Q738.7943 276.7943 739.7005 277.6458 Q740.6068 278.4974 740.6068 280.138 ZM750.5677 282.8255 Q750.2552 284.1536 749.388 284.8568 Q748.5208 285.5599 747.1458 285.5599 Q745.3333 285.5599 744.2318 284.3568 Q743.1302 283.1536 743.1302 281.1693 Q743.1302 279.1693 744.2318 277.9818 Q745.3333 276.7943 747.1458 276.7943 Q747.9427 276.7943 748.7239 276.9739 Q749.5052 277.1536 750.2864 277.5286 L750.2864 279.6536 L749.4583 279.6536 Q749.2864 278.5599 748.7396 278.0599 Q748.1927 277.5599 747.1614 277.5599 Q746.0052 277.5599 745.4114 278.4661 Q744.8177 279.3724 744.8177 281.1693 Q744.8177 282.9661 745.4036 283.8724 Q745.9896 284.7786 747.1614 284.7786 Q748.0989 284.7786 748.6536 284.2943 Q749.2083 283.8099 749.4114 282.8255 L750.5677 282.8255 ZM759.9661 281.3255 L753.7786 281.3255 L753.7786 281.388 Q753.7786 283.0599 754.4114 283.9193 Q755.0443 284.7786 756.2786 284.7786 Q757.2161 284.7786 757.8255 284.2786 Q758.4349 283.7786 758.6693 282.8099 L759.8255 282.8099 Q759.4818 284.1693 758.5599 284.8646 Q757.638 285.5599 756.1224 285.5599 Q754.3099 285.5599 753.2005 284.3568 Q752.0911 283.1536 752.0911 281.1693 Q752.0911 279.2005 753.1771 277.9974 Q754.263 276.7943 756.0286 276.7943 Q757.9193 276.7943 758.9271 277.9505 Q759.9349 279.1068 759.9661 281.3255 ZM758.2786 280.4974 Q758.2318 279.0443 757.6614 278.3021 Q757.0911 277.5599 756.0286 277.5599 Q755.0443 277.5599 754.4739 278.3021 Q753.9036 279.0443 753.7786 280.4974 L758.2786 280.4974 ZM768.4193 276.9974 L768.4193 279.0755 L767.5911 279.0755 Q767.5443 278.4661 767.2396 278.1614 Q766.9349 277.8568 766.3568 277.8568 Q765.2943 277.8568 764.7239 278.5911 Q764.1536 279.3255 764.1536 280.7005 L764.1536 284.4974 L765.8255 284.4974 L765.8255 285.3255 L761.4193 285.3255 L761.4193 284.4974 L762.7161 284.4974 L762.7161 277.8411 L761.3411 277.8411 L761.3411 277.013 L764.1536 277.013 L764.1536 278.4974 Q764.5755 277.6224 765.2396 277.2083 Q765.9036 276.7943 766.8568 276.7943 Q767.2161 276.7943 767.5989 276.8489 Q767.9818 276.9036 768.4193 276.9974 ZM776.7786 284.4974 L778.138 284.4974 L778.138 285.3255 L773.9661 285.3255 L773.9661 284.4974 L775.3411 284.4974 L775.3411 273.9974 L773.9661 273.9974 L773.9661 273.1693 L776.7786 273.1693 L776.7786 284.4974 ZM783.4271 284.7786 Q784.5833 284.7786 785.1771 283.8646 Q785.7708 282.9505 785.7708 281.1693 Q785.7708 279.388 785.1771 278.4739 Q784.5833 277.5599 783.4271 277.5599 Q782.2708 277.5599 781.6849 278.4739 Q781.0989 279.388 781.0989 281.1693 Q781.0989 282.9505 781.6927 283.8646 Q782.2864 284.7786 783.4271 284.7786 ZM783.4271 285.5599 Q781.6146 285.5599 780.513 284.3568 Q779.4114 283.1536 779.4114 281.1693 Q779.4114 279.1849 780.513 277.9896 Q781.6146 276.7943 783.4271 276.7943 Q785.2552 276.7943 786.3489 277.9896 Q787.4427 279.1849 787.4427 281.1693 Q787.4427 283.1536 786.3489 284.3568 Q785.2552 285.5599 783.4271 285.5599 ZM789.1536 284.8568 L789.1536 282.9193 L789.9818 282.9193 Q790.013 283.8568 790.5599 284.3177 Q791.1068 284.7786 792.1849 284.7786 Q793.1536 284.7786 793.6614 284.4114 Q794.1693 284.0443 794.1693 283.3568 Q794.1693 282.8099 793.8021 282.4739 Q793.4349 282.138 792.2318 281.7474 L791.2005 281.4036 Q790.1224 281.0599 789.6458 280.5443 Q789.1693 280.0286 789.1693 279.2318 Q789.1693 278.0911 790.0052 277.4427 Q790.8411 276.7943 792.3099 276.7943 Q792.9661 276.7943 793.6927 276.9661 Q794.4193 277.138 795.2005 277.4661 L795.2005 279.2786 L794.3724 279.2786 Q794.3411 278.4661 793.8099 278.013 Q793.2786 277.5599 792.3568 277.5599 Q791.4505 277.5599 790.9896 277.8802 Q790.5286 278.2005 790.5286 278.8411 Q790.5286 279.3724 790.8802 279.6849 Q791.2318 279.9974 792.2786 280.3255 L793.4193 280.6849 Q794.6068 281.0443 795.1224 281.5989 Q795.638 282.1536 795.638 283.013 Q795.638 284.2005 794.7396 284.8802 Q793.8411 285.5599 792.2474 285.5599 Q791.4505 285.5599 790.6849 285.3802 Q789.9193 285.2005 789.1536 284.8568 ZM802.4505 284.8568 L802.4505 282.9193 L803.2786 282.9193 Q803.3099 283.8568 803.8568 284.3177 Q804.4036 284.7786 805.4818 284.7786 Q806.4505 284.7786 806.9583 284.4114 Q807.4661 284.0443 807.4661 283.3568 Q807.4661 282.8099 807.0989 282.4739 Q806.7318 282.138 805.5286 281.7474 L804.4974 281.4036 Q803.4193 281.0599 802.9427 280.5443 Q802.4661 280.0286 802.4661 279.2318 Q802.4661 278.0911 803.3021 277.4427 Q804.138 276.7943 805.6068 276.7943 Q806.263 276.7943 806.9896 276.9661 Q807.7161 277.138 808.4974 277.4661 L808.4974 279.2786 L807.6693 279.2786 Q807.638 278.4661 807.1068 278.013 Q806.5755 277.5599 805.6536 277.5599 Q804.7474 277.5599 804.2864 277.8802 Q803.8255 278.2005 803.8255 278.8411 Q803.8255 279.3724 804.1771 279.6849 Q804.5286 279.9974 805.5755 280.3255 L806.7161 280.6849 Q807.9036 281.0443 808.4193 281.5989 Q808.9349 282.1536 808.9349 283.013 Q808.9349 284.2005 808.0364 284.8802 Q807.138 285.5599 805.5443 285.5599 Q804.7474 285.5599 803.9818 285.3802 Q803.2161 285.2005 802.4505 284.8568 ZM811.3177 274.4349 Q811.3177 274.0755 811.5755 273.8099 Q811.8333 273.5443 812.2083 273.5443 Q812.5677 273.5443 812.8255 273.8099 Q813.0833 274.0755 813.0833 274.4349 Q813.0833 274.8099 812.8255 275.0677 Q812.5677 275.3255 812.2083 275.3255 Q811.8333 275.3255 811.5755 275.0677 Q811.3177 274.8099 811.3177 274.4349 ZM813.1458 284.4974 L814.5052 284.4974 L814.5052 285.3255 L810.3333 285.3255 L810.3333 284.4974 L811.7083 284.4974 L811.7083 277.8568 L810.3333 277.8568 L810.3333 277.013 L813.1458 277.013 L813.1458 284.4974 ZM823.2786 277.8568 L823.2786 285.138 Q823.2786 286.9349 822.2943 287.9114 Q821.3099 288.888 819.4818 288.888 Q818.6693 288.888 817.9193 288.7396 Q817.1693 288.5911 816.4818 288.2943 L816.4818 286.5443 L817.2318 286.5443 Q817.3724 287.3568 817.8958 287.7318 Q818.4193 288.1068 819.388 288.1068 Q820.6536 288.1068 821.2474 287.3958 Q821.8411 286.6849 821.8411 285.138 L821.8411 284.0286 Q821.4193 284.8099 820.763 285.1849 Q820.1068 285.5599 819.1536 285.5599 Q817.6224 285.5599 816.6458 284.3411 Q815.6693 283.1224 815.6693 281.1693 Q815.6693 279.2161 816.638 278.0052 Q817.6068 276.7943 819.1536 276.7943 Q820.1068 276.7943 820.763 277.1614 Q821.4193 277.5286 821.8411 278.3099 L821.8411 277.013 L824.6536 277.013 L824.6536 277.8568 L823.2786 277.8568 ZM821.8411 280.763 Q821.8411 279.263 821.263 278.4739 Q820.6849 277.6849 819.5911 277.6849 Q818.4818 277.6849 817.9193 278.5599 Q817.3568 279.4349 817.3568 281.1693 Q817.3568 282.888 817.9193 283.7708 Q818.4818 284.6536 819.5911 284.6536 Q820.6849 284.6536 821.263 283.8646 Q821.8411 283.0755 821.8411 281.5755 L821.8411 280.763 ZM830.7864 277.013 L833.4739 277.013 L833.4739 284.4974 L834.8333 284.4974 L834.8333 285.3255 L832.0364 285.3255 L832.0364 283.8568 Q831.6302 284.6849 830.9974 285.1224 Q830.3646 285.5599 829.5364 285.5599 Q828.1458 285.5599 827.4974 284.7708 Q826.8489 283.9818 826.8489 282.2943 L826.8489 277.8568 L825.5521 277.8568 L825.5521 277.013 L828.2864 277.013 L828.2864 281.8568 Q828.2864 283.3724 828.6614 283.9349 Q829.0364 284.4974 829.9896 284.4974 Q830.9896 284.4974 831.513 283.763 Q832.0364 283.0286 832.0364 281.6224 L832.0364 277.8568 L830.7864 277.8568 L830.7864 277.013 ZM836.9818 274.4349 Q836.9818 274.0755 837.2396 273.8099 Q837.4974 273.5443 837.8724 273.5443 Q838.2318 273.5443 838.4896 273.8099 Q838.7474 274.0755 838.7474 274.4349 Q838.7474 274.8099 838.4896 275.0677 Q838.2318 275.3255 837.8724 275.3255 Q837.4974 275.3255 837.2396 275.0677 Q836.9818 274.8099 836.9818 274.4349 ZM838.8099 284.4974 L840.1693 284.4974 L840.1693 285.3255 L835.9974 285.3255 L835.9974 284.4974 L837.3724 284.4974 L837.3724 277.8568 L835.9974 277.8568 L835.9974 277.013 L838.8099 277.013 L838.8099 284.4974 ZM849.2083 281.3255 L843.0208 281.3255 L843.0208 281.388 Q843.0208 283.0599 843.6536 283.9193 Q844.2864 284.7786 845.5208 284.7786 Q846.4583 284.7786 847.0677 284.2786 Q847.6771 283.7786 847.9114 282.8099 L849.0677 282.8099 Q848.7239 284.1693 847.8021 284.8646 Q846.8802 285.5599 845.3646 285.5599 Q843.5521 285.5599 842.4427 284.3568 Q841.3333 283.1536 841.3333 281.1693 Q841.3333 279.2005 842.4193 277.9974 Q843.5052 276.7943 845.2708 276.7943 Q847.1614 276.7943 848.1693 277.9505 Q849.1771 279.1068 849.2083 281.3255 ZM847.5208 280.4974 Q847.4739 279.0443 846.9036 278.3021 Q846.3333 277.5599 845.2708 277.5599 Q844.2864 277.5599 843.7161 278.3021 Q843.1458 279.0443 843.0208 280.4974 L847.5208 280.4974 ZM850.6614 285.3255 L850.6614 284.4974 L851.9583 284.4974 L851.9583 277.8568 L850.5833 277.8568 L850.5833 277.013 L853.3958 277.013 L853.3958 278.4974 Q853.8021 277.6536 854.4349 277.2239 Q855.0677 276.7943 855.9114 276.7943 Q857.2864 276.7943 857.9349 277.5833 Q858.5833 278.3724 858.5833 280.0443 L858.5833 284.4974 L859.8646 284.4974 L859.8646 285.3255 L855.8958 285.3255 L855.8958 284.4974 L857.1458 284.4974 L857.1458 280.4974 Q857.1458 278.9661 856.7708 278.4036 Q856.3958 277.8411 855.4427 277.8411 Q854.4427 277.8411 853.9193 278.5677 Q853.3958 279.2943 853.3958 280.7005 L853.3958 284.4974 L854.6458 284.4974 L854.6458 285.3255 L850.6614 285.3255 ZM862.0443 277.8568 L860.7786 277.8568 L860.7786 277.013 L862.0443 277.013 L862.0443 274.4349 L863.4818 274.4349 L863.4818 277.013 L866.1849 277.013 L866.1849 277.8568 L863.4818 277.8568 L863.4818 283.1224 Q863.4818 284.1849 863.6849 284.4818 Q863.888 284.7786 864.4349 284.7786 Q864.9974 284.7786 865.2552 284.4427 Q865.513 284.1068 865.5286 283.3724 L866.6224 283.3724 Q866.5599 284.4974 866.0052 285.0286 Q865.4505 285.5599 864.3099 285.5599 Q863.0755 285.5599 862.5599 285.0052 Q862.0443 284.4505 862.0443 283.1224 L862.0443 277.8568 ZM875.4114 281.3255 L869.2239 281.3255 L869.2239 281.388 Q869.2239 283.0599 869.8568 283.9193 Q870.4896 284.7786 871.7239 284.7786 Q872.6614 284.7786 873.2708 284.2786 Q873.8802 283.7786 874.1146 282.8099 L875.2708 282.8099 Q874.9271 284.1693 874.0052 284.8646 Q873.0833 285.5599 871.5677 285.5599 Q869.7552 285.5599 868.6458 284.3568 Q867.5364 283.1536 867.5364 281.1693 Q867.5364 279.2005 868.6224 277.9974 Q869.7083 276.7943 871.4739 276.7943 Q873.3646 276.7943 874.3724 277.9505 Q875.3802 279.1068 875.4114 281.3255 ZM873.7239 280.4974 Q873.6771 279.0443 873.1068 278.3021 Q872.5364 277.5599 871.4739 277.5599 Q870.4896 277.5599 869.9193 278.3021 Q869.3489 279.0443 869.2239 280.4974 L873.7239 280.4974 ZM877.1146 284.8568 L877.1146 282.9193 L877.9427 282.9193 Q877.9739 283.8568 878.5208 284.3177 Q879.0677 284.7786 880.1458 284.7786 Q881.1146 284.7786 881.6224 284.4114 Q882.1302 284.0443 882.1302 283.3568 Q882.1302 282.8099 881.763 282.4739 Q881.3958 282.138 880.1927 281.7474 L879.1614 281.4036 Q878.0833 281.0599 877.6068 280.5443 Q877.1302 280.0286 877.1302 279.2318 Q877.1302 278.0911 877.9661 277.4427 Q878.8021 276.7943 880.2708 276.7943 Q880.9271 276.7943 881.6536 276.9661 Q882.3802 277.138 883.1614 277.4661 L883.1614 279.2786 L882.3333 279.2786 Q882.3021 278.4661 881.7708 278.013 Q881.2396 277.5599 880.3177 277.5599 Q879.4114 277.5599 878.9505 277.8802 Q878.4896 278.2005 878.4896 278.8411 Q878.4896 279.3724 878.8411 279.6849 Q879.1927 279.9974 880.2396 280.3255 L881.3802 280.6849 Q882.5677 281.0443 883.0833 281.5989 Q883.5989 282.1536 883.5989 283.013 Q883.5989 284.2005 882.7005 284.8802 Q881.8021 285.5599 880.2083 285.5599 Q879.4114 285.5599 878.6458 285.3802 Q877.8802 285.2005 877.1146 284.8568 ZM898.1771 281.3255 L891.9896 281.3255 L891.9896 281.388 Q891.9896 283.0599 892.6224 283.9193 Q893.2552 284.7786 894.4896 284.7786 Q895.4271 284.7786 896.0364 284.2786 Q896.6458 283.7786 896.8802 282.8099 L898.0364 282.8099 Q897.6927 284.1693 896.7708 284.8646 Q895.8489 285.5599 894.3333 285.5599 Q892.5208 285.5599 891.4114 284.3568 Q890.3021 283.1536 890.3021 281.1693 Q890.3021 279.2005 891.388 277.9974 Q892.4739 276.7943 894.2396 276.7943 Q896.1302 276.7943 897.138 277.9505 Q898.1458 279.1068 898.1771 281.3255 ZM896.4896 280.4974 Q896.4427 279.0443 895.8724 278.3021 Q895.3021 277.5599 894.2396 277.5599 Q893.2552 277.5599 892.6849 278.3021 Q892.1146 279.0443 891.9896 280.4974 L896.4896 280.4974 ZM900.5833 274.4349 Q900.5833 274.0755 900.8411 273.8099 Q901.0989 273.5443 901.4739 273.5443 Q901.8333 273.5443 902.0911 273.8099 Q902.3489 274.0755 902.3489 274.4349 Q902.3489 274.8099 902.0989 275.0677 Q901.8489 275.3255 901.4739 275.3255 Q901.0989 275.3255 900.8411 275.0677 Q900.5833 274.8099 900.5833 274.4349 ZM900.9271 277.8568 L899.5677 277.8568 L899.5677 277.013 L902.3646 277.013 L902.3646 286.138 Q902.3646 287.4193 901.6068 288.1536 Q900.8489 288.888 899.5052 288.888 Q898.9427 288.888 898.4271 288.7552 Q897.9114 288.6224 897.4271 288.3724 L897.4271 286.6536 L898.1771 286.6536 Q898.2239 287.4036 898.5599 287.7552 Q898.8958 288.1068 899.5364 288.1068 Q900.2552 288.1068 900.5911 287.6302 Q900.9271 287.1536 900.9271 286.138 L900.9271 277.8568 ZM912.6068 281.3255 L906.4193 281.3255 L906.4193 281.388 Q906.4193 283.0599 907.0521 283.9193 Q907.6849 284.7786 908.9193 284.7786 Q909.8568 284.7786 910.4661 284.2786 Q911.0755 283.7786 911.3099 282.8099 L912.4661 282.8099 Q912.1224 284.1693 911.2005 284.8646 Q910.2786 285.5599 908.763 285.5599 Q906.9505 285.5599 905.8411 284.3568 Q904.7318 283.1536 904.7318 281.1693 Q904.7318 279.2005 905.8177 277.9974 Q906.9036 276.7943 908.6693 276.7943 Q910.5599 276.7943 911.5677 277.9505 Q912.5755 279.1068 912.6068 281.3255 ZM910.9193 280.4974 Q910.8724 279.0443 910.3021 278.3021 Q909.7318 277.5599 908.6693 277.5599 Q907.6849 277.5599 907.1146 278.3021 Q906.5443 279.0443 906.4193 280.4974 L910.9193 280.4974 ZM921.0599 276.9974 L921.0599 279.0755 L920.2318 279.0755 Q920.1849 278.4661 919.8802 278.1614 Q919.5755 277.8568 918.9974 277.8568 Q917.9349 277.8568 917.3646 278.5911 Q916.7943 279.3255 916.7943 280.7005 L916.7943 284.4974 L918.4661 284.4974 L918.4661 285.3255 L914.0599 285.3255 L914.0599 284.4974 L915.3568 284.4974 L915.3568 277.8411 L913.9818 277.8411 L913.9818 277.013 L916.7943 277.013 L916.7943 278.4974 Q917.2161 277.6224 917.8802 277.2083 Q918.5443 276.7943 919.4974 276.7943 Q919.8568 276.7943 920.2396 276.8489 Q920.6224 276.9036 921.0599 276.9974 ZM929.2864 282.8255 Q928.9739 284.1536 928.1068 284.8568 Q927.2396 285.5599 925.8646 285.5599 Q924.0521 285.5599 922.9505 284.3568 Q921.8489 283.1536 921.8489 281.1693 Q921.8489 279.1693 922.9505 277.9818 Q924.0521 276.7943 925.8646 276.7943 Q926.6614 276.7943 927.4427 276.9739 Q928.2239 277.1536 929.0052 277.5286 L929.0052 279.6536 L928.1771 279.6536 Q928.0052 278.5599 927.4583 278.0599 Q926.9114 277.5599 925.8802 277.5599 Q924.7239 277.5599 924.1302 278.4661 Q923.5364 279.3724 923.5364 281.1693 Q923.5364 282.9661 924.1224 283.8724 Q924.7083 284.7786 925.8802 284.7786 Q926.8177 284.7786 927.3724 284.2943 Q927.9271 283.8099 928.1302 282.8255 L929.2864 282.8255 ZM931.5755 274.4349 Q931.5755 274.0755 931.8333 273.8099 Q932.0911 273.5443 932.4661 273.5443 Q932.8255 273.5443 933.0833 273.8099 Q933.3411 274.0755 933.3411 274.4349 Q933.3411 274.8099 933.0833 275.0677 Q932.8255 275.3255 932.4661 275.3255 Q932.0911 275.3255 931.8333 275.0677 Q931.5755 274.8099 931.5755 274.4349 ZM933.4036 284.4974 L934.763 284.4974 L934.763 285.3255 L930.5911 285.3255 L930.5911 284.4974 L931.9661 284.4974 L931.9661 277.8568 L930.5911 277.8568 L930.5911 277.013 L933.4036 277.013 L933.4036 284.4974 ZM943.3646 282.8255 Q943.0521 284.1536 942.1849 284.8568 Q941.3177 285.5599 939.9427 285.5599 Q938.1302 285.5599 937.0286 284.3568 Q935.9271 283.1536 935.9271 281.1693 Q935.9271 279.1693 937.0286 277.9818 Q938.1302 276.7943 939.9427 276.7943 Q940.7396 276.7943 941.5208 276.9739 Q942.3021 277.1536 943.0833 277.5286 L943.0833 279.6536 L942.2552 279.6536 Q942.0833 278.5599 941.5364 278.0599 Q940.9896 277.5599 939.9583 277.5599 Q938.8021 277.5599 938.2083 278.4661 Q937.6146 279.3724 937.6146 281.1693 Q937.6146 282.9661 938.2005 283.8724 Q938.7864 284.7786 939.9583 284.7786 Q940.8958 284.7786 941.4505 284.2943 Q942.0052 283.8099 942.2083 282.8255 L943.3646 282.8255 ZM945.6536 274.4349 Q945.6536 274.0755 945.9114 273.8099 Q946.1693 273.5443 946.5443 273.5443 Q946.9036 273.5443 947.1614 273.8099 Q947.4193 274.0755 947.4193 274.4349 Q947.4193 274.8099 947.1614 275.0677 Q946.9036 275.3255 946.5443 275.3255 Q946.1693 275.3255 945.9114 275.0677 Q945.6536 274.8099 945.6536 274.4349 ZM947.4818 284.4974 L948.8411 284.4974 L948.8411 285.3255 L944.6693 285.3255 L944.6693 284.4974 L946.0443 284.4974 L946.0443 277.8568 L944.6693 277.8568 L944.6693 277.013 L947.4818 277.013 L947.4818 284.4974 ZM954.0208 284.7786 Q955.1771 284.7786 955.7708 283.8646 Q956.3646 282.9505 956.3646 281.1693 Q956.3646 279.388 955.7708 278.4739 Q955.1771 277.5599 954.0208 277.5599 Q952.8646 277.5599 952.2786 278.4739 Q951.6927 279.388 951.6927 281.1693 Q951.6927 282.9505 952.2864 283.8646 Q952.8802 284.7786 954.0208 284.7786 ZM954.0208 285.5599 Q952.2083 285.5599 951.1068 284.3568 Q950.0052 283.1536 950.0052 281.1693 Q950.0052 279.1849 951.1068 277.9896 Q952.2083 276.7943 954.0208 276.7943 Q955.8489 276.7943 956.9427 277.9896 Q958.0364 279.1849 958.0364 281.1693 Q958.0364 283.1536 956.9427 284.3568 Q955.8489 285.5599 954.0208 285.5599 ZM959.7474 284.8568 L959.7474 282.9193 L960.5755 282.9193 Q960.6068 283.8568 961.1536 284.3177 Q961.7005 284.7786 962.7786 284.7786 Q963.7474 284.7786 964.2552 284.4114 Q964.763 284.0443 964.763 283.3568 Q964.763 282.8099 964.3958 282.4739 Q964.0286 282.138 962.8255 281.7474 L961.7943 281.4036 Q960.7161 281.0599 960.2396 280.5443 Q959.763 280.0286 959.763 279.2318 Q959.763 278.0911 960.5989 277.4427 Q961.4349 276.7943 962.9036 276.7943 Q963.5599 276.7943 964.2864 276.9661 Q965.013 277.138 965.7943 277.4661 L965.7943 279.2786 L964.9661 279.2786 Q964.9349 278.4661 964.4036 278.013 Q963.8724 277.5599 962.9505 277.5599 Q962.0443 277.5599 961.5833 277.8802 Q961.1224 278.2005 961.1224 278.8411 Q961.1224 279.3724 961.4739 279.6849 Q961.8255 279.9974 962.8724 280.3255 L964.013 280.6849 Q965.2005 281.0443 965.7161 281.5989 Q966.2318 282.1536 966.2318 283.013 Q966.2318 284.2005 965.3333 284.8802 Q964.4349 285.5599 962.8411 285.5599 Q962.0443 285.5599 961.2786 285.3802 Q960.513 285.2005 959.7474 284.8568 Z" clip-path="url(#clipPath3)" stroke="none"/>
        </g>
      </g>
    </g>
  </g>
</svg>
