<?xml version="1.0" encoding="UTF-8"?><svg xmlns="http://www.w3.org/2000/svg" xmlns:xlink="http://www.w3.org/1999/xlink" fill-opacity="1" color-rendering="auto" color-interpolation="auto" text-rendering="auto" stroke="black" stroke-linecap="square" width="1034" stroke-miterlimit="10" shape-rendering="auto" stroke-opacity="1" fill="black" stroke-dasharray="none" font-weight="normal" stroke-width="1" height="706" font-family="'Dialog'" font-style="normal" stroke-linejoin="miter" font-size="12px" stroke-dashoffset="0" image-rendering="auto">
  <!--Generated by ySVG 2.5-->
  <defs id="genericDefs"/>
  <g>
    <defs id="defs1">
      <clipPath clipPathUnits="userSpaceOnUse" id="clipPath1">
        <path d="M0 0 L1034 0 L1034 706 L0 706 L0 0 Z"/>
      </clipPath>
      <clipPath clipPathUnits="userSpaceOnUse" id="clipPath2">
        <path d="M171 110 L1205 110 L1205 816 L171 816 L171 110 Z"/>
      </clipPath>
      <clipPath clipPathUnits="userSpaceOnUse" id="clipPath3">
        <path d="M804.0928 234.066 L1144.4934 234.066 L1144.4934 293.7705 L804.0928 293.7705 L804.0928 234.066 Z"/>
      </clipPath>
    </defs>
    <g fill="white" text-rendering="geometricPrecision" shape-rendering="geometricPrecision" transform="translate(-171,-110)" stroke="white">
      <rect x="171" width="1034" height="706" y="110" clip-path="url(#clipPath2)" stroke="none"/>
    </g>
    <g id="y.node.0">
      <g fill="white" text-rendering="geometricPrecision" shape-rendering="geometricPrecision" transform="matrix(1,0,0,1,-171,-110)" stroke="white">
        <rect x="258.7896" y="161.5492" width="520.9531" rx="4" ry="4" height="79.7045" stroke="none"/>
      </g>
      <g>
        <g text-rendering="geometricPrecision" stroke-miterlimit="1.45" shape-rendering="geometricPrecision" font-family="'DejaVu Serif'" transform="matrix(1,0,0,1,-171,-110)" stroke-linecap="butt">
          <text x="264.7896" xml:space="preserve" y="184.6026" stroke="none">Usando uname crea un script que muestre tres lineas con el siguiente contenido:</text>
        </g>
        <g text-rendering="geometricPrecision" stroke-miterlimit="1.45" shape-rendering="geometricPrecision" font-family="'DejaVu Serif'" transform="matrix(1,0,0,1,-171,-110)" stroke-linecap="butt">
          <text x="264.7896" xml:space="preserve" y="198.5714" stroke="none">- El nombre de la maquina en la red: &lt;nombre&gt;</text>
          <text x="264.7896" xml:space="preserve" y="212.5401" stroke="none">- El sistema operativo de la maquina: &lt;sistema operativo&gt; </text>
          <text x="264.7896" xml:space="preserve" y="226.5089" stroke="none">- El procesador de la maquina: &lt;procesador&gt;</text>
        </g>
      </g>
      <g stroke-linecap="butt" transform="matrix(1,0,0,1,-171,-110)" fill="gray" text-rendering="geometricPrecision" shape-rendering="geometricPrecision" stroke="gray" stroke-width="2" stroke-miterlimit="1.45">
        <rect x="258.7896" y="161.5492" fill="none" width="520.9531" rx="4" ry="4" height="79.7045"/>
      </g>
    </g>
    <g id="y.node.1">
      <a xlink:href="100-Programas.html">
        <g fill="rgb(255,204,0)" text-rendering="geometricPrecision" shape-rendering="geometricPrecision" transform="matrix(1,0,0,1,-171,-110)" stroke="rgb(255,204,0)">
          <ellipse rx="11.4536" ry="12.1781" cx="237.2661" cy="172.4736" stroke="none"/>
        </g>
        <g>
          <g font-size="14px" stroke-linecap="butt" transform="matrix(1,0,0,1,-171,-110)" text-rendering="geometricPrecision" font-family="'DejaVu Serif'" shape-rendering="geometricPrecision" stroke-miterlimit="1.45">
            <text x="232.8125" xml:space="preserve" y="177.3203" stroke="none">1</text>
          </g>
        </g>
      </a>
    </g>
    <g id="y.node.2">
      <g fill="white" text-rendering="geometricPrecision" shape-rendering="geometricPrecision" transform="matrix(1,0,0,1,-171,-110)" stroke="white">
        <rect x="258.7896" y="250.7388" width="520.9531" rx="4" ry="4" height="49.7045" stroke="none"/>
      </g>
      <g>
        <g text-rendering="geometricPrecision" stroke-miterlimit="1.45" shape-rendering="geometricPrecision" font-family="'DejaVu Serif'" transform="matrix(1,0,0,1,-171,-110)" stroke-linecap="butt">
          <text x="264.7896" xml:space="preserve" y="272.761" stroke="none">Crea un script que hago lo anterior y además muestre al final el tiempo que se ha</text>
          <text x="264.7896" xml:space="preserve" y="286.7297" stroke="none">tardado en calcular. Usa el comando time.</text>
        </g>
      </g>
      <g stroke-linecap="butt" transform="matrix(1,0,0,1,-171,-110)" fill="gray" text-rendering="geometricPrecision" shape-rendering="geometricPrecision" stroke="gray" stroke-width="2" stroke-miterlimit="1.45">
        <rect x="258.7896" y="250.7388" fill="none" width="520.9531" rx="4" ry="4" height="49.7045"/>
      </g>
    </g>
    <g id="y.node.3">
      <a xlink:href="100-Programas.html">
        <g fill="rgb(255,204,0)" text-rendering="geometricPrecision" shape-rendering="geometricPrecision" transform="matrix(1,0,0,1,-171,-110)" stroke="rgb(255,204,0)">
          <ellipse rx="11.4536" ry="12.1781" cx="232.9858" cy="262.9169" stroke="none"/>
        </g>
        <g>
          <g font-size="14px" stroke-linecap="butt" transform="matrix(1,0,0,1,-171,-110)" text-rendering="geometricPrecision" font-family="'DejaVu Serif'" shape-rendering="geometricPrecision" stroke-miterlimit="1.45">
            <text x="228.5322" xml:space="preserve" y="267.7636" stroke="none">2</text>
          </g>
        </g>
      </a>
    </g>
    <g id="y.node.4">
      <g fill="white" text-rendering="geometricPrecision" shape-rendering="geometricPrecision" transform="matrix(1,0,0,1,-171,-110)" stroke="white">
        <rect x="258.7896" y="161.5492" width="520.9531" rx="4" ry="4" height="79.7045" stroke="none"/>
      </g>
      <g>
        <g text-rendering="geometricPrecision" stroke-miterlimit="1.45" shape-rendering="geometricPrecision" font-family="'DejaVu Serif'" transform="matrix(1,0,0,1,-171,-110)" stroke-linecap="butt">
          <text x="264.7896" xml:space="preserve" y="184.6026" stroke="none">Usando uname crea un script que muestre tres lineas con el siguiente contenido:</text>
          <text x="264.7896" xml:space="preserve" y="198.5714" stroke="none">- El nombre de la maquina en la red: &lt;nombre&gt;</text>
          <text x="264.7896" xml:space="preserve" y="212.5401" stroke="none">- El sistema operativo de la maquina: &lt;sistema operativo&gt; </text>
          <text x="264.7896" xml:space="preserve" y="226.5089" stroke="none">- El procesador de la maquina: &lt;procesador&gt;</text>
        </g>
      </g>
      <g stroke-linecap="butt" transform="matrix(1,0,0,1,-171,-110)" fill="gray" text-rendering="geometricPrecision" shape-rendering="geometricPrecision" stroke="gray" stroke-width="2" stroke-miterlimit="1.45">
        <rect x="258.7896" y="161.5492" fill="none" width="520.9531" rx="4" ry="4" height="79.7045"/>
      </g>
    </g>
    <g id="y.node.5">
      <a xlink:href="100-Programas.html">
        <g fill="rgb(255,204,0)" text-rendering="geometricPrecision" shape-rendering="geometricPrecision" transform="matrix(1,0,0,1,-171,-110)" stroke="rgb(255,204,0)">
          <ellipse rx="11.4536" ry="12.1781" cx="237.2661" cy="172.4736" stroke="none"/>
        </g>
        <g>
          <g font-size="14px" stroke-linecap="butt" transform="matrix(1,0,0,1,-171,-110)" text-rendering="geometricPrecision" font-family="'DejaVu Serif'" shape-rendering="geometricPrecision" stroke-miterlimit="1.45">
            <text x="232.8125" xml:space="preserve" y="177.3203" stroke="none">1</text>
          </g>
        </g>
      </a>
    </g>
    <g id="y.node.6">
      <g fill="white" text-rendering="geometricPrecision" shape-rendering="geometricPrecision" transform="matrix(1,0,0,1,-171,-110)" stroke="white">
        <rect x="258.7896" y="250.7388" width="520.9531" rx="4" ry="4" height="49.7045" stroke="none"/>
      </g>
      <g>
        <g text-rendering="geometricPrecision" stroke-miterlimit="1.45" shape-rendering="geometricPrecision" font-family="'DejaVu Serif'" transform="matrix(1,0,0,1,-171,-110)" stroke-linecap="butt">
          <text x="264.7896" xml:space="preserve" y="272.761" stroke="none">Crea un script que hago lo anterior y además muestre al final el tiempo que se ha</text>
          <text x="264.7896" xml:space="preserve" y="286.7297" stroke="none">tardado en calcular. Usa el comando time.</text>
        </g>
      </g>
      <g stroke-linecap="butt" transform="matrix(1,0,0,1,-171,-110)" fill="gray" text-rendering="geometricPrecision" shape-rendering="geometricPrecision" stroke="gray" stroke-width="2" stroke-miterlimit="1.45">
        <rect x="258.7896" y="250.7388" fill="none" width="520.9531" rx="4" ry="4" height="49.7045"/>
      </g>
    </g>
    <g id="y.node.7">
      <a xlink:href="100-Programas.html">
        <g fill="rgb(255,204,0)" text-rendering="geometricPrecision" shape-rendering="geometricPrecision" transform="matrix(1,0,0,1,-171,-110)" stroke="rgb(255,204,0)">
          <ellipse rx="11.4536" ry="12.1781" cx="232.9858" cy="262.9169" stroke="none"/>
        </g>
        <g>
          <g font-size="14px" stroke-linecap="butt" transform="matrix(1,0,0,1,-171,-110)" text-rendering="geometricPrecision" font-family="'DejaVu Serif'" shape-rendering="geometricPrecision" stroke-miterlimit="1.45">
            <text x="228.5322" xml:space="preserve" y="267.7636" stroke="none">2</text>
          </g>
        </g>
      </a>
    </g>
    <g id="y.node.8">
      <g fill="white" text-rendering="geometricPrecision" shape-rendering="geometricPrecision" transform="matrix(1,0,0,1,-171,-110)" stroke="white">
        <rect x="258.7896" y="309.9285" width="520.9531" rx="4" ry="4" height="49.7045" stroke="none"/>
      </g>
      <g>
        <g text-rendering="geometricPrecision" stroke-miterlimit="1.45" shape-rendering="geometricPrecision" font-family="'DejaVu Serif'" transform="matrix(1,0,0,1,-171,-110)" stroke-linecap="butt">
          <text x="264.7896" xml:space="preserve" y="331.9506" stroke="none">Usando top crea un script que muestre el PID de un proceso cuyo nombre se pasa </text>
          <text x="264.7896" xml:space="preserve" y="345.9194" stroke="none">por parametros al script.</text>
        </g>
      </g>
      <g stroke-linecap="butt" transform="matrix(1,0,0,1,-171,-110)" fill="gray" text-rendering="geometricPrecision" shape-rendering="geometricPrecision" stroke="gray" stroke-width="2" stroke-miterlimit="1.45">
        <rect x="258.7896" y="309.9285" fill="none" width="520.9531" rx="4" ry="4" height="49.7045"/>
      </g>
    </g>
    <g id="y.node.9">
      <a xlink:href="100-Programas.html">
        <g fill="rgb(255,204,0)" text-rendering="geometricPrecision" shape-rendering="geometricPrecision" transform="matrix(1,0,0,1,-171,-110)" stroke="rgb(255,204,0)">
          <ellipse rx="11.4536" ry="12.1781" cx="232.9858" cy="322.1066" stroke="none"/>
        </g>
        <g>
          <g font-size="14px" stroke-linecap="butt" transform="matrix(1,0,0,1,-171,-110)" text-rendering="geometricPrecision" font-family="'DejaVu Serif'" shape-rendering="geometricPrecision" stroke-miterlimit="1.45">
            <text x="228.5322" xml:space="preserve" y="326.9532" stroke="none">3</text>
          </g>
        </g>
      </a>
    </g>
    <g id="y.node.10">
      <g fill="rgb(255,255,153)" text-rendering="geometricPrecision" shape-rendering="geometricPrecision" transform="matrix(1,0,0,1,-171,-110)" stroke="rgb(255,255,153)">
        <path d="M794.0928 309.9285 L983.1929 309.9285 L983.1929 324.9285 L998.1929 324.9285 L998.1929 359.6329 L794.0928 359.6329 Z" stroke="none"/>
        <path fill="white" d="M983.1929 309.9285 L983.1929 324.9285 L998.1929 324.9285 Z" fill-rule="evenodd" stroke="none"/>
      </g>
      <g text-rendering="geometricPrecision" stroke-miterlimit="1.45" shape-rendering="geometricPrecision" transform="matrix(1,0,0,1,-171,-110)" stroke-linecap="butt">
        <path fill="none" d="M794.0928 309.9285 L983.1929 309.9285 L983.1929 324.9285 L998.1929 324.9285 L998.1929 359.6329 L794.0928 359.6329 Z"/>
        <path fill="none" d="M983.1929 309.9285 L983.1929 324.9285 L998.1929 324.9285 Z" fill-rule="evenodd"/>
      </g>
      <g>
        <g font-size="10px" stroke-linecap="butt" transform="matrix(1,0,0,1,-171,-110)" text-rendering="geometricPrecision" font-family="sans-serif" shape-rendering="geometricPrecision" stroke-miterlimit="1.45">
          <text x="817.8983" xml:space="preserve" y="320.7817" stroke="none">Te harán falta los comandos:</text>
          <text x="817.8983" xml:space="preserve" y="332.4223" stroke="none">grep, cut y tr</text>
          <text x="817.8983" xml:space="preserve" y="344.0629" stroke="none">Además de las opciones -b y -n</text>
          <text x="817.8983" xml:space="preserve" y="355.7036" stroke="none">de top</text>
        </g>
      </g>
    </g>
    <g id="y.node.11">
      <g fill="white" text-rendering="geometricPrecision" shape-rendering="geometricPrecision" transform="matrix(1,0,0,1,-171,-110)" stroke="white">
        <rect x="258.7896" y="369.1181" width="520.9531" rx="4" ry="4" height="49.7045" stroke="none"/>
      </g>
      <g>
        <g text-rendering="geometricPrecision" stroke-miterlimit="1.45" shape-rendering="geometricPrecision" font-family="'DejaVu Serif'" transform="matrix(1,0,0,1,-171,-110)" stroke-linecap="butt">
          <text x="264.7896" xml:space="preserve" y="391.1403" stroke="none">Usando el script anterior y el comando kill crea un script que mate un proceso</text>
          <text x="264.7896" xml:space="preserve" y="405.109" stroke="none">cuyo nombre se inserta por parametros.</text>
        </g>
      </g>
      <g stroke-linecap="butt" transform="matrix(1,0,0,1,-171,-110)" fill="gray" text-rendering="geometricPrecision" shape-rendering="geometricPrecision" stroke="gray" stroke-width="2" stroke-miterlimit="1.45">
        <rect x="258.7896" y="369.1181" fill="none" width="520.9531" rx="4" ry="4" height="49.7045"/>
      </g>
    </g>
    <g id="y.node.12">
      <a xlink:href="100-Programas.html">
        <g fill="rgb(255,204,0)" text-rendering="geometricPrecision" shape-rendering="geometricPrecision" transform="matrix(1,0,0,1,-171,-110)" stroke="rgb(255,204,0)">
          <ellipse rx="11.4536" ry="12.1781" cx="232.9858" cy="381.2962" stroke="none"/>
        </g>
        <g>
          <g font-size="14px" stroke-linecap="butt" transform="matrix(1,0,0,1,-171,-110)" text-rendering="geometricPrecision" font-family="'DejaVu Serif'" shape-rendering="geometricPrecision" stroke-miterlimit="1.45">
            <text x="228.5322" xml:space="preserve" y="386.1429" stroke="none">4</text>
          </g>
        </g>
      </a>
    </g>
    <g id="y.node.13">
      <g fill="rgb(255,255,153)" text-rendering="geometricPrecision" shape-rendering="geometricPrecision" transform="matrix(1,0,0,1,-171,-110)" stroke="rgb(255,255,153)">
        <path d="M794.0928 369.1181 L1106.193 369.1181 L1106.193 384.1181 L1121.193 384.1181 L1121.193 418.8226 L794.0928 418.8226 Z" stroke="none"/>
        <path fill="white" d="M1106.193 369.1181 L1106.193 384.1181 L1121.193 384.1181 Z" fill-rule="evenodd" stroke="none"/>
      </g>
      <g text-rendering="geometricPrecision" stroke-miterlimit="1.45" shape-rendering="geometricPrecision" transform="matrix(1,0,0,1,-171,-110)" stroke-linecap="butt">
        <path fill="none" d="M794.0928 369.1181 L1106.193 369.1181 L1106.193 384.1181 L1121.193 384.1181 L1121.193 418.8226 L794.0928 418.8226 Z"/>
        <path fill="none" d="M1106.193 369.1181 L1106.193 384.1181 L1121.193 384.1181 Z" fill-rule="evenodd"/>
      </g>
      <g>
        <g font-size="10px" stroke-linecap="butt" transform="matrix(1,0,0,1,-171,-110)" text-rendering="geometricPrecision" font-family="sans-serif" shape-rendering="geometricPrecision" stroke-miterlimit="1.45">
          <text x="820.3358" xml:space="preserve" y="385.7916" stroke="none">Te puede hacer falta asignar la salida de una tuberia a</text>
          <text x="820.3358" xml:space="preserve" y="397.4323" stroke="none">una variable de la siguiente forma:</text>
          <text x="820.3358" xml:space="preserve" y="409.0729" stroke="none">miVariable = $( comando | comando | comando )</text>
        </g>
      </g>
    </g>
    <g id="y.node.14">
      <g fill="white" text-rendering="geometricPrecision" shape-rendering="geometricPrecision" transform="matrix(1,0,0,1,-171,-110)" stroke="white">
        <rect x="258.7896" y="428.3078" width="520.9531" rx="4" ry="4" height="30.7045" stroke="none"/>
      </g>
      <g>
        <g text-rendering="geometricPrecision" stroke-miterlimit="1.45" shape-rendering="geometricPrecision" font-family="'DejaVu Serif'" transform="matrix(1,0,0,1,-171,-110)" stroke-linecap="butt">
          <text x="264.7896" xml:space="preserve" y="447.8143" stroke="none">Haz un script analogo al anterior, pero en vez de usar top usa el comando ps</text>
        </g>
      </g>
      <g stroke-linecap="butt" transform="matrix(1,0,0,1,-171,-110)" fill="gray" text-rendering="geometricPrecision" shape-rendering="geometricPrecision" stroke="gray" stroke-width="2" stroke-miterlimit="1.45">
        <rect x="258.7896" y="428.3078" fill="none" width="520.9531" rx="4" ry="4" height="30.7045"/>
      </g>
    </g>
    <g id="y.node.15">
      <a xlink:href="100-Programas.html">
        <g fill="rgb(255,204,0)" text-rendering="geometricPrecision" shape-rendering="geometricPrecision" transform="matrix(1,0,0,1,-171,-110)" stroke="rgb(255,204,0)">
          <ellipse rx="11.4536" ry="12.1781" cx="232.9858" cy="440.4858" stroke="none"/>
        </g>
        <g>
          <g font-size="14px" stroke-linecap="butt" transform="matrix(1,0,0,1,-171,-110)" text-rendering="geometricPrecision" font-family="'DejaVu Serif'" shape-rendering="geometricPrecision" stroke-miterlimit="1.45">
            <text x="228.5322" xml:space="preserve" y="445.3325" stroke="none">5</text>
          </g>
        </g>
      </a>
    </g>
    <g id="y.node.16">
      <g fill="white" text-rendering="geometricPrecision" shape-rendering="geometricPrecision" transform="matrix(1,0,0,1,-171,-110)" stroke="white">
        <rect x="258.7896" y="468.4974" width="520.9531" rx="4" ry="4" height="79.7045" stroke="none"/>
      </g>
      <g>
        <g text-rendering="geometricPrecision" stroke-miterlimit="1.45" shape-rendering="geometricPrecision" font-family="'DejaVu Serif'" transform="matrix(1,0,0,1,-171,-110)" stroke-linecap="butt">
          <text x="264.7896" xml:space="preserve" y="491.5508" stroke="none">Modifica el script anterior para que se introduzca como segundo parametro el </text>
          <text x="264.7896" xml:space="preserve" y="505.5196" stroke="none">usuario que lanzó el proceso, de forma que solo se mata el proceso de ese usuario.</text>
          <text x="264.7896" xml:space="preserve" y="519.4883" stroke="none">Prueba este script abriendo dos terminales con usuarios distintos y ejecutando el</text>
          <text x="264.7896" xml:space="preserve" y="533.457" stroke="none">mismo proceso ( por ejemplo nano ), después mata uno de ellos.</text>
        </g>
      </g>
      <g stroke-linecap="butt" transform="matrix(1,0,0,1,-171,-110)" fill="gray" text-rendering="geometricPrecision" shape-rendering="geometricPrecision" stroke="gray" stroke-width="2" stroke-miterlimit="1.45">
        <rect x="258.7896" y="468.4974" fill="none" width="520.9531" rx="4" ry="4" height="79.7045"/>
      </g>
    </g>
    <g id="y.node.17">
      <a xlink:href="100-Programas.html">
        <g fill="rgb(255,204,0)" text-rendering="geometricPrecision" shape-rendering="geometricPrecision" transform="matrix(1,0,0,1,-171,-110)" stroke="rgb(255,204,0)">
          <ellipse rx="11.4536" ry="12.1781" cx="232.9858" cy="480.6755" stroke="none"/>
        </g>
        <g>
          <g font-size="14px" stroke-linecap="butt" transform="matrix(1,0,0,1,-171,-110)" text-rendering="geometricPrecision" font-family="'DejaVu Serif'" shape-rendering="geometricPrecision" stroke-miterlimit="1.45">
            <text x="228.5322" xml:space="preserve" y="485.5222" stroke="none">6</text>
          </g>
        </g>
      </a>
    </g>
    <g id="y.node.18">
      <g fill="white" text-rendering="geometricPrecision" shape-rendering="geometricPrecision" transform="matrix(1,0,0,1,-171,-110)" stroke="white">
        <rect x="258.7896" y="557.687" width="520.9531" rx="4" ry="4" height="79.7045" stroke="none"/>
      </g>
      <g>
        <g text-rendering="geometricPrecision" stroke-miterlimit="1.45" shape-rendering="geometricPrecision" font-family="'DejaVu Serif'" transform="matrix(1,0,0,1,-171,-110)" stroke-linecap="butt">
          <text x="264.7896" xml:space="preserve" y="573.756" stroke="none">Crea una red interna con una maquina WinXP ( con SSH Server ) y ubuntuServer.</text>
          <text x="264.7896" xml:space="preserve" y="587.7248" stroke="none">En la maquina virtual WinXP pon un archivo grande, de mas de alrededor 500MB</text>
          <text x="264.7896" xml:space="preserve" y="601.6935" stroke="none">a uno de ellos. Desde ubuntuServer descargate el fichero mediante SCP. </text>
          <text x="264.7896" xml:space="preserve" y="615.6623" stroke="none">Mientras se descarga abre otro terminal en la maquina ubuntu y usa iftop para </text>
          <text x="264.7896" xml:space="preserve" y="629.631" stroke="none">ver la tasa de transferencia.</text>
        </g>
      </g>
      <g stroke-linecap="butt" transform="matrix(1,0,0,1,-171,-110)" fill="gray" text-rendering="geometricPrecision" shape-rendering="geometricPrecision" stroke="gray" stroke-width="2" stroke-miterlimit="1.45">
        <rect x="258.7896" y="557.687" fill="none" width="520.9531" rx="4" ry="4" height="79.7045"/>
      </g>
    </g>
    <g id="y.node.19">
      <a xlink:href="100-Programas.html">
        <g fill="rgb(255,204,0)" text-rendering="geometricPrecision" shape-rendering="geometricPrecision" transform="matrix(1,0,0,1,-171,-110)" stroke="rgb(255,204,0)">
          <ellipse rx="11.4536" ry="12.1781" cx="232.9858" cy="569.8651" stroke="none"/>
        </g>
        <g>
          <g font-size="14px" stroke-linecap="butt" transform="matrix(1,0,0,1,-171,-110)" text-rendering="geometricPrecision" font-family="'DejaVu Serif'" shape-rendering="geometricPrecision" stroke-miterlimit="1.45">
            <text x="228.5322" xml:space="preserve" y="574.7118" stroke="none">7</text>
          </g>
        </g>
      </a>
    </g>
    <g id="y.node.20">
      <g>
        <g stroke-linecap="butt" font-size="24px" transform="matrix(1,0,0,1,-171,-110)" fill="white" text-rendering="geometricPrecision" font-family="sans-serif" shape-rendering="geometricPrecision" stroke="white" stroke-miterlimit="1.45">
          <text x="890.3228" xml:space="preserve" y="486.9564" stroke="none">Scrum</text>
        </g>
      </g>
      <g stroke-linecap="butt" transform="matrix(1,0,0,1,-171,-110)" fill="white" text-rendering="geometricPrecision" shape-rendering="geometricPrecision" stroke="white" stroke-miterlimit="1.45">
        <rect x="883.3228" y="454.4399" fill="none" width="90.8867" rx="4" ry="4" height="48.4157"/>
      </g>
    </g>
    <g id="y.node.21">
      <g fill="rgb(204,153,255)" text-rendering="geometricPrecision" shape-rendering="geometricPrecision" transform="matrix(1,0,0,1,-171,-110)" stroke="rgb(204,153,255)">
        <path d="M794.0928 224.066 L1139.4934 224.066 L1139.4934 239.066 L1154.4934 239.066 L1154.4934 303.7705 L794.0928 303.7705 Z" stroke="none"/>
        <path fill="white" d="M1139.4934 224.066 L1139.4934 239.066 L1154.4934 239.066 Z" fill-rule="evenodd" stroke="none"/>
      </g>
      <g text-rendering="geometricPrecision" stroke-miterlimit="1.45" shape-rendering="geometricPrecision" transform="matrix(1,0,0,1,-171,-110)" stroke-linecap="butt">
        <path fill="none" d="M794.0928 224.066 L1139.4934 224.066 L1139.4934 239.066 L1154.4934 239.066 L1154.4934 303.7705 L794.0928 303.7705 Z"/>
        <path fill="none" d="M1139.4934 224.066 L1139.4934 239.066 L1154.4934 239.066 Z" fill-rule="evenodd"/>
      </g>
      <g>
        <g text-rendering="geometricPrecision" shape-rendering="geometricPrecision" transform="matrix(1,0,0,1,-171,-110)">
          <path d="M805.1084 242.6109 L805.1084 238.6422 L806.1865 238.6422 L806.1865 242.5797 Q806.1865 243.5016 806.5537 243.9703 Q806.9209 244.4391 807.6396 244.4391 Q808.5146 244.4391 809.0225 243.8844 Q809.5303 243.3297 809.5303 242.3609 L809.5303 238.6422 L810.6084 238.6422 L810.6084 245.2047 L809.5303 245.2047 L809.5303 244.1891 Q809.1396 244.7984 808.624 245.0875 Q808.1084 245.3766 807.4209 245.3766 Q806.2803 245.3766 805.6943 244.6734 Q805.1084 243.9703 805.1084 242.6109 ZM817.0107 238.8297 L817.0107 239.8609 Q816.5576 239.6266 816.0654 239.5094 Q815.5732 239.3922 815.042 239.3922 Q814.2451 239.3922 813.8389 239.6344 Q813.4326 239.8766 813.4326 240.3766 Q813.4326 240.7516 813.7217 240.9625 Q814.0107 241.1734 814.8857 241.3609 L815.2451 241.4547 Q816.4014 241.6891 816.8857 242.1422 Q817.3701 242.5953 817.3701 243.3922 Q817.3701 244.3141 816.6436 244.8453 Q815.917 245.3766 814.6514 245.3766 Q814.1201 245.3766 813.5498 245.275 Q812.9795 245.1734 812.3545 244.9703 L812.3545 243.8453 Q812.9482 244.1578 813.5264 244.3141 Q814.1045 244.4703 814.6826 244.4703 Q815.4326 244.4703 815.8467 244.2125 Q816.2607 243.9547 816.2607 243.4703 Q816.2607 243.0328 815.9639 242.7984 Q815.667 242.5641 814.667 242.3453 L814.292 242.2672 Q813.292 242.0484 812.8467 241.6109 Q812.4014 241.1734 812.4014 240.4234 Q812.4014 239.4859 813.0576 238.9859 Q813.7139 238.4859 814.917 238.4859 Q815.5107 238.4859 816.042 238.5719 Q816.5732 238.6578 817.0107 238.8297 ZM822.0596 241.9078 Q820.7627 241.9078 820.2549 242.2047 Q819.7471 242.5016 819.7471 243.2203 Q819.7471 243.7984 820.1299 244.1344 Q820.5127 244.4703 821.1533 244.4703 Q822.0596 244.4703 822.5986 243.8375 Q823.1377 243.2047 823.1377 242.1422 L823.1377 241.9078 L822.0596 241.9078 ZM824.2158 241.4547 L824.2158 245.2047 L823.1377 245.2047 L823.1377 244.2047 Q822.7627 244.7984 822.2158 245.0875 Q821.6689 245.3766 820.8721 245.3766 Q819.8564 245.3766 819.2627 244.8063 Q818.6689 244.2359 818.6689 243.2984 Q818.6689 242.1891 819.4111 241.6266 Q820.1533 241.0641 821.6221 241.0641 L823.1377 241.0641 L823.1377 240.9547 Q823.1377 240.2047 822.6455 239.7984 Q822.1533 239.3922 821.2783 239.3922 Q820.7158 239.3922 820.1768 239.5328 Q819.6377 239.6734 819.1533 239.9391 L819.1533 238.9391 Q819.7471 238.7047 820.3018 238.5953 Q820.8564 238.4859 821.3877 238.4859 Q822.8096 238.4859 823.5127 239.2203 Q824.2158 239.9547 824.2158 241.4547 ZM831.3213 236.7828 L831.3213 238.6422 L833.54 238.6422 L833.54 239.4859 L831.3213 239.4859 L831.3213 243.0484 Q831.3213 243.8453 831.54 244.0719 Q831.7588 244.2984 832.4307 244.2984 L833.54 244.2984 L833.54 245.2047 L832.4307 245.2047 Q831.1807 245.2047 830.7041 244.7359 Q830.2275 244.2672 830.2275 243.0484 L830.2275 239.4859 L829.4463 239.4859 L829.4463 238.6422 L830.2275 238.6422 L830.2275 236.7828 L831.3213 236.7828 ZM834.9482 238.6422 L836.0264 238.6422 L836.0264 245.2047 L834.9482 245.2047 L834.9482 238.6422 ZM834.9482 236.0797 L836.0264 236.0797 L836.0264 237.4547 L834.9482 237.4547 L834.9482 236.0797 ZM843.3916 239.9078 Q843.7979 239.1734 844.3604 238.8297 Q844.9229 238.4859 845.6885 238.4859 Q846.7197 238.4859 847.2744 239.2047 Q847.8291 239.9234 847.8291 241.2359 L847.8291 245.2047 L846.751 245.2047 L846.751 241.2828 Q846.751 240.3297 846.415 239.8766 Q846.0791 239.4234 845.3916 239.4234 Q844.5479 239.4234 844.0635 239.9781 Q843.5791 240.5328 843.5791 241.5016 L843.5791 245.2047 L842.501 245.2047 L842.501 241.2828 Q842.501 240.3297 842.165 239.8766 Q841.8291 239.4234 841.126 239.4234 Q840.2979 239.4234 839.8135 239.9781 Q839.3291 240.5328 839.3291 241.5016 L839.3291 245.2047 L838.251 245.2047 L838.251 238.6422 L839.3291 238.6422 L839.3291 239.6578 Q839.7041 239.0641 840.2197 238.775 Q840.7354 238.4859 841.4385 238.4859 Q842.1572 238.4859 842.6572 238.8453 Q843.1572 239.2047 843.3916 239.9078 ZM855.5967 241.6578 L855.5967 242.1734 L850.6279 242.1734 Q850.7061 243.2984 851.3076 243.8766 Q851.9092 244.4547 852.9717 244.4547 Q853.5967 244.4547 854.1826 244.3063 Q854.7686 244.1578 855.3467 243.8453 L855.3467 244.8766 Q854.7529 245.1109 854.1436 245.2438 Q853.5342 245.3766 852.9092 245.3766 Q851.3467 245.3766 850.4248 244.4625 Q849.5029 243.5484 849.5029 241.9859 Q849.5029 240.3766 850.3779 239.4313 Q851.2529 238.4859 852.7217 238.4859 Q854.0498 238.4859 854.8232 239.3375 Q855.5967 240.1891 855.5967 241.6578 ZM854.5186 241.3297 Q854.5029 240.4547 854.0186 239.9234 Q853.5342 239.3922 852.7373 239.3922 Q851.8311 239.3922 851.292 239.9078 Q850.7529 240.4234 850.6748 241.3453 L854.5186 241.3297 ZM862.2158 244.2203 L862.2158 247.7047 L861.1377 247.7047 L861.1377 238.6422 L862.2158 238.6422 L862.2158 239.6422 Q862.5596 239.0484 863.0752 238.7672 Q863.5908 238.4859 864.3096 238.4859 Q865.5127 238.4859 866.2627 239.4313 Q867.0127 240.3766 867.0127 241.9234 Q867.0127 243.4703 866.2627 244.4234 Q865.5127 245.3766 864.3096 245.3766 Q863.5908 245.3766 863.0752 245.0875 Q862.5596 244.7984 862.2158 244.2203 ZM865.8877 241.9234 Q865.8877 240.7359 865.3955 240.0641 Q864.9033 239.3922 864.0596 239.3922 Q863.2002 239.3922 862.708 240.0641 Q862.2158 240.7359 862.2158 241.9234 Q862.2158 243.1109 862.708 243.7906 Q863.2002 244.4703 864.0596 244.4703 Q864.9033 244.4703 865.3955 243.7906 Q865.8877 243.1109 865.8877 241.9234 ZM871.7705 241.9078 Q870.4736 241.9078 869.9658 242.2047 Q869.458 242.5016 869.458 243.2203 Q869.458 243.7984 869.8408 244.1344 Q870.2236 244.4703 870.8643 244.4703 Q871.7705 244.4703 872.3096 243.8375 Q872.8486 243.2047 872.8486 242.1422 L872.8486 241.9078 L871.7705 241.9078 ZM873.9268 241.4547 L873.9268 245.2047 L872.8486 245.2047 L872.8486 244.2047 Q872.4736 244.7984 871.9268 245.0875 Q871.3799 245.3766 870.583 245.3766 Q869.5674 245.3766 868.9736 244.8063 Q868.3799 244.2359 868.3799 243.2984 Q868.3799 242.1891 869.1221 241.6266 Q869.8643 241.0641 871.333 241.0641 L872.8486 241.0641 L872.8486 240.9547 Q872.8486 240.2047 872.3564 239.7984 Q871.8643 239.3922 870.9893 239.3922 Q870.4268 239.3922 869.8877 239.5328 Q869.3486 239.6734 868.8643 239.9391 L868.8643 238.9391 Q869.458 238.7047 870.0127 238.5953 Q870.5674 238.4859 871.0986 238.4859 Q872.5205 238.4859 873.2236 239.2203 Q873.9268 239.9547 873.9268 241.4547 ZM879.9521 239.6422 Q879.7646 239.5484 879.5537 239.4938 Q879.3428 239.4391 879.0771 239.4391 Q878.1709 239.4391 877.6787 240.0328 Q877.1865 240.6266 877.1865 241.7516 L877.1865 245.2047 L876.1084 245.2047 L876.1084 238.6422 L877.1865 238.6422 L877.1865 239.6578 Q877.5303 239.0641 878.0771 238.775 Q878.624 238.4859 879.4053 238.4859 Q879.5146 238.4859 879.6475 238.5016 Q879.7803 238.5172 879.9365 238.5484 L879.9521 239.6422 ZM884.0576 241.9078 Q882.7607 241.9078 882.2529 242.2047 Q881.7451 242.5016 881.7451 243.2203 Q881.7451 243.7984 882.1279 244.1344 Q882.5107 244.4703 883.1514 244.4703 Q884.0576 244.4703 884.5967 243.8375 Q885.1357 243.2047 885.1357 242.1422 L885.1357 241.9078 L884.0576 241.9078 ZM886.2139 241.4547 L886.2139 245.2047 L885.1357 245.2047 L885.1357 244.2047 Q884.7607 244.7984 884.2139 245.0875 Q883.667 245.3766 882.8701 245.3766 Q881.8545 245.3766 881.2607 244.8063 Q880.667 244.2359 880.667 243.2984 Q880.667 242.1891 881.4092 241.6266 Q882.1514 241.0641 883.6201 241.0641 L885.1357 241.0641 L885.1357 240.9547 Q885.1357 240.2047 884.6436 239.7984 Q884.1514 239.3922 883.2764 239.3922 Q882.7139 239.3922 882.1748 239.5328 Q881.6357 239.6734 881.1514 239.9391 L881.1514 238.9391 Q881.7451 238.7047 882.2998 238.5953 Q882.8545 238.4859 883.3857 238.4859 Q884.8076 238.4859 885.5107 239.2203 Q886.2139 239.9547 886.2139 241.4547 ZM896.4287 238.8297 L896.4287 239.8609 Q895.9756 239.6266 895.4834 239.5094 Q894.9912 239.3922 894.46 239.3922 Q893.6631 239.3922 893.2568 239.6344 Q892.8506 239.8766 892.8506 240.3766 Q892.8506 240.7516 893.1396 240.9625 Q893.4287 241.1734 894.3037 241.3609 L894.6631 241.4547 Q895.8193 241.6891 896.3037 242.1422 Q896.7881 242.5953 896.7881 243.3922 Q896.7881 244.3141 896.0615 244.8453 Q895.335 245.3766 894.0693 245.3766 Q893.5381 245.3766 892.9678 245.275 Q892.3975 245.1734 891.7725 244.9703 L891.7725 243.8453 Q892.3662 244.1578 892.9443 244.3141 Q893.5225 244.4703 894.1006 244.4703 Q894.8506 244.4703 895.2646 244.2125 Q895.6787 243.9547 895.6787 243.4703 Q895.6787 243.0328 895.3818 242.7984 Q895.085 242.5641 894.085 242.3453 L893.71 242.2672 Q892.71 242.0484 892.2646 241.6109 Q891.8193 241.1734 891.8193 240.4234 Q891.8193 239.4859 892.4756 238.9859 Q893.1318 238.4859 894.335 238.4859 Q894.9287 238.4859 895.46 238.5719 Q895.9912 238.6578 896.4287 238.8297 ZM901.4775 241.9078 Q900.1807 241.9078 899.6729 242.2047 Q899.165 242.5016 899.165 243.2203 Q899.165 243.7984 899.5479 244.1344 Q899.9307 244.4703 900.5713 244.4703 Q901.4775 244.4703 902.0166 243.8375 Q902.5557 243.2047 902.5557 242.1422 L902.5557 241.9078 L901.4775 241.9078 ZM903.6338 241.4547 L903.6338 245.2047 L902.5557 245.2047 L902.5557 244.2047 Q902.1807 244.7984 901.6338 245.0875 Q901.0869 245.3766 900.29 245.3766 Q899.2744 245.3766 898.6807 244.8063 Q898.0869 244.2359 898.0869 243.2984 Q898.0869 242.1891 898.8291 241.6266 Q899.5713 241.0641 901.04 241.0641 L902.5557 241.0641 L902.5557 240.9547 Q902.5557 240.2047 902.0635 239.7984 Q901.5713 239.3922 900.6963 239.3922 Q900.1338 239.3922 899.5947 239.5328 Q899.0557 239.6734 898.5713 239.9391 L898.5713 238.9391 Q899.165 238.7047 899.7197 238.5953 Q900.2744 238.4859 900.8057 238.4859 Q902.2275 238.4859 902.9307 239.2203 Q903.6338 239.9547 903.6338 241.4547 ZM910.5654 241.9234 Q910.5654 240.7359 910.0732 240.0641 Q909.5811 239.3922 908.7373 239.3922 Q907.8779 239.3922 907.3857 240.0641 Q906.8936 240.7359 906.8936 241.9234 Q906.8936 243.1109 907.3857 243.7906 Q907.8779 244.4703 908.7373 244.4703 Q909.5811 244.4703 910.0732 243.7906 Q910.5654 243.1109 910.5654 241.9234 ZM906.8936 239.6422 Q907.2373 239.0484 907.7529 238.7672 Q908.2686 238.4859 908.9873 238.4859 Q910.1904 238.4859 910.9404 239.4313 Q911.6904 240.3766 911.6904 241.9234 Q911.6904 243.4703 910.9404 244.4234 Q910.1904 245.3766 908.9873 245.3766 Q908.2686 245.3766 907.7529 245.0875 Q907.2373 244.7984 906.8936 244.2203 L906.8936 245.2047 L905.8154 245.2047 L905.8154 236.0797 L906.8936 236.0797 L906.8936 239.6422 ZM919.0889 241.6578 L919.0889 242.1734 L914.1201 242.1734 Q914.1982 243.2984 914.7998 243.8766 Q915.4014 244.4547 916.4639 244.4547 Q917.0889 244.4547 917.6748 244.3063 Q918.2607 244.1578 918.8389 243.8453 L918.8389 244.8766 Q918.2451 245.1109 917.6357 245.2438 Q917.0264 245.3766 916.4014 245.3766 Q914.8389 245.3766 913.917 244.4625 Q912.9951 243.5484 912.9951 241.9859 Q912.9951 240.3766 913.8701 239.4313 Q914.7451 238.4859 916.2139 238.4859 Q917.542 238.4859 918.3154 239.3375 Q919.0889 240.1891 919.0889 241.6578 ZM918.0107 241.3297 Q917.9951 240.4547 917.5107 239.9234 Q917.0264 239.3922 916.2295 239.3922 Q915.3232 239.3922 914.7842 239.9078 Q914.2451 240.4234 914.167 241.3453 L918.0107 241.3297 ZM924.6592 239.6422 Q924.4717 239.5484 924.2607 239.4938 Q924.0498 239.4391 923.7842 239.4391 Q922.8779 239.4391 922.3857 240.0328 Q921.8936 240.6266 921.8936 241.7516 L921.8936 245.2047 L920.8154 245.2047 L920.8154 238.6422 L921.8936 238.6422 L921.8936 239.6578 Q922.2373 239.0641 922.7842 238.775 Q923.3311 238.4859 924.1123 238.4859 Q924.2217 238.4859 924.3545 238.5016 Q924.4873 238.5172 924.6436 238.5484 L924.6592 239.6422 ZM934.3291 238.8922 L934.3291 239.9078 Q933.8604 239.6422 933.4072 239.5172 Q932.9541 239.3922 932.4854 239.3922 Q931.4229 239.3922 930.8447 240.0563 Q930.2666 240.7203 930.2666 241.9234 Q930.2666 243.1266 930.8447 243.7906 Q931.4229 244.4547 932.4854 244.4547 Q932.9541 244.4547 933.4072 244.3297 Q933.8604 244.2047 934.3291 243.9547 L934.3291 244.9547 Q933.876 245.1578 933.3916 245.2672 Q932.9072 245.3766 932.3604 245.3766 Q930.876 245.3766 930.001 244.4469 Q929.126 243.5172 929.126 241.9234 Q929.126 240.3297 930.0088 239.4078 Q930.8916 238.4859 932.4385 238.4859 Q932.9229 238.4859 933.3994 238.5875 Q933.876 238.6891 934.3291 238.8922 ZM936.083 242.6109 L936.083 238.6422 L937.1611 238.6422 L937.1611 242.5797 Q937.1611 243.5016 937.5283 243.9703 Q937.8955 244.4391 938.6143 244.4391 Q939.4893 244.4391 939.9971 243.8844 Q940.5049 243.3297 940.5049 242.3609 L940.5049 238.6422 L941.583 238.6422 L941.583 245.2047 L940.5049 245.2047 L940.5049 244.1891 Q940.1143 244.7984 939.5986 245.0875 Q939.083 245.3766 938.3955 245.3766 Q937.2549 245.3766 936.6689 244.6734 Q936.083 243.9703 936.083 242.6109 ZM946.7822 241.9078 Q945.4854 241.9078 944.9775 242.2047 Q944.4697 242.5016 944.4697 243.2203 Q944.4697 243.7984 944.8525 244.1344 Q945.2354 244.4703 945.876 244.4703 Q946.7822 244.4703 947.3213 243.8375 Q947.8604 243.2047 947.8604 242.1422 L947.8604 241.9078 L946.7822 241.9078 ZM948.9385 241.4547 L948.9385 245.2047 L947.8604 245.2047 L947.8604 244.2047 Q947.4854 244.7984 946.9385 245.0875 Q946.3916 245.3766 945.5947 245.3766 Q944.5791 245.3766 943.9854 244.8063 Q943.3916 244.2359 943.3916 243.2984 Q943.3916 242.1891 944.1338 241.6266 Q944.876 241.0641 946.3447 241.0641 L947.8604 241.0641 L947.8604 240.9547 Q947.8604 240.2047 947.3682 239.7984 Q946.876 239.3922 946.001 239.3922 Q945.4385 239.3922 944.8994 239.5328 Q944.3604 239.6734 943.876 239.9391 L943.876 238.9391 Q944.4697 238.7047 945.0244 238.5953 Q945.5791 238.4859 946.1104 238.4859 Q947.5322 238.4859 948.2354 239.2203 Q948.9385 239.9547 948.9385 241.4547 ZM956.6201 241.2359 L956.6201 245.2047 L955.542 245.2047 L955.542 241.2828 Q955.542 240.3453 955.1748 239.8844 Q954.8076 239.4234 954.0889 239.4234 Q953.2139 239.4234 952.7061 239.9781 Q952.1982 240.5328 952.1982 241.5016 L952.1982 245.2047 L951.1201 245.2047 L951.1201 238.6422 L952.1982 238.6422 L952.1982 239.6578 Q952.5889 239.0641 953.1123 238.775 Q953.6357 238.4859 954.3232 238.4859 Q955.4482 238.4859 956.0342 239.1813 Q956.6201 239.8766 956.6201 241.2359 ZM959.835 236.7828 L959.835 238.6422 L962.0537 238.6422 L962.0537 239.4859 L959.835 239.4859 L959.835 243.0484 Q959.835 243.8453 960.0537 244.0719 Q960.2725 244.2984 960.9443 244.2984 L962.0537 244.2984 L962.0537 245.2047 L960.9443 245.2047 Q959.6943 245.2047 959.2178 244.7359 Q958.7412 244.2672 958.7412 243.0484 L958.7412 239.4859 L957.96 239.4859 L957.96 238.6422 L958.7412 238.6422 L958.7412 236.7828 L959.835 236.7828 ZM966.0088 239.3922 Q965.1494 239.3922 964.6416 240.0719 Q964.1338 240.7516 964.1338 241.9234 Q964.1338 243.1109 964.6338 243.7828 Q965.1338 244.4547 966.0088 244.4547 Q966.8682 244.4547 967.376 243.775 Q967.8838 243.0953 967.8838 241.9234 Q967.8838 240.7672 967.376 240.0797 Q966.8682 239.3922 966.0088 239.3922 ZM966.0088 238.4859 Q967.415 238.4859 968.2197 239.4 Q969.0244 240.3141 969.0244 241.9234 Q969.0244 243.5328 968.2197 244.4547 Q967.415 245.3766 966.0088 245.3766 Q964.6025 245.3766 963.7979 244.4547 Q962.9932 243.5328 962.9932 241.9234 Q962.9932 240.3141 963.7979 239.4 Q964.6025 238.4859 966.0088 238.4859 ZM978.8057 238.8297 L978.8057 239.8609 Q978.3525 239.6266 977.8604 239.5094 Q977.3682 239.3922 976.8369 239.3922 Q976.04 239.3922 975.6338 239.6344 Q975.2275 239.8766 975.2275 240.3766 Q975.2275 240.7516 975.5166 240.9625 Q975.8057 241.1734 976.6807 241.3609 L977.04 241.4547 Q978.1963 241.6891 978.6807 242.1422 Q979.165 242.5953 979.165 243.3922 Q979.165 244.3141 978.4385 244.8453 Q977.7119 245.3766 976.4463 245.3766 Q975.915 245.3766 975.3447 245.275 Q974.7744 245.1734 974.1494 244.9703 L974.1494 243.8453 Q974.7432 244.1578 975.3213 244.3141 Q975.8994 244.4703 976.4775 244.4703 Q977.2275 244.4703 977.6416 244.2125 Q978.0557 243.9547 978.0557 243.4703 Q978.0557 243.0328 977.7588 242.7984 Q977.4619 242.5641 976.4619 242.3453 L976.0869 242.2672 Q975.0869 242.0484 974.6416 241.6109 Q974.1963 241.1734 974.1963 240.4234 Q974.1963 239.4859 974.8525 238.9859 Q975.5088 238.4859 976.7119 238.4859 Q977.3057 238.4859 977.8369 238.5719 Q978.3682 238.6578 978.8057 238.8297 ZM986.4951 241.6578 L986.4951 242.1734 L981.5264 242.1734 Q981.6045 243.2984 982.2061 243.8766 Q982.8076 244.4547 983.8701 244.4547 Q984.4951 244.4547 985.0811 244.3063 Q985.667 244.1578 986.2451 243.8453 L986.2451 244.8766 Q985.6514 245.1109 985.042 245.2438 Q984.4326 245.3766 983.8076 245.3766 Q982.2451 245.3766 981.3232 244.4625 Q980.4014 243.5484 980.4014 241.9859 Q980.4014 240.3766 981.2764 239.4313 Q982.1514 238.4859 983.6201 238.4859 Q984.9482 238.4859 985.7217 239.3375 Q986.4951 240.1891 986.4951 241.6578 ZM985.417 241.3297 Q985.4014 240.4547 984.917 239.9234 Q984.4326 239.3922 983.6357 239.3922 Q982.7295 239.3922 982.1904 239.9078 Q981.6514 240.4234 981.5732 241.3453 L985.417 241.3297 ZM993.1455 236.7828 L993.1455 238.6422 L995.3643 238.6422 L995.3643 239.4859 L993.1455 239.4859 L993.1455 243.0484 Q993.1455 243.8453 993.3643 244.0719 Q993.583 244.2984 994.2549 244.2984 L995.3643 244.2984 L995.3643 245.2047 L994.2549 245.2047 Q993.0049 245.2047 992.5283 244.7359 Q992.0518 244.2672 992.0518 243.0484 L992.0518 239.4859 L991.2705 239.4859 L991.2705 238.6422 L992.0518 238.6422 L992.0518 236.7828 L993.1455 236.7828 ZM999.7568 241.9078 Q998.46 241.9078 997.9521 242.2047 Q997.4443 242.5016 997.4443 243.2203 Q997.4443 243.7984 997.8271 244.1344 Q998.21 244.4703 998.8506 244.4703 Q999.7568 244.4703 1000.2959 243.8375 Q1000.835 243.2047 1000.835 242.1422 L1000.835 241.9078 L999.7568 241.9078 ZM1001.9131 241.4547 L1001.9131 245.2047 L1000.835 245.2047 L1000.835 244.2047 Q1000.46 244.7984 999.9131 245.0875 Q999.3662 245.3766 998.5693 245.3766 Q997.5537 245.3766 996.96 244.8063 Q996.3662 244.2359 996.3662 243.2984 Q996.3662 242.1891 997.1084 241.6266 Q997.8506 241.0641 999.3193 241.0641 L1000.835 241.0641 L1000.835 240.9547 Q1000.835 240.2047 1000.3428 239.7984 Q999.8506 239.3922 998.9756 239.3922 Q998.4131 239.3922 997.874 239.5328 Q997.335 239.6734 996.8506 239.9391 L996.8506 238.9391 Q997.4443 238.7047 997.999 238.5953 Q998.5537 238.4859 999.085 238.4859 Q1000.5068 238.4859 1001.21 239.2203 Q1001.9131 239.9547 1001.9131 241.4547 ZM1007.9385 239.6422 Q1007.751 239.5484 1007.54 239.4938 Q1007.3291 239.4391 1007.0635 239.4391 Q1006.1572 239.4391 1005.665 240.0328 Q1005.1729 240.6266 1005.1729 241.7516 L1005.1729 245.2047 L1004.0947 245.2047 L1004.0947 238.6422 L1005.1729 238.6422 L1005.1729 239.6578 Q1005.5166 239.0641 1006.0635 238.775 Q1006.6104 238.4859 1007.3916 238.4859 Q1007.501 238.4859 1007.6338 238.5016 Q1007.7666 238.5172 1007.9229 238.5484 L1007.9385 239.6422 ZM1013.3877 239.6422 L1013.3877 236.0797 L1014.4658 236.0797 L1014.4658 245.2047 L1013.3877 245.2047 L1013.3877 244.2203 Q1013.0439 244.7984 1012.5283 245.0875 Q1012.0127 245.3766 1011.2783 245.3766 Q1010.0908 245.3766 1009.3408 244.4234 Q1008.5908 243.4703 1008.5908 241.9234 Q1008.5908 240.3766 1009.3408 239.4313 Q1010.0908 238.4859 1011.2783 238.4859 Q1012.0127 238.4859 1012.5283 238.7672 Q1013.0439 239.0484 1013.3877 239.6422 ZM1009.7158 241.9234 Q1009.7158 243.1109 1010.2002 243.7906 Q1010.6846 244.4703 1011.5439 244.4703 Q1012.4033 244.4703 1012.8955 243.7906 Q1013.3877 243.1109 1013.3877 241.9234 Q1013.3877 240.7359 1012.8955 240.0641 Q1012.4033 239.3922 1011.5439 239.3922 Q1010.6846 239.3922 1010.2002 240.0641 Q1009.7158 240.7359 1009.7158 241.9234 ZM1019.6611 241.9078 Q1018.3643 241.9078 1017.8564 242.2047 Q1017.3486 242.5016 1017.3486 243.2203 Q1017.3486 243.7984 1017.7314 244.1344 Q1018.1143 244.4703 1018.7549 244.4703 Q1019.6611 244.4703 1020.2002 243.8375 Q1020.7393 243.2047 1020.7393 242.1422 L1020.7393 241.9078 L1019.6611 241.9078 ZM1021.8174 241.4547 L1021.8174 245.2047 L1020.7393 245.2047 L1020.7393 244.2047 Q1020.3643 244.7984 1019.8174 245.0875 Q1019.2705 245.3766 1018.4736 245.3766 Q1017.458 245.3766 1016.8643 244.8063 Q1016.2705 244.2359 1016.2705 243.2984 Q1016.2705 242.1891 1017.0127 241.6266 Q1017.7549 241.0641 1019.2236 241.0641 L1020.7393 241.0641 L1020.7393 240.9547 Q1020.7393 240.2047 1020.2471 239.7984 Q1019.7549 239.3922 1018.8799 239.3922 Q1018.3174 239.3922 1017.7783 239.5328 Q1017.2393 239.6734 1016.7549 239.9391 L1016.7549 238.9391 Q1017.3486 238.7047 1017.9033 238.5953 Q1018.458 238.4859 1018.9893 238.4859 Q1020.4111 238.4859 1021.1143 239.2203 Q1021.8174 239.9547 1021.8174 241.4547 ZM1033.4697 241.6578 L1033.4697 242.1734 L1028.501 242.1734 Q1028.5791 243.2984 1029.1807 243.8766 Q1029.7822 244.4547 1030.8447 244.4547 Q1031.4697 244.4547 1032.0557 244.3063 Q1032.6416 244.1578 1033.2197 243.8453 L1033.2197 244.8766 Q1032.626 245.1109 1032.0166 245.2438 Q1031.4072 245.3766 1030.7822 245.3766 Q1029.2197 245.3766 1028.2979 244.4625 Q1027.376 243.5484 1027.376 241.9859 Q1027.376 240.3766 1028.251 239.4313 Q1029.126 238.4859 1030.5947 238.4859 Q1031.9229 238.4859 1032.6963 239.3375 Q1033.4697 240.1891 1033.4697 241.6578 ZM1032.3916 241.3297 Q1032.376 240.4547 1031.8916 239.9234 Q1031.4072 239.3922 1030.6104 239.3922 Q1029.7041 239.3922 1029.165 239.9078 Q1028.626 240.4234 1028.5479 241.3453 L1032.3916 241.3297 ZM1040.6963 241.2359 L1040.6963 245.2047 L1039.6182 245.2047 L1039.6182 241.2828 Q1039.6182 240.3453 1039.251 239.8844 Q1038.8838 239.4234 1038.165 239.4234 Q1037.29 239.4234 1036.7822 239.9781 Q1036.2744 240.5328 1036.2744 241.5016 L1036.2744 245.2047 L1035.1963 245.2047 L1035.1963 238.6422 L1036.2744 238.6422 L1036.2744 239.6578 Q1036.665 239.0641 1037.1885 238.775 Q1037.7119 238.4859 1038.3994 238.4859 Q1039.5244 238.4859 1040.1104 239.1813 Q1040.6963 239.8766 1040.6963 241.2359 ZM1046.6475 236.0797 L1047.7256 236.0797 L1047.7256 245.2047 L1046.6475 245.2047 L1046.6475 236.0797 ZM1049.9814 238.6422 L1051.0596 238.6422 L1051.0596 245.2047 L1049.9814 245.2047 L1049.9814 238.6422 ZM1049.9814 236.0797 L1051.0596 236.0797 L1051.0596 237.4547 L1049.9814 237.4547 L1049.9814 236.0797 ZM1057.5029 238.8297 L1057.5029 239.8609 Q1057.0498 239.6266 1056.5576 239.5094 Q1056.0654 239.3922 1055.5342 239.3922 Q1054.7373 239.3922 1054.3311 239.6344 Q1053.9248 239.8766 1053.9248 240.3766 Q1053.9248 240.7516 1054.2139 240.9625 Q1054.5029 241.1734 1055.3779 241.3609 L1055.7373 241.4547 Q1056.8936 241.6891 1057.3779 242.1422 Q1057.8623 242.5953 1057.8623 243.3922 Q1057.8623 244.3141 1057.1357 244.8453 Q1056.4092 245.3766 1055.1436 245.3766 Q1054.6123 245.3766 1054.042 245.275 Q1053.4717 245.1734 1052.8467 244.9703 L1052.8467 243.8453 Q1053.4404 244.1578 1054.0186 244.3141 Q1054.5967 244.4703 1055.1748 244.4703 Q1055.9248 244.4703 1056.3389 244.2125 Q1056.7529 243.9547 1056.7529 243.4703 Q1056.7529 243.0328 1056.4561 242.7984 Q1056.1592 242.5641 1055.1592 242.3453 L1054.7842 242.2672 Q1053.7842 242.0484 1053.3389 241.6109 Q1052.8936 241.1734 1052.8936 240.4234 Q1052.8936 239.4859 1053.5498 238.9859 Q1054.2061 238.4859 1055.4092 238.4859 Q1056.0029 238.4859 1056.5342 238.5719 Q1057.0654 238.6578 1057.5029 238.8297 ZM1060.6455 236.7828 L1060.6455 238.6422 L1062.8643 238.6422 L1062.8643 239.4859 L1060.6455 239.4859 L1060.6455 243.0484 Q1060.6455 243.8453 1060.8643 244.0719 Q1061.083 244.2984 1061.7549 244.2984 L1062.8643 244.2984 L1062.8643 245.2047 L1061.7549 245.2047 Q1060.5049 245.2047 1060.0283 244.7359 Q1059.5518 244.2672 1059.5518 243.0484 L1059.5518 239.4859 L1058.7705 239.4859 L1058.7705 238.6422 L1059.5518 238.6422 L1059.5518 236.7828 L1060.6455 236.7828 ZM1067.2568 241.9078 Q1065.96 241.9078 1065.4521 242.2047 Q1064.9443 242.5016 1064.9443 243.2203 Q1064.9443 243.7984 1065.3271 244.1344 Q1065.71 244.4703 1066.3506 244.4703 Q1067.2568 244.4703 1067.7959 243.8375 Q1068.335 243.2047 1068.335 242.1422 L1068.335 241.9078 L1067.2568 241.9078 ZM1069.4131 241.4547 L1069.4131 245.2047 L1068.335 245.2047 L1068.335 244.2047 Q1067.96 244.7984 1067.4131 245.0875 Q1066.8662 245.3766 1066.0693 245.3766 Q1065.0537 245.3766 1064.46 244.8063 Q1063.8662 244.2359 1063.8662 243.2984 Q1063.8662 242.1891 1064.6084 241.6266 Q1065.3506 241.0641 1066.8193 241.0641 L1068.335 241.0641 L1068.335 240.9547 Q1068.335 240.2047 1067.8428 239.7984 Q1067.3506 239.3922 1066.4756 239.3922 Q1065.9131 239.3922 1065.374 239.5328 Q1064.835 239.6734 1064.3506 239.9391 L1064.3506 238.9391 Q1064.9443 238.7047 1065.499 238.5953 Q1066.0537 238.4859 1066.585 238.4859 Q1068.0068 238.4859 1068.71 239.2203 Q1069.4131 239.9547 1069.4131 241.4547 ZM1075.4385 239.6422 Q1075.251 239.5484 1075.04 239.4938 Q1074.8291 239.4391 1074.5635 239.4391 Q1073.6572 239.4391 1073.165 240.0328 Q1072.6729 240.6266 1072.6729 241.7516 L1072.6729 245.2047 L1071.5947 245.2047 L1071.5947 238.6422 L1072.6729 238.6422 L1072.6729 239.6578 Q1073.0166 239.0641 1073.5635 238.775 Q1074.1104 238.4859 1074.8916 238.4859 Q1075.001 238.4859 1075.1338 238.5016 Q1075.2666 238.5172 1075.4229 238.5484 L1075.4385 239.6422 ZM1085.999 241.6578 L1085.999 242.1734 L1081.0303 242.1734 Q1081.1084 243.2984 1081.71 243.8766 Q1082.3115 244.4547 1083.374 244.4547 Q1083.999 244.4547 1084.585 244.3063 Q1085.1709 244.1578 1085.749 243.8453 L1085.749 244.8766 Q1085.1553 245.1109 1084.5459 245.2438 Q1083.9365 245.3766 1083.3115 245.3766 Q1081.749 245.3766 1080.8271 244.4625 Q1079.9053 243.5484 1079.9053 241.9859 Q1079.9053 240.3766 1080.7803 239.4313 Q1081.6553 238.4859 1083.124 238.4859 Q1084.4521 238.4859 1085.2256 239.3375 Q1085.999 240.1891 1085.999 241.6578 ZM1084.9209 241.3297 Q1084.9053 240.4547 1084.4209 239.9234 Q1083.9365 239.3922 1083.1396 239.3922 Q1082.2334 239.3922 1081.6943 239.9078 Q1081.1553 240.4234 1081.0771 241.3453 L1084.9209 241.3297 ZM1087.7568 236.0797 L1088.835 236.0797 L1088.835 245.2047 L1087.7568 245.2047 L1087.7568 236.0797 Z" stroke="none" clip-path="url(#clipPath3)"/>
          <path d="M809.9521 252.861 L809.9521 253.8766 Q809.4834 253.611 809.0303 253.486 Q808.5771 253.361 808.1084 253.361 Q807.0459 253.361 806.4678 254.025 Q805.8896 254.6891 805.8896 255.8922 Q805.8896 257.0953 806.4678 257.7594 Q807.0459 258.4235 808.1084 258.4235 Q808.5771 258.4235 809.0303 258.2985 Q809.4834 258.1735 809.9521 257.9235 L809.9521 258.9235 Q809.499 259.1266 809.0146 259.236 Q808.5303 259.3453 807.9834 259.3453 Q806.499 259.3453 805.624 258.4156 Q804.749 257.486 804.749 255.8922 Q804.749 254.2985 805.6318 253.3766 Q806.5146 252.4547 808.0615 252.4547 Q808.5459 252.4547 809.0225 252.5563 Q809.499 252.6578 809.9521 252.861 ZM814.3623 253.361 Q813.5029 253.361 812.9951 254.0406 Q812.4873 254.7203 812.4873 255.8922 Q812.4873 257.0797 812.9873 257.7516 Q813.4873 258.4235 814.3623 258.4235 Q815.2217 258.4235 815.7295 257.7438 Q816.2373 257.0641 816.2373 255.8922 Q816.2373 254.736 815.7295 254.0485 Q815.2217 253.361 814.3623 253.361 ZM814.3623 252.4547 Q815.7686 252.4547 816.5732 253.3688 Q817.3779 254.2828 817.3779 255.8922 Q817.3779 257.5016 816.5732 258.4235 Q815.7686 259.3453 814.3623 259.3453 Q812.9561 259.3453 812.1514 258.4235 Q811.3467 257.5016 811.3467 255.8922 Q811.3467 254.2828 812.1514 253.3688 Q812.9561 252.4547 814.3623 252.4547 ZM824.626 255.2047 L824.626 259.1735 L823.5479 259.1735 L823.5479 255.2516 Q823.5479 254.3141 823.1807 253.8531 Q822.8135 253.3922 822.0947 253.3922 Q821.2197 253.3922 820.7119 253.9469 Q820.2041 254.5016 820.2041 255.4703 L820.2041 259.1735 L819.126 259.1735 L819.126 252.611 L820.2041 252.611 L820.2041 253.6266 Q820.5947 253.0328 821.1182 252.7438 Q821.6416 252.4547 822.3291 252.4547 Q823.4541 252.4547 824.04 253.15 Q824.626 253.8453 824.626 255.2047 ZM827.8408 250.7516 L827.8408 252.611 L830.0596 252.611 L830.0596 253.4547 L827.8408 253.4547 L827.8408 257.0172 Q827.8408 257.8141 828.0596 258.0406 Q828.2783 258.2672 828.9502 258.2672 L830.0596 258.2672 L830.0596 259.1735 L828.9502 259.1735 Q827.7002 259.1735 827.2236 258.7047 Q826.7471 258.236 826.7471 257.0172 L826.7471 253.4547 L825.9658 253.4547 L825.9658 252.611 L826.7471 252.611 L826.7471 250.7516 L827.8408 250.7516 ZM837.0928 255.6266 L837.0928 256.1422 L832.124 256.1422 Q832.2021 257.2672 832.8037 257.8453 Q833.4053 258.4235 834.4678 258.4235 Q835.0928 258.4235 835.6787 258.275 Q836.2646 258.1266 836.8428 257.8141 L836.8428 258.8453 Q836.249 259.0797 835.6396 259.2125 Q835.0303 259.3453 834.4053 259.3453 Q832.8428 259.3453 831.9209 258.4313 Q830.999 257.5172 830.999 255.9547 Q830.999 254.3453 831.874 253.4 Q832.749 252.4547 834.2178 252.4547 Q835.5459 252.4547 836.3193 253.3063 Q837.0928 254.1578 837.0928 255.6266 ZM836.0146 255.2985 Q835.999 254.4235 835.5146 253.8922 Q835.0303 253.361 834.2334 253.361 Q833.3271 253.361 832.7881 253.8766 Q832.249 254.3922 832.1709 255.3141 L836.0146 255.2985 ZM844.3193 255.2047 L844.3193 259.1735 L843.2412 259.1735 L843.2412 255.2516 Q843.2412 254.3141 842.874 253.8531 Q842.5068 253.3922 841.7881 253.3922 Q840.9131 253.3922 840.4053 253.9469 Q839.8975 254.5016 839.8975 255.4703 L839.8975 259.1735 L838.8193 259.1735 L838.8193 252.611 L839.8975 252.611 L839.8975 253.6266 Q840.2881 253.0328 840.8115 252.7438 Q841.335 252.4547 842.0225 252.4547 Q843.1475 252.4547 843.7334 253.15 Q844.3193 253.8453 844.3193 255.2047 ZM846.4561 252.611 L847.5342 252.611 L847.5342 259.1735 L846.4561 259.1735 L846.4561 252.611 ZM846.4561 250.0485 L847.5342 250.0485 L847.5342 251.4235 L846.4561 251.4235 L846.4561 250.0485 ZM854.1182 253.611 L854.1182 250.0485 L855.1963 250.0485 L855.1963 259.1735 L854.1182 259.1735 L854.1182 258.1891 Q853.7744 258.7672 853.2588 259.0563 Q852.7432 259.3453 852.0088 259.3453 Q850.8213 259.3453 850.0713 258.3922 Q849.3213 257.4391 849.3213 255.8922 Q849.3213 254.3453 850.0713 253.4 Q850.8213 252.4547 852.0088 252.4547 Q852.7432 252.4547 853.2588 252.736 Q853.7744 253.0172 854.1182 253.611 ZM850.4463 255.8922 Q850.4463 257.0797 850.9307 257.7594 Q851.415 258.4391 852.2744 258.4391 Q853.1338 258.4391 853.626 257.7594 Q854.1182 257.0797 854.1182 255.8922 Q854.1182 254.7047 853.626 254.0328 Q853.1338 253.361 852.2744 253.361 Q851.415 253.361 850.9307 254.0328 Q850.4463 254.7047 850.4463 255.8922 ZM859.9541 253.361 Q859.0947 253.361 858.5869 254.0406 Q858.0791 254.7203 858.0791 255.8922 Q858.0791 257.0797 858.5791 257.7516 Q859.0791 258.4235 859.9541 258.4235 Q860.8135 258.4235 861.3213 257.7438 Q861.8291 257.0641 861.8291 255.8922 Q861.8291 254.736 861.3213 254.0485 Q860.8135 253.361 859.9541 253.361 ZM859.9541 252.4547 Q861.3604 252.4547 862.165 253.3688 Q862.9697 254.2828 862.9697 255.8922 Q862.9697 257.5016 862.165 258.4235 Q861.3604 259.3453 859.9541 259.3453 Q858.5479 259.3453 857.7432 258.4235 Q856.9385 257.5016 856.9385 255.8922 Q856.9385 254.2828 857.7432 253.3688 Q858.5479 252.4547 859.9541 252.4547 ZM872.8916 253.611 L872.8916 250.0485 L873.9697 250.0485 L873.9697 259.1735 L872.8916 259.1735 L872.8916 258.1891 Q872.5479 258.7672 872.0322 259.0563 Q871.5166 259.3453 870.7822 259.3453 Q869.5947 259.3453 868.8447 258.3922 Q868.0947 257.4391 868.0947 255.8922 Q868.0947 254.3453 868.8447 253.4 Q869.5947 252.4547 870.7822 252.4547 Q871.5166 252.4547 872.0322 252.736 Q872.5479 253.0172 872.8916 253.611 ZM869.2197 255.8922 Q869.2197 257.0797 869.7041 257.7594 Q870.1885 258.4391 871.0479 258.4391 Q871.9072 258.4391 872.3994 257.7594 Q872.8916 257.0797 872.8916 255.8922 Q872.8916 254.7047 872.3994 254.0328 Q871.9072 253.361 871.0479 253.361 Q870.1885 253.361 869.7041 254.0328 Q869.2197 254.7047 869.2197 255.8922 ZM881.8057 255.6266 L881.8057 256.1422 L876.8369 256.1422 Q876.915 257.2672 877.5166 257.8453 Q878.1182 258.4235 879.1807 258.4235 Q879.8057 258.4235 880.3916 258.275 Q880.9775 258.1266 881.5557 257.8141 L881.5557 258.8453 Q880.9619 259.0797 880.3525 259.2125 Q879.7432 259.3453 879.1182 259.3453 Q877.5557 259.3453 876.6338 258.4313 Q875.7119 257.5172 875.7119 255.9547 Q875.7119 254.3453 876.5869 253.4 Q877.4619 252.4547 878.9307 252.4547 Q880.2588 252.4547 881.0322 253.3063 Q881.8057 254.1578 881.8057 255.6266 ZM880.7275 255.2985 Q880.7119 254.4235 880.2275 253.8922 Q879.7432 253.361 878.9463 253.361 Q878.04 253.361 877.501 253.8766 Q876.9619 254.3922 876.8838 255.3141 L880.7275 255.2985 ZM883.8447 257.6891 L885.0791 257.6891 L885.0791 259.1735 L883.8447 259.1735 L883.8447 257.6891 ZM883.8447 252.9703 L885.0791 252.9703 L885.0791 254.4547 L883.8447 254.4547 L883.8447 252.9703 Z" clip-path="url(#clipPath3)" stroke="none"/>
          <path d="M804.6865 269.3766 L807.8428 269.3766 L807.8428 270.3297 L804.6865 270.3297 L804.6865 269.3766 ZM818.9873 269.5953 L818.9873 270.111 L814.0186 270.111 Q814.0967 271.236 814.6982 271.8141 Q815.2998 272.3922 816.3623 272.3922 Q816.9873 272.3922 817.5732 272.2438 Q818.1592 272.0953 818.7373 271.7828 L818.7373 272.8141 Q818.1436 273.0485 817.5342 273.1813 Q816.9248 273.3141 816.2998 273.3141 Q814.7373 273.3141 813.8154 272.4 Q812.8936 271.486 812.8936 269.9235 Q812.8936 268.3141 813.7686 267.3688 Q814.6436 266.4235 816.1123 266.4235 Q817.4404 266.4235 818.2139 267.275 Q818.9873 268.1266 818.9873 269.5953 ZM817.9092 269.2672 Q817.8936 268.3922 817.4092 267.861 Q816.9248 267.3297 816.1279 267.3297 Q815.2217 267.3297 814.6826 267.8453 Q814.1436 268.361 814.0654 269.2828 L817.9092 269.2672 ZM820.7451 264.0172 L821.8232 264.0172 L821.8232 273.1422 L820.7451 273.1422 L820.7451 264.0172 ZM832.2217 267.5797 L832.2217 264.0172 L833.2998 264.0172 L833.2998 273.1422 L832.2217 273.1422 L832.2217 272.1578 Q831.8779 272.736 831.3623 273.025 Q830.8467 273.3141 830.1123 273.3141 Q828.9248 273.3141 828.1748 272.361 Q827.4248 271.4078 827.4248 269.861 Q827.4248 268.3141 828.1748 267.3688 Q828.9248 266.4235 830.1123 266.4235 Q830.8467 266.4235 831.3623 266.7047 Q831.8779 266.986 832.2217 267.5797 ZM828.5498 269.861 Q828.5498 271.0485 829.0342 271.7281 Q829.5186 272.4078 830.3779 272.4078 Q831.2373 272.4078 831.7295 271.7281 Q832.2217 271.0485 832.2217 269.861 Q832.2217 268.6735 831.7295 268.0016 Q831.2373 267.3297 830.3779 267.3297 Q829.5186 267.3297 829.0342 268.0016 Q828.5498 268.6735 828.5498 269.861 ZM835.5107 266.5797 L836.5889 266.5797 L836.5889 273.1422 L835.5107 273.1422 L835.5107 266.5797 ZM835.5107 264.0172 L836.5889 264.0172 L836.5889 265.3922 L835.5107 265.3922 L835.5107 264.0172 ZM842.6572 267.5797 Q842.4697 267.486 842.2588 267.4313 Q842.0479 267.3766 841.7822 267.3766 Q840.876 267.3766 840.3838 267.9703 Q839.8916 268.5641 839.8916 269.6891 L839.8916 273.1422 L838.8135 273.1422 L838.8135 266.5797 L839.8916 266.5797 L839.8916 267.5953 Q840.2354 267.0016 840.7822 266.7125 Q841.3291 266.4235 842.1104 266.4235 Q842.2197 266.4235 842.3525 266.4391 Q842.4854 266.4547 842.6416 266.486 L842.6572 267.5797 ZM849.4033 269.5953 L849.4033 270.111 L844.4346 270.111 Q844.5127 271.236 845.1143 271.8141 Q845.7158 272.3922 846.7783 272.3922 Q847.4033 272.3922 847.9893 272.2438 Q848.5752 272.0953 849.1533 271.7828 L849.1533 272.8141 Q848.5596 273.0485 847.9502 273.1813 Q847.3408 273.3141 846.7158 273.3141 Q845.1533 273.3141 844.2314 272.4 Q843.3096 271.486 843.3096 269.9235 Q843.3096 268.3141 844.1846 267.3688 Q845.0596 266.4235 846.5283 266.4235 Q847.8564 266.4235 848.6299 267.275 Q849.4033 268.1266 849.4033 269.5953 ZM848.3252 269.2672 Q848.3096 268.3922 847.8252 267.861 Q847.3408 267.3297 846.5439 267.3297 Q845.6377 267.3297 845.0986 267.8453 Q844.5596 268.361 844.4814 269.2828 L848.3252 269.2672 ZM855.8955 266.8297 L855.8955 267.8453 Q855.4268 267.5797 854.9736 267.4547 Q854.5205 267.3297 854.0518 267.3297 Q852.9893 267.3297 852.4111 267.9938 Q851.833 268.6578 851.833 269.861 Q851.833 271.0641 852.4111 271.7281 Q852.9893 272.3922 854.0518 272.3922 Q854.5205 272.3922 854.9736 272.2672 Q855.4268 272.1422 855.8955 271.8922 L855.8955 272.8922 Q855.4424 273.0953 854.958 273.2047 Q854.4736 273.3141 853.9268 273.3141 Q852.4424 273.3141 851.5674 272.3844 Q850.6924 271.4547 850.6924 269.861 Q850.6924 268.2672 851.5752 267.3453 Q852.458 266.4235 854.0049 266.4235 Q854.4893 266.4235 854.9658 266.525 Q855.4424 266.6266 855.8955 266.8297 ZM858.8369 264.7203 L858.8369 266.5797 L861.0557 266.5797 L861.0557 267.4235 L858.8369 267.4235 L858.8369 270.986 Q858.8369 271.7828 859.0557 272.0094 Q859.2744 272.236 859.9463 272.236 L861.0557 272.236 L861.0557 273.1422 L859.9463 273.1422 Q858.6963 273.1422 858.2197 272.6735 Q857.7432 272.2047 857.7432 270.986 L857.7432 267.4235 L856.9619 267.4235 L856.9619 266.5797 L857.7432 266.5797 L857.7432 264.7203 L858.8369 264.7203 ZM865.0107 267.3297 Q864.1514 267.3297 863.6436 268.0094 Q863.1357 268.6891 863.1357 269.861 Q863.1357 271.0485 863.6357 271.7203 Q864.1357 272.3922 865.0107 272.3922 Q865.8701 272.3922 866.3779 271.7125 Q866.8857 271.0328 866.8857 269.861 Q866.8857 268.7047 866.3779 268.0172 Q865.8701 267.3297 865.0107 267.3297 ZM865.0107 266.4235 Q866.417 266.4235 867.2217 267.3375 Q868.0264 268.2516 868.0264 269.861 Q868.0264 271.4703 867.2217 272.3922 Q866.417 273.3141 865.0107 273.3141 Q863.6045 273.3141 862.7998 272.3922 Q861.9951 271.4703 861.9951 269.861 Q861.9951 268.2516 862.7998 267.3375 Q863.6045 266.4235 865.0107 266.4235 ZM873.6182 267.5797 Q873.4307 267.486 873.2197 267.4313 Q873.0088 267.3766 872.7432 267.3766 Q871.8369 267.3766 871.3447 267.9703 Q870.8525 268.5641 870.8525 269.6891 L870.8525 273.1422 L869.7744 273.1422 L869.7744 266.5797 L870.8525 266.5797 L870.8525 267.5953 Q871.1963 267.0016 871.7432 266.7125 Q872.29 266.4235 873.0713 266.4235 Q873.1807 266.4235 873.3135 266.4391 Q873.4463 266.4547 873.6025 266.486 L873.6182 267.5797 ZM874.7393 266.5797 L875.8174 266.5797 L875.8174 273.1422 L874.7393 273.1422 L874.7393 266.5797 ZM874.7393 264.0172 L875.8174 264.0172 L875.8174 265.3922 L874.7393 265.3922 L874.7393 264.0172 ZM880.6201 267.3297 Q879.7607 267.3297 879.2529 268.0094 Q878.7451 268.6891 878.7451 269.861 Q878.7451 271.0485 879.2451 271.7203 Q879.7451 272.3922 880.6201 272.3922 Q881.4795 272.3922 881.9873 271.7125 Q882.4951 271.0328 882.4951 269.861 Q882.4951 268.7047 881.9873 268.0172 Q881.4795 267.3297 880.6201 267.3297 ZM880.6201 266.4235 Q882.0264 266.4235 882.8311 267.3375 Q883.6357 268.2516 883.6357 269.861 Q883.6357 271.4703 882.8311 272.3922 Q882.0264 273.3141 880.6201 273.3141 Q879.2139 273.3141 878.4092 272.3922 Q877.6045 271.4703 877.6045 269.861 Q877.6045 268.2516 878.4092 267.3375 Q879.2139 266.4235 880.6201 266.4235 ZM892.2139 269.8453 Q890.917 269.8453 890.4092 270.1422 Q889.9014 270.4391 889.9014 271.1578 Q889.9014 271.736 890.2842 272.0719 Q890.667 272.4078 891.3076 272.4078 Q892.2139 272.4078 892.7529 271.775 Q893.292 271.1422 893.292 270.0797 L893.292 269.8453 L892.2139 269.8453 ZM894.3701 269.3922 L894.3701 273.1422 L893.292 273.1422 L893.292 272.1422 Q892.917 272.736 892.3701 273.025 Q891.8232 273.3141 891.0264 273.3141 Q890.0107 273.3141 889.417 272.7438 Q888.8232 272.1735 888.8232 271.236 Q888.8232 270.1266 889.5654 269.5641 Q890.3076 269.0016 891.7764 269.0016 L893.292 269.0016 L893.292 268.8922 Q893.292 268.1422 892.7998 267.736 Q892.3076 267.3297 891.4326 267.3297 Q890.8701 267.3297 890.3311 267.4703 Q889.792 267.611 889.3076 267.8766 L889.3076 266.8766 Q889.9014 266.6422 890.4561 266.5328 Q891.0107 266.4235 891.542 266.4235 Q892.9639 266.4235 893.667 267.1578 Q894.3701 267.8922 894.3701 269.3922 ZM901.3174 266.8297 L901.3174 267.8453 Q900.8486 267.5797 900.3955 267.4547 Q899.9424 267.3297 899.4736 267.3297 Q898.4111 267.3297 897.833 267.9938 Q897.2549 268.6578 897.2549 269.861 Q897.2549 271.0641 897.833 271.7281 Q898.4111 272.3922 899.4736 272.3922 Q899.9424 272.3922 900.3955 272.2672 Q900.8486 272.1422 901.3174 271.8922 L901.3174 272.8922 Q900.8643 273.0953 900.3799 273.2047 Q899.8955 273.3141 899.3486 273.3141 Q897.8643 273.3141 896.9893 272.3844 Q896.1143 271.4547 896.1143 269.861 Q896.1143 268.2672 896.9971 267.3453 Q897.8799 266.4235 899.4268 266.4235 Q899.9111 266.4235 900.3877 266.525 Q900.8643 266.6266 901.3174 266.8297 ZM904.2588 264.7203 L904.2588 266.5797 L906.4775 266.5797 L906.4775 267.4235 L904.2588 267.4235 L904.2588 270.986 Q904.2588 271.7828 904.4775 272.0094 Q904.6963 272.236 905.3682 272.236 L906.4775 272.236 L906.4775 273.1422 L905.3682 273.1422 Q904.1182 273.1422 903.6416 272.6735 Q903.165 272.2047 903.165 270.986 L903.165 267.4235 L902.3838 267.4235 L902.3838 266.5797 L903.165 266.5797 L903.165 264.7203 L904.2588 264.7203 ZM907.7764 270.5485 L907.7764 266.5797 L908.8545 266.5797 L908.8545 270.5172 Q908.8545 271.4391 909.2217 271.9078 Q909.5889 272.3766 910.3076 272.3766 Q911.1826 272.3766 911.6904 271.8219 Q912.1982 271.2672 912.1982 270.2985 L912.1982 266.5797 L913.2764 266.5797 L913.2764 273.1422 L912.1982 273.1422 L912.1982 272.1266 Q911.8076 272.736 911.292 273.025 Q910.7764 273.3141 910.0889 273.3141 Q908.9482 273.3141 908.3623 272.611 Q907.7764 271.9078 907.7764 270.5485 ZM918.4756 269.8453 Q917.1787 269.8453 916.6709 270.1422 Q916.1631 270.4391 916.1631 271.1578 Q916.1631 271.736 916.5459 272.0719 Q916.9287 272.4078 917.5693 272.4078 Q918.4756 272.4078 919.0146 271.775 Q919.5537 271.1422 919.5537 270.0797 L919.5537 269.8453 L918.4756 269.8453 ZM920.6318 269.3922 L920.6318 273.1422 L919.5537 273.1422 L919.5537 272.1422 Q919.1787 272.736 918.6318 273.025 Q918.085 273.3141 917.2881 273.3141 Q916.2725 273.3141 915.6787 272.7438 Q915.085 272.1735 915.085 271.236 Q915.085 270.1266 915.8271 269.5641 Q916.5693 269.0016 918.0381 269.0016 L919.5537 269.0016 L919.5537 268.8922 Q919.5537 268.1422 919.0615 267.736 Q918.5693 267.3297 917.6943 267.3297 Q917.1318 267.3297 916.5928 267.4703 Q916.0537 267.611 915.5693 267.8766 L915.5693 266.8766 Q916.1631 266.6422 916.7178 266.5328 Q917.2725 266.4235 917.8037 266.4235 Q919.2256 266.4235 919.9287 267.1578 Q920.6318 267.8922 920.6318 269.3922 ZM922.8447 264.0172 L923.9229 264.0172 L923.9229 273.1422 L922.8447 273.1422 L922.8447 264.0172 Z" clip-path="url(#clipPath3)" stroke="none"/>
          <path d="M804.6865 283.3453 L807.8428 283.3453 L807.8428 284.2985 L804.6865 284.2985 L804.6865 283.3453 ZM818.9873 283.5641 L818.9873 284.0797 L814.0186 284.0797 Q814.0967 285.2047 814.6982 285.7828 Q815.2998 286.361 816.3623 286.361 Q816.9873 286.361 817.5732 286.2125 Q818.1592 286.0641 818.7373 285.7516 L818.7373 286.7828 Q818.1436 287.0172 817.5342 287.15 Q816.9248 287.2828 816.2998 287.2828 Q814.7373 287.2828 813.8154 286.3688 Q812.8936 285.4547 812.8936 283.8922 Q812.8936 282.2828 813.7686 281.3375 Q814.6436 280.3922 816.1123 280.3922 Q817.4404 280.3922 818.2139 281.2438 Q818.9873 282.0953 818.9873 283.5641 ZM817.9092 283.236 Q817.8936 282.361 817.4092 281.8297 Q816.9248 281.2985 816.1279 281.2985 Q815.2217 281.2985 814.6826 281.8141 Q814.1436 282.3297 814.0654 283.2516 L817.9092 283.236 ZM820.7451 277.986 L821.8232 277.986 L821.8232 287.111 L820.7451 287.111 L820.7451 277.986 ZM832.2217 281.5485 L832.2217 277.986 L833.2998 277.986 L833.2998 287.111 L832.2217 287.111 L832.2217 286.1266 Q831.8779 286.7047 831.3623 286.9938 Q830.8467 287.2828 830.1123 287.2828 Q828.9248 287.2828 828.1748 286.3297 Q827.4248 285.3766 827.4248 283.8297 Q827.4248 282.2828 828.1748 281.3375 Q828.9248 280.3922 830.1123 280.3922 Q830.8467 280.3922 831.3623 280.6735 Q831.8779 280.9547 832.2217 281.5485 ZM828.5498 283.8297 Q828.5498 285.0172 829.0342 285.6969 Q829.5186 286.3766 830.3779 286.3766 Q831.2373 286.3766 831.7295 285.6969 Q832.2217 285.0172 832.2217 283.8297 Q832.2217 282.6422 831.7295 281.9703 Q831.2373 281.2985 830.3779 281.2985 Q829.5186 281.2985 829.0342 281.9703 Q828.5498 282.6422 828.5498 283.8297 ZM835.5107 280.5485 L836.5889 280.5485 L836.5889 287.111 L835.5107 287.111 L835.5107 280.5485 ZM835.5107 277.986 L836.5889 277.986 L836.5889 279.361 L835.5107 279.361 L835.5107 277.986 ZM842.6572 281.5485 Q842.4697 281.4547 842.2588 281.4 Q842.0479 281.3453 841.7822 281.3453 Q840.876 281.3453 840.3838 281.9391 Q839.8916 282.5328 839.8916 283.6578 L839.8916 287.111 L838.8135 287.111 L838.8135 280.5485 L839.8916 280.5485 L839.8916 281.5641 Q840.2354 280.9703 840.7822 280.6813 Q841.3291 280.3922 842.1104 280.3922 Q842.2197 280.3922 842.3525 280.4078 Q842.4854 280.4235 842.6416 280.4547 L842.6572 281.5485 ZM849.4033 283.5641 L849.4033 284.0797 L844.4346 284.0797 Q844.5127 285.2047 845.1143 285.7828 Q845.7158 286.361 846.7783 286.361 Q847.4033 286.361 847.9893 286.2125 Q848.5752 286.0641 849.1533 285.7516 L849.1533 286.7828 Q848.5596 287.0172 847.9502 287.15 Q847.3408 287.2828 846.7158 287.2828 Q845.1533 287.2828 844.2314 286.3688 Q843.3096 285.4547 843.3096 283.8922 Q843.3096 282.2828 844.1846 281.3375 Q845.0596 280.3922 846.5283 280.3922 Q847.8564 280.3922 848.6299 281.2438 Q849.4033 282.0953 849.4033 283.5641 ZM848.3252 283.236 Q848.3096 282.361 847.8252 281.8297 Q847.3408 281.2985 846.5439 281.2985 Q845.6377 281.2985 845.0986 281.8141 Q844.5596 282.3297 844.4814 283.2516 L848.3252 283.236 ZM855.8955 280.7985 L855.8955 281.8141 Q855.4268 281.5485 854.9736 281.4235 Q854.5205 281.2985 854.0518 281.2985 Q852.9893 281.2985 852.4111 281.9625 Q851.833 282.6266 851.833 283.8297 Q851.833 285.0328 852.4111 285.6969 Q852.9893 286.361 854.0518 286.361 Q854.5205 286.361 854.9736 286.236 Q855.4268 286.111 855.8955 285.861 L855.8955 286.861 Q855.4424 287.0641 854.958 287.1735 Q854.4736 287.2828 853.9268 287.2828 Q852.4424 287.2828 851.5674 286.3531 Q850.6924 285.4235 850.6924 283.8297 Q850.6924 282.236 851.5752 281.3141 Q852.458 280.3922 854.0049 280.3922 Q854.4893 280.3922 854.9658 280.4938 Q855.4424 280.5953 855.8955 280.7985 ZM858.8369 278.6891 L858.8369 280.5485 L861.0557 280.5485 L861.0557 281.3922 L858.8369 281.3922 L858.8369 284.9547 Q858.8369 285.7516 859.0557 285.9781 Q859.2744 286.2047 859.9463 286.2047 L861.0557 286.2047 L861.0557 287.111 L859.9463 287.111 Q858.6963 287.111 858.2197 286.6422 Q857.7432 286.1735 857.7432 284.9547 L857.7432 281.3922 L856.9619 281.3922 L856.9619 280.5485 L857.7432 280.5485 L857.7432 278.6891 L858.8369 278.6891 ZM865.0107 281.2985 Q864.1514 281.2985 863.6436 281.9781 Q863.1357 282.6578 863.1357 283.8297 Q863.1357 285.0172 863.6357 285.6891 Q864.1357 286.361 865.0107 286.361 Q865.8701 286.361 866.3779 285.6813 Q866.8857 285.0016 866.8857 283.8297 Q866.8857 282.6735 866.3779 281.986 Q865.8701 281.2985 865.0107 281.2985 ZM865.0107 280.3922 Q866.417 280.3922 867.2217 281.3063 Q868.0264 282.2203 868.0264 283.8297 Q868.0264 285.4391 867.2217 286.361 Q866.417 287.2828 865.0107 287.2828 Q863.6045 287.2828 862.7998 286.361 Q861.9951 285.4391 861.9951 283.8297 Q861.9951 282.2203 862.7998 281.3063 Q863.6045 280.3922 865.0107 280.3922 ZM873.6182 281.5485 Q873.4307 281.4547 873.2197 281.4 Q873.0088 281.3453 872.7432 281.3453 Q871.8369 281.3453 871.3447 281.9391 Q870.8525 282.5328 870.8525 283.6578 L870.8525 287.111 L869.7744 287.111 L869.7744 280.5485 L870.8525 280.5485 L870.8525 281.5641 Q871.1963 280.9703 871.7432 280.6813 Q872.29 280.3922 873.0713 280.3922 Q873.1807 280.3922 873.3135 280.4078 Q873.4463 280.4235 873.6025 280.4547 L873.6182 281.5485 ZM874.7393 280.5485 L875.8174 280.5485 L875.8174 287.111 L874.7393 287.111 L874.7393 280.5485 ZM874.7393 277.986 L875.8174 277.986 L875.8174 279.361 L874.7393 279.361 L874.7393 277.986 ZM880.6201 281.2985 Q879.7607 281.2985 879.2529 281.9781 Q878.7451 282.6578 878.7451 283.8297 Q878.7451 285.0172 879.2451 285.6891 Q879.7451 286.361 880.6201 286.361 Q881.4795 286.361 881.9873 285.6813 Q882.4951 285.0016 882.4951 283.8297 Q882.4951 282.6735 881.9873 281.986 Q881.4795 281.2985 880.6201 281.2985 ZM880.6201 280.3922 Q882.0264 280.3922 882.8311 281.3063 Q883.6357 282.2203 883.6357 283.8297 Q883.6357 285.4391 882.8311 286.361 Q882.0264 287.2828 880.6201 287.2828 Q879.2139 287.2828 878.4092 286.361 Q877.6045 285.4391 877.6045 283.8297 Q877.6045 282.2203 878.4092 281.3063 Q879.2139 280.3922 880.6201 280.3922 ZM891.9639 287.7203 Q891.5107 288.8922 891.0732 289.2516 Q890.6357 289.611 889.917 289.611 L889.0576 289.611 L889.0576 288.7047 L889.6826 288.7047 Q890.1357 288.7047 890.3779 288.4938 Q890.6201 288.2828 890.917 287.5016 L891.1201 287.0016 L888.4639 280.5485 L889.6045 280.5485 L891.6514 285.6735 L893.7139 280.5485 L894.8545 280.5485 L891.9639 287.7203 ZM900.1455 277.986 L901.2236 277.986 L901.2236 287.111 L900.1455 287.111 L900.1455 277.986 ZM906.0264 281.2985 Q905.167 281.2985 904.6592 281.9781 Q904.1514 282.6578 904.1514 283.8297 Q904.1514 285.0172 904.6514 285.6891 Q905.1514 286.361 906.0264 286.361 Q906.8857 286.361 907.3936 285.6813 Q907.9014 285.0016 907.9014 283.8297 Q907.9014 282.6735 907.3936 281.986 Q906.8857 281.2985 906.0264 281.2985 ZM906.0264 280.3922 Q907.4326 280.3922 908.2373 281.3063 Q909.042 282.2203 909.042 283.8297 Q909.042 285.4391 908.2373 286.361 Q907.4326 287.2828 906.0264 287.2828 Q904.6201 287.2828 903.8154 286.361 Q903.0107 285.4391 903.0107 283.8297 Q903.0107 282.2203 903.8154 281.3063 Q904.6201 280.3922 906.0264 280.3922 ZM915.0088 280.736 L915.0088 281.7672 Q914.5557 281.5328 914.0635 281.4156 Q913.5713 281.2985 913.04 281.2985 Q912.2432 281.2985 911.8369 281.5406 Q911.4307 281.7828 911.4307 282.2828 Q911.4307 282.6578 911.7197 282.8688 Q912.0088 283.0797 912.8838 283.2672 L913.2432 283.361 Q914.3994 283.5953 914.8838 284.0485 Q915.3682 284.5016 915.3682 285.2985 Q915.3682 286.2203 914.6416 286.7516 Q913.915 287.2828 912.6494 287.2828 Q912.1182 287.2828 911.5479 287.1813 Q910.9775 287.0797 910.3525 286.8766 L910.3525 285.7516 Q910.9463 286.0641 911.5244 286.2203 Q912.1025 286.3766 912.6807 286.3766 Q913.4307 286.3766 913.8447 286.1188 Q914.2588 285.861 914.2588 285.3766 Q914.2588 284.9391 913.9619 284.7047 Q913.665 284.4703 912.665 284.2516 L912.29 284.1735 Q911.29 283.9547 910.8447 283.5172 Q910.3994 283.0797 910.3994 282.3297 Q910.3994 281.3922 911.0557 280.8922 Q911.7119 280.3922 912.915 280.3922 Q913.5088 280.3922 914.04 280.4781 Q914.5713 280.5641 915.0088 280.736 ZM925.0752 280.736 L925.0752 281.7672 Q924.6221 281.5328 924.1299 281.4156 Q923.6377 281.2985 923.1064 281.2985 Q922.3096 281.2985 921.9033 281.5406 Q921.4971 281.7828 921.4971 282.2828 Q921.4971 282.6578 921.7861 282.8688 Q922.0752 283.0797 922.9502 283.2672 L923.3096 283.361 Q924.4658 283.5953 924.9502 284.0485 Q925.4346 284.5016 925.4346 285.2985 Q925.4346 286.2203 924.708 286.7516 Q923.9814 287.2828 922.7158 287.2828 Q922.1846 287.2828 921.6143 287.1813 Q921.0439 287.0797 920.4189 286.8766 L920.4189 285.7516 Q921.0127 286.0641 921.5908 286.2203 Q922.1689 286.3766 922.7471 286.3766 Q923.4971 286.3766 923.9111 286.1188 Q924.3252 285.861 924.3252 285.3766 Q924.3252 284.9391 924.0283 284.7047 Q923.7314 284.4703 922.7314 284.2516 L922.3564 284.1735 Q921.3564 283.9547 920.9111 283.5172 Q920.4658 283.0797 920.4658 282.3297 Q920.4658 281.3922 921.1221 280.8922 Q921.7783 280.3922 922.9814 280.3922 Q923.5752 280.3922 924.1064 280.4781 Q924.6377 280.5641 925.0752 280.736 ZM927.0303 284.5172 L927.0303 280.5485 L928.1084 280.5485 L928.1084 284.486 Q928.1084 285.4078 928.4756 285.8766 Q928.8428 286.3453 929.5615 286.3453 Q930.4365 286.3453 930.9443 285.7906 Q931.4521 285.236 931.4521 284.2672 L931.4521 280.5485 L932.5303 280.5485 L932.5303 287.111 L931.4521 287.111 L931.4521 286.0953 Q931.0615 286.7047 930.5459 286.9938 Q930.0303 287.2828 929.3428 287.2828 Q928.2021 287.2828 927.6162 286.5797 Q927.0303 285.8766 927.0303 284.5172 ZM939.4639 283.8297 Q939.4639 282.6422 938.9717 281.9703 Q938.4795 281.2985 937.6357 281.2985 Q936.7764 281.2985 936.2842 281.9703 Q935.792 282.6422 935.792 283.8297 Q935.792 285.0172 936.2842 285.6969 Q936.7764 286.3766 937.6357 286.3766 Q938.4795 286.3766 938.9717 285.6969 Q939.4639 285.0172 939.4639 283.8297 ZM935.792 281.5485 Q936.1357 280.9547 936.6514 280.6735 Q937.167 280.3922 937.8857 280.3922 Q939.0889 280.3922 939.8389 281.3375 Q940.5889 282.2828 940.5889 283.8297 Q940.5889 285.3766 939.8389 286.3297 Q939.0889 287.2828 937.8857 287.2828 Q937.167 287.2828 936.6514 286.9938 Q936.1357 286.7047 935.792 286.1266 L935.792 287.111 L934.7139 287.111 L934.7139 277.986 L935.792 277.986 L935.792 281.5485 ZM946.6904 281.5485 L946.6904 277.986 L947.7686 277.986 L947.7686 287.111 L946.6904 287.111 L946.6904 286.1266 Q946.3467 286.7047 945.8311 286.9938 Q945.3154 287.2828 944.5811 287.2828 Q943.3936 287.2828 942.6436 286.3297 Q941.8936 285.3766 941.8936 283.8297 Q941.8936 282.2828 942.6436 281.3375 Q943.3936 280.3922 944.5811 280.3922 Q945.3154 280.3922 945.8311 280.6735 Q946.3467 280.9547 946.6904 281.5485 ZM943.0186 283.8297 Q943.0186 285.0172 943.5029 285.6969 Q943.9873 286.3766 944.8467 286.3766 Q945.7061 286.3766 946.1982 285.6969 Q946.6904 285.0172 946.6904 283.8297 Q946.6904 282.6422 946.1982 281.9703 Q945.7061 281.2985 944.8467 281.2985 Q943.9873 281.2985 943.5029 281.9703 Q943.0186 282.6422 943.0186 283.8297 ZM949.9795 280.5485 L951.0576 280.5485 L951.0576 287.111 L949.9795 287.111 L949.9795 280.5485 ZM949.9795 277.986 L951.0576 277.986 L951.0576 279.361 L949.9795 279.361 L949.9795 277.986 ZM957.126 281.5485 Q956.9385 281.4547 956.7275 281.4 Q956.5166 281.3453 956.251 281.3453 Q955.3447 281.3453 954.8525 281.9391 Q954.3604 282.5328 954.3604 283.6578 L954.3604 287.111 L953.2822 287.111 L953.2822 280.5485 L954.3604 280.5485 L954.3604 281.5641 Q954.7041 280.9703 955.251 280.6813 Q955.7979 280.3922 956.5791 280.3922 Q956.6885 280.3922 956.8213 280.4078 Q956.9541 280.4235 957.1104 280.4547 L957.126 281.5485 ZM963.8721 283.5641 L963.8721 284.0797 L958.9033 284.0797 Q958.9814 285.2047 959.583 285.7828 Q960.1846 286.361 961.2471 286.361 Q961.8721 286.361 962.458 286.2125 Q963.0439 286.0641 963.6221 285.7516 L963.6221 286.7828 Q963.0283 287.0172 962.4189 287.15 Q961.8096 287.2828 961.1846 287.2828 Q959.6221 287.2828 958.7002 286.3688 Q957.7783 285.4547 957.7783 283.8922 Q957.7783 282.2828 958.6533 281.3375 Q959.5283 280.3922 960.9971 280.3922 Q962.3252 280.3922 963.0986 281.2438 Q963.8721 282.0953 963.8721 283.5641 ZM962.7939 283.236 Q962.7783 282.361 962.2939 281.8297 Q961.8096 281.2985 961.0127 281.2985 Q960.1064 281.2985 959.5674 281.8141 Q959.0283 282.3297 958.9502 283.2516 L962.7939 283.236 ZM970.3643 280.7985 L970.3643 281.8141 Q969.8955 281.5485 969.4424 281.4235 Q968.9893 281.2985 968.5205 281.2985 Q967.458 281.2985 966.8799 281.9625 Q966.3018 282.6266 966.3018 283.8297 Q966.3018 285.0328 966.8799 285.6969 Q967.458 286.361 968.5205 286.361 Q968.9893 286.361 969.4424 286.236 Q969.8955 286.111 970.3643 285.861 L970.3643 286.861 Q969.9111 287.0641 969.4268 287.1735 Q968.9424 287.2828 968.3955 287.2828 Q966.9111 287.2828 966.0361 286.3531 Q965.1611 285.4235 965.1611 283.8297 Q965.1611 282.236 966.0439 281.3141 Q966.9268 280.3922 968.4736 280.3922 Q968.958 280.3922 969.4346 280.4938 Q969.9111 280.5953 970.3643 280.7985 ZM973.3057 278.6891 L973.3057 280.5485 L975.5244 280.5485 L975.5244 281.3922 L973.3057 281.3922 L973.3057 284.9547 Q973.3057 285.7516 973.5244 285.9781 Q973.7432 286.2047 974.415 286.2047 L975.5244 286.2047 L975.5244 287.111 L974.415 287.111 Q973.165 287.111 972.6885 286.6422 Q972.2119 286.1735 972.2119 284.9547 L972.2119 281.3922 L971.4307 281.3922 L971.4307 280.5485 L972.2119 280.5485 L972.2119 278.6891 L973.3057 278.6891 ZM979.4795 281.2985 Q978.6201 281.2985 978.1123 281.9781 Q977.6045 282.6578 977.6045 283.8297 Q977.6045 285.0172 978.1045 285.6891 Q978.6045 286.361 979.4795 286.361 Q980.3389 286.361 980.8467 285.6813 Q981.3545 285.0016 981.3545 283.8297 Q981.3545 282.6735 980.8467 281.986 Q980.3389 281.2985 979.4795 281.2985 ZM979.4795 280.3922 Q980.8857 280.3922 981.6904 281.3063 Q982.4951 282.2203 982.4951 283.8297 Q982.4951 285.4391 981.6904 286.361 Q980.8857 287.2828 979.4795 287.2828 Q978.0732 287.2828 977.2686 286.361 Q976.4639 285.4391 976.4639 283.8297 Q976.4639 282.2203 977.2686 281.3063 Q978.0732 280.3922 979.4795 280.3922 ZM988.0869 281.5485 Q987.8994 281.4547 987.6885 281.4 Q987.4775 281.3453 987.2119 281.3453 Q986.3057 281.3453 985.8135 281.9391 Q985.3213 282.5328 985.3213 283.6578 L985.3213 287.111 L984.2432 287.111 L984.2432 280.5485 L985.3213 280.5485 L985.3213 281.5641 Q985.665 280.9703 986.2119 280.6813 Q986.7588 280.3922 987.54 280.3922 Q987.6494 280.3922 987.7822 280.4078 Q987.915 280.4235 988.0713 280.4547 L988.0869 281.5485 ZM989.208 280.5485 L990.2861 280.5485 L990.2861 287.111 L989.208 287.111 L989.208 280.5485 ZM989.208 277.986 L990.2861 277.986 L990.2861 279.361 L989.208 279.361 L989.208 277.986 ZM995.0889 281.2985 Q994.2295 281.2985 993.7217 281.9781 Q993.2139 282.6578 993.2139 283.8297 Q993.2139 285.0172 993.7139 285.6891 Q994.2139 286.361 995.0889 286.361 Q995.9482 286.361 996.4561 285.6813 Q996.9639 285.0016 996.9639 283.8297 Q996.9639 282.6735 996.4561 281.986 Q995.9482 281.2985 995.0889 281.2985 ZM995.0889 280.3922 Q996.4951 280.3922 997.2998 281.3063 Q998.1045 282.2203 998.1045 283.8297 Q998.1045 285.4391 997.2998 286.361 Q996.4951 287.2828 995.0889 287.2828 Q993.6826 287.2828 992.8779 286.361 Q992.0732 285.4391 992.0732 283.8297 Q992.0732 282.2203 992.8779 281.3063 Q993.6826 280.3922 995.0889 280.3922 ZM1004.0713 280.736 L1004.0713 281.7672 Q1003.6182 281.5328 1003.126 281.4156 Q1002.6338 281.2985 1002.1025 281.2985 Q1001.3057 281.2985 1000.8994 281.5406 Q1000.4932 281.7828 1000.4932 282.2828 Q1000.4932 282.6578 1000.7822 282.8688 Q1001.0713 283.0797 1001.9463 283.2672 L1002.3057 283.361 Q1003.4619 283.5953 1003.9463 284.0485 Q1004.4307 284.5016 1004.4307 285.2985 Q1004.4307 286.2203 1003.7041 286.7516 Q1002.9775 287.2828 1001.7119 287.2828 Q1001.1807 287.2828 1000.6104 287.1813 Q1000.04 287.0797 999.415 286.8766 L999.415 285.7516 Q1000.0088 286.0641 1000.5869 286.2203 Q1001.165 286.3766 1001.7432 286.3766 Q1002.4932 286.3766 1002.9072 286.1188 Q1003.3213 285.861 1003.3213 285.3766 Q1003.3213 284.9391 1003.0244 284.7047 Q1002.7275 284.4703 1001.7275 284.2516 L1001.3525 284.1735 Q1000.3525 283.9547 999.9072 283.5172 Q999.4619 283.0797 999.4619 282.3297 Q999.4619 281.3922 1000.1182 280.8922 Q1000.7744 280.3922 1001.9775 280.3922 Q1002.5713 280.3922 1003.1025 280.4781 Q1003.6338 280.5641 1004.0713 280.736 Z" clip-path="url(#clipPath3)" stroke="none"/>
          <path d="M1010.3857 285.6266 L1011.6357 285.6266 L1011.6357 287.111 L1010.3857 287.111 L1010.3857 285.6266 ZM1014.3857 285.6266 L1015.6357 285.6266 L1015.6357 287.111 L1014.3857 287.111 L1014.3857 285.6266 ZM1006.4014 285.6266 L1007.6357 285.6266 L1007.6357 287.111 L1006.4014 287.111 L1006.4014 285.6266 Z" clip-path="url(#clipPath3)" stroke="none"/>
        </g>
      </g>
    </g>
    <g id="y.node.22">
      <g fill="white" text-rendering="geometricPrecision" shape-rendering="geometricPrecision" transform="matrix(1,0,0,1,-171,-110)" stroke="white">
        <rect x="258.7896" y="641.9777" width="520.9531" rx="4" ry="4" height="63.4269" stroke="none"/>
      </g>
      <g>
        <g text-rendering="geometricPrecision" stroke-miterlimit="1.45" shape-rendering="geometricPrecision" font-family="'DejaVu Serif'" transform="matrix(1,0,0,1,-171,-110)" stroke-linecap="butt">
          <text x="264.7896" xml:space="preserve" y="663.8766" stroke="none">Accediendo a los registros del sistema, crea un script que imprima por pantalla</text>
          <text x="264.7896" xml:space="preserve" y="677.8454" stroke="none">las horas de los ultimos accesos de un usuario concreto. Recoge el nombre del</text>
          <text x="264.7896" xml:space="preserve" y="691.8141" stroke="none">usuario con "read" igual que en el ejercicio anterior recogias las opciones.</text>
        </g>
      </g>
      <g stroke-linecap="butt" transform="matrix(1,0,0,1,-171,-110)" fill="gray" text-rendering="geometricPrecision" shape-rendering="geometricPrecision" stroke="gray" stroke-width="2" stroke-miterlimit="1.45">
        <rect x="258.7896" y="641.9777" fill="none" width="520.9531" rx="4" ry="4" height="63.4269"/>
      </g>
    </g>
    <g id="y.node.23">
      <a xlink:href="100-Programas.html">
        <g fill="rgb(255,204,0)" text-rendering="geometricPrecision" shape-rendering="geometricPrecision" transform="matrix(1,0,0,1,-171,-110)" stroke="rgb(255,204,0)">
          <ellipse rx="11.4536" ry="12.1781" cx="232.9858" cy="654.1557" stroke="none"/>
        </g>
        <g>
          <g font-size="14px" stroke-linecap="butt" transform="matrix(1,0,0,1,-171,-110)" text-rendering="geometricPrecision" font-family="'DejaVu Serif'" shape-rendering="geometricPrecision" stroke-miterlimit="1.45">
            <text x="228.5322" xml:space="preserve" y="659.0024" stroke="none">8</text>
          </g>
        </g>
      </a>
    </g>
    <g id="y.node.24">
      <g fill="rgb(255,255,153)" text-rendering="geometricPrecision" shape-rendering="geometricPrecision" transform="matrix(1,0,0,1,-171,-110)" stroke="rgb(255,255,153)">
        <path d="M794.0928 637.3915 L1139.4934 637.3915 L1139.4934 652.3915 L1154.4934 652.3915 L1154.4934 705.4045 L794.0928 705.4045 Z" stroke="none"/>
        <path fill="white" d="M1139.4934 637.3915 L1139.4934 652.3915 L1154.4934 652.3915 Z" fill-rule="evenodd" stroke="none"/>
      </g>
      <g text-rendering="geometricPrecision" stroke-miterlimit="1.45" shape-rendering="geometricPrecision" transform="matrix(1,0,0,1,-171,-110)" stroke-linecap="butt">
        <path fill="none" d="M794.0928 637.3915 L1139.4934 637.3915 L1139.4934 652.3915 L1154.4934 652.3915 L1154.4934 705.4045 L794.0928 705.4045 Z"/>
        <path fill="none" d="M1139.4934 637.3915 L1139.4934 652.3915 L1154.4934 652.3915 Z" fill-rule="evenodd"/>
      </g>
      <g>
        <g text-rendering="geometricPrecision" stroke-miterlimit="1.45" shape-rendering="geometricPrecision" font-family="sans-serif" transform="matrix(1,0,0,1,-171,-110)" stroke-linecap="butt">
          <text x="819.0431" xml:space="preserve" y="654.5992" stroke="none">El comando "tail" muestra las ultimas lineas de un</text>
          <text x="819.0431" xml:space="preserve" y="668.5679" stroke="none">archivo. Usalo en este ejercicio para ver las ultimas</text>
          <text x="819.0431" xml:space="preserve" y="682.5367" stroke="none">lineas del archivo de log.</text>
          <text x="819.0431" xml:space="preserve" y="696.5054" stroke="none">También te hará falta grep, cut y tr.</text>
        </g>
      </g>
    </g>
    <g id="y.node.25">
      <g fill="white" text-rendering="geometricPrecision" shape-rendering="geometricPrecision" transform="matrix(1,0,0,1,-171,-110)" stroke="white">
        <rect x="258.7896" y="715.7506" width="520.9531" rx="4" ry="4" height="44.8491" stroke="none"/>
      </g>
      <g>
        <g text-rendering="geometricPrecision" stroke-miterlimit="1.45" shape-rendering="geometricPrecision" font-family="'DejaVu Serif'" transform="matrix(1,0,0,1,-171,-110)" stroke-linecap="butt">
          <text x="264.7896" xml:space="preserve" y="735.3451" stroke="none">Accediendo a los registros del sistema, crea un script que imprima por pantalla</text>
          <text x="264.7896" xml:space="preserve" y="749.3138" stroke="none">el nombre ( solo el nombre ) del ultimo paquete instalado.</text>
        </g>
      </g>
      <g stroke-linecap="butt" transform="matrix(1,0,0,1,-171,-110)" fill="gray" text-rendering="geometricPrecision" shape-rendering="geometricPrecision" stroke="gray" stroke-width="2" stroke-miterlimit="1.45">
        <rect x="258.7896" y="715.7506" fill="none" width="520.9531" rx="4" ry="4" height="44.8491"/>
      </g>
    </g>
    <g id="y.node.26">
      <a xlink:href="100-Programas.html">
        <g fill="rgb(255,204,0)" text-rendering="geometricPrecision" shape-rendering="geometricPrecision" transform="matrix(1,0,0,1,-171,-110)" stroke="rgb(255,204,0)">
          <ellipse rx="11.4536" ry="12.1781" cx="232.9858" cy="727.9287" stroke="none"/>
        </g>
        <g>
          <g font-size="14px" stroke-linecap="butt" transform="matrix(1,0,0,1,-171,-110)" text-rendering="geometricPrecision" font-family="'DejaVu Serif'" shape-rendering="geometricPrecision" stroke-miterlimit="1.45">
            <text x="228.5322" xml:space="preserve" y="732.7754" stroke="none">9</text>
          </g>
        </g>
      </a>
    </g>
    <g id="y.node.27">
      <g fill="rgb(255,255,153)" text-rendering="geometricPrecision" shape-rendering="geometricPrecision" transform="matrix(1,0,0,1,-171,-110)" stroke="rgb(255,255,153)">
        <path d="M794.0928 716.0563 L1139.4934 716.0563 L1139.4934 731.0563 L1154.4934 731.0563 L1154.4934 765.4915 L794.0928 765.4915 Z" stroke="none"/>
        <path fill="white" d="M1139.4934 716.0563 L1139.4934 731.0563 L1154.4934 731.0563 Z" fill-rule="evenodd" stroke="none"/>
      </g>
      <g text-rendering="geometricPrecision" stroke-miterlimit="1.45" shape-rendering="geometricPrecision" transform="matrix(1,0,0,1,-171,-110)" stroke-linecap="butt">
        <path fill="none" d="M794.0928 716.0563 L1139.4934 716.0563 L1139.4934 731.0563 L1154.4934 731.0563 L1154.4934 765.4915 L794.0928 765.4915 Z"/>
        <path fill="none" d="M1139.4934 716.0563 L1139.4934 731.0563 L1154.4934 731.0563 Z" fill-rule="evenodd"/>
      </g>
      <g>
        <g text-rendering="geometricPrecision" stroke-miterlimit="1.45" shape-rendering="geometricPrecision" font-family="sans-serif" transform="matrix(1,0,0,1,-171,-110)" stroke-linecap="butt">
          <text x="801.6847" xml:space="preserve" y="737.9438" stroke="none">Busca en el manual de tail como hacer para que muestre</text>
          <text x="801.6847" xml:space="preserve" y="751.9125" stroke="none">solo una linea</text>
        </g>
      </g>
    </g>
  </g>
</svg>
